# Blender v2.81 (sub 16) OBJ File: ''
# www.blender.org
mtllib WheelBL.mtl
o WheelBR
v 0.200000 0.100000 -0.100000
v 0.200000 -0.100000 0.100000
v 0.200000 -0.100000 -0.100000
v 0.200000 0.100000 0.100000
v 0.100000 -0.200000 -0.100000
v 0.100000 -0.300000 0.100000
v 0.100000 -0.300000 -0.100000
v 0.100000 -0.200000 0.100000
v 0.100000 -0.100000 -0.200000
v 0.100000 -0.200000 -0.200000
v 0.100000 -0.200000 0.200000
v 0.100000 -0.100000 -0.100000
v 0.100000 -0.100000 0.100000
v 0.100000 -0.100000 0.200000
v 0.100000 0.100000 -0.300000
v 0.100000 -0.100000 -0.300000
v 0.100000 0.100000 -0.200000
v 0.100000 0.100000 -0.100000
v 0.100000 0.100000 0.100000
v 0.100000 -0.100000 0.300000
v 0.100000 0.100000 0.200000
v 0.100000 0.100000 0.300000
v 0.100000 0.200000 -0.200000
v 0.100000 0.200000 -0.100000
v 0.100000 0.200000 0.100000
v 0.100000 0.200000 0.200000
v 0.100000 0.300000 -0.100000
v 0.100000 0.300000 0.100000
v -0.100000 -0.300000 -0.100000
v -0.100000 -0.300000 0.100000
v -0.100000 -0.200000 -0.100000
v -0.100000 -0.200000 0.100000
v -0.100000 -0.200000 -0.200000
v -0.100000 -0.100000 -0.200000
v -0.100000 -0.200000 0.200000
v -0.100000 -0.100000 0.200000
v -0.100000 -0.100000 -0.300000
v -0.100000 0.100000 -0.300000
v -0.100000 -0.100000 0.300000
v -0.100000 0.100000 -0.200000
v -0.100000 0.100000 0.200000
v -0.100000 0.100000 0.300000
v -0.100000 0.200000 -0.200000
v -0.100000 0.200000 -0.100000
v -0.100000 0.200000 0.100000
v -0.100000 0.200000 0.200000
v -0.100000 0.300000 -0.100000
v -0.100000 0.300000 0.100000
v -0.100000 -0.100000 -0.300000
v 0.100000 0.100000 -0.300000
v 0.100000 -0.100000 -0.300000
v -0.100000 0.100000 -0.300000
v -0.100000 -0.200000 -0.200000
v 0.100000 -0.100000 -0.200000
v 0.100000 -0.200000 -0.200000
v -0.100000 -0.100000 -0.200000
v -0.100000 0.100000 -0.200000
v 0.100000 0.200000 -0.200000
v 0.100000 0.100000 -0.200000
v -0.100000 0.200000 -0.200000
v 0.100000 -0.100000 -0.100000
v 0.200000 0.100000 -0.100000
v 0.200000 -0.100000 -0.100000
v 0.100000 0.100000 -0.100000
v -0.100000 -0.300000 -0.100000
v 0.100000 -0.200000 -0.100000
v 0.100000 -0.300000 -0.100000
v -0.100000 -0.200000 -0.100000
v -0.100000 0.200000 -0.100000
v 0.100000 0.300000 -0.100000
v 0.100000 0.200000 -0.100000
v -0.100000 0.300000 -0.100000
v 0.200000 -0.100000 0.100000
v 0.200000 0.100000 0.100000
v 0.100000 -0.100000 0.100000
v 0.100000 0.100000 0.100000
v 0.100000 -0.300000 0.100000
v 0.100000 -0.200000 0.100000
v -0.100000 -0.300000 0.100000
v -0.100000 -0.200000 0.100000
v 0.100000 0.200000 0.100000
v 0.100000 0.300000 0.100000
v -0.100000 0.200000 0.100000
v -0.100000 0.300000 0.100000
v 0.100000 -0.200000 0.200000
v 0.100000 -0.100000 0.200000
v -0.100000 -0.200000 0.200000
v -0.100000 -0.100000 0.200000
v 0.100000 0.100000 0.200000
v 0.100000 0.200000 0.200000
v -0.100000 0.100000 0.200000
v -0.100000 0.200000 0.200000
v 0.100000 -0.100000 0.300000
v 0.100000 0.100000 0.300000
v -0.100000 -0.100000 0.300000
v -0.100000 0.100000 0.300000
v 0.100000 -0.300000 0.100000
v -0.100000 -0.300000 -0.100000
v 0.100000 -0.300000 -0.100000
v -0.100000 -0.300000 0.100000
v 0.100000 -0.200000 -0.100000
v -0.100000 -0.200000 -0.200000
v 0.100000 -0.200000 -0.200000
v -0.100000 -0.200000 -0.100000
v 0.100000 -0.200000 0.200000
v -0.100000 -0.200000 0.100000
v 0.100000 -0.200000 0.100000
v -0.100000 -0.200000 0.200000
v 0.100000 -0.100000 -0.200000
v -0.100000 -0.100000 -0.300000
v 0.100000 -0.100000 -0.300000
v -0.100000 -0.100000 -0.200000
v 0.200000 -0.100000 0.100000
v 0.100000 -0.100000 -0.100000
v 0.200000 -0.100000 -0.100000
v 0.100000 -0.100000 0.100000
v 0.100000 -0.100000 0.300000
v -0.100000 -0.100000 0.200000
v 0.100000 -0.100000 0.200000
v -0.100000 -0.100000 0.300000
v 0.100000 0.100000 -0.300000
v -0.100000 0.100000 -0.300000
v 0.100000 0.100000 -0.200000
v -0.100000 0.100000 -0.200000
v 0.200000 0.100000 -0.100000
v 0.100000 0.100000 -0.100000
v 0.200000 0.100000 0.100000
v 0.100000 0.100000 0.100000
v 0.100000 0.100000 0.200000
v -0.100000 0.100000 0.200000
v 0.100000 0.100000 0.300000
v -0.100000 0.100000 0.300000
v 0.100000 0.200000 -0.200000
v -0.100000 0.200000 -0.200000
v 0.100000 0.200000 -0.100000
v -0.100000 0.200000 -0.100000
v 0.100000 0.200000 0.100000
v -0.100000 0.200000 0.100000
v 0.100000 0.200000 0.200000
v -0.100000 0.200000 0.200000
v 0.100000 0.300000 -0.100000
v -0.100000 0.300000 -0.100000
v 0.100000 0.300000 0.100000
v -0.100000 0.300000 0.100000
vt 0.544922 0.500000
vt 0.544922 0.500000
vt 0.544922 0.500000
vt 0.544922 0.500000
vt 0.537109 0.500000
vt 0.537109 0.500000
vt 0.537109 0.500000
vt 0.537109 0.500000
vt 0.537109 0.500000
vt 0.537109 0.500000
vt 0.537109 0.500000
vt 0.537109 0.500000
vt 0.537109 0.500000
vt 0.537109 0.500000
vt 0.537109 0.500000
vt 0.537109 0.500000
vt 0.537109 0.500000
vt 0.537109 0.500000
vt 0.537109 0.500000
vt 0.537109 0.500000
vt 0.537109 0.500000
vt 0.537109 0.500000
vt 0.537109 0.500000
vt 0.537109 0.500000
vt 0.537109 0.500000
vt 0.537109 0.500000
vt 0.537109 0.500000
vt 0.537109 0.500000
vt 0.537109 0.500000
vt 0.537109 0.500000
vt 0.537109 0.500000
vt 0.537109 0.500000
vt 0.537109 0.500000
vt 0.537109 0.500000
vt 0.537109 0.500000
vt 0.537109 0.500000
vt 0.537109 0.500000
vt 0.537109 0.500000
vt 0.537109 0.500000
vt 0.537109 0.500000
vt 0.537109 0.500000
vt 0.537109 0.500000
vt 0.537109 0.500000
vt 0.537109 0.500000
vt 0.537109 0.500000
vt 0.537109 0.500000
vt 0.537109 0.500000
vt 0.537109 0.500000
vt 0.537109 0.500000
vt 0.537109 0.500000
vt 0.537109 0.500000
vt 0.537109 0.500000
vt 0.537109 0.500000
vt 0.537109 0.500000
vt 0.537109 0.500000
vt 0.537109 0.500000
vt 0.537109 0.500000
vt 0.537109 0.500000
vt 0.537109 0.500000
vt 0.537109 0.500000
vt 0.544922 0.500000
vt 0.544922 0.500000
vt 0.544922 0.500000
vt 0.544922 0.500000
vt 0.537109 0.500000
vt 0.537109 0.500000
vt 0.537109 0.500000
vt 0.537109 0.500000
vt 0.537109 0.500000
vt 0.537109 0.500000
vt 0.537109 0.500000
vt 0.537109 0.500000
vt 0.544922 0.500000
vt 0.544922 0.500000
vt 0.544922 0.500000
vt 0.544922 0.500000
vt 0.537109 0.500000
vt 0.537109 0.500000
vt 0.537109 0.500000
vt 0.537109 0.500000
vt 0.537109 0.500000
vt 0.537109 0.500000
vt 0.537109 0.500000
vt 0.537109 0.500000
vt 0.537109 0.500000
vt 0.537109 0.500000
vt 0.537109 0.500000
vt 0.537109 0.500000
vt 0.537109 0.500000
vt 0.537109 0.500000
vt 0.537109 0.500000
vt 0.537109 0.500000
vt 0.537109 0.500000
vt 0.537109 0.500000
vt 0.537109 0.500000
vt 0.537109 0.500000
vt 0.537109 0.500000
vt 0.537109 0.500000
vt 0.537109 0.500000
vt 0.537109 0.500000
vt 0.537109 0.500000
vt 0.537109 0.500000
vt 0.537109 0.500000
vt 0.537109 0.500000
vt 0.537109 0.500000
vt 0.537109 0.500000
vt 0.537109 0.500000
vt 0.537109 0.500000
vt 0.537109 0.500000
vt 0.537109 0.500000
vt 0.537109 0.500000
vt 0.537109 0.500000
vt 0.544922 0.500000
vt 0.544922 0.500000
vt 0.544922 0.500000
vt 0.544922 0.500000
vt 0.537109 0.500000
vt 0.537109 0.500000
vt 0.537109 0.500000
vt 0.537109 0.500000
vt 0.537109 0.500000
vt 0.537109 0.500000
vt 0.537109 0.500000
vt 0.537109 0.500000
vt 0.544922 0.500000
vt 0.544922 0.500000
vt 0.544922 0.500000
vt 0.544922 0.500000
vt 0.537109 0.500000
vt 0.537109 0.500000
vt 0.537109 0.500000
vt 0.537109 0.500000
vt 0.537109 0.500000
vt 0.537109 0.500000
vt 0.537109 0.500000
vt 0.537109 0.500000
vt 0.537109 0.500000
vt 0.537109 0.500000
vt 0.537109 0.500000
vt 0.537109 0.500000
vt 0.537109 0.500000
vt 0.537109 0.500000
vt 0.537109 0.500000
vt 0.537109 0.500000
vn 1.0000 0.0000 -0.0000
vn -1.0000 0.0000 0.0000
vn 0.0000 -0.0000 -1.0000
vn 0.0000 0.0000 1.0000
vn 0.0000 -1.0000 0.0000
vn 0.0000 1.0000 -0.0000
usemtl Material.001
s 1
f 1/1/1 2/2/1 3/3/1
f 4/4/1 2/2/1 1/1/1
f 5/5/1 6/6/1 7/7/1
f 8/8/1 6/6/1 5/5/1
f 9/9/1 5/5/1 10/10/1
f 9/9/1 11/11/1 8/8/1
f 9/9/1 8/8/1 5/5/1
f 12/12/1 11/11/1 9/9/1
f 13/13/1 11/11/1 12/12/1
f 14/14/1 11/11/1 13/13/1
f 15/15/1 9/9/1 16/16/1
f 15/15/1 12/12/1 9/9/1
f 17/17/1 12/12/1 15/15/1
f 18/18/1 12/12/1 17/17/1
f 19/19/1 20/20/1 14/14/1
f 19/19/1 14/14/1 13/13/1
f 21/21/1 20/20/1 19/19/1
f 22/22/1 20/20/1 21/21/1
f 23/23/1 18/18/1 17/17/1
f 23/23/1 21/21/1 19/19/1
f 23/23/1 19/19/1 18/18/1
f 24/24/1 21/21/1 23/23/1
f 25/25/1 21/21/1 24/24/1
f 26/26/1 21/21/1 25/25/1
f 27/27/1 25/25/1 24/24/1
f 28/28/1 25/25/1 27/27/1
f 29/29/2 30/30/2 31/31/2
f 31/31/2 30/30/2 32/32/2
f 33/33/2 31/31/2 34/34/2
f 32/32/2 35/35/2 34/34/2
f 31/31/2 32/32/2 34/34/2
f 34/34/2 35/35/2 36/36/2
f 37/37/2 34/34/2 38/38/2
f 36/36/2 39/39/2 38/38/2
f 34/34/2 36/36/2 38/38/2
f 38/38/2 39/39/2 40/40/2
f 40/40/2 39/39/2 41/41/2
f 41/41/2 39/39/2 42/42/2
f 40/40/2 41/41/2 43/43/2
f 43/43/2 41/41/2 44/44/2
f 44/44/2 41/41/2 45/45/2
f 45/45/2 41/41/2 46/46/2
f 44/44/2 45/45/2 47/47/2
f 47/47/2 45/45/2 48/48/2
f 49/49/3 50/50/3 51/51/3
f 52/52/3 50/50/3 49/49/3
f 53/53/3 54/54/3 55/55/3
f 56/56/3 54/54/3 53/53/3
f 57/57/3 58/58/3 59/59/3
f 60/60/3 58/58/3 57/57/3
f 61/61/3 62/62/3 63/63/3
f 64/64/3 62/62/3 61/61/3
f 65/65/3 66/66/3 67/67/3
f 68/68/3 66/66/3 65/65/3
f 69/69/3 70/70/3 71/71/3
f 72/72/3 70/70/3 69/69/3
f 73/73/4 74/74/4 75/75/4
f 75/75/4 74/74/4 76/76/4
f 77/77/4 78/78/4 79/79/4
f 79/79/4 78/78/4 80/80/4
f 81/81/4 82/82/4 83/83/4
f 83/83/4 82/82/4 84/84/4
f 85/85/4 86/86/4 87/87/4
f 87/87/4 86/86/4 88/88/4
f 89/89/4 90/90/4 91/91/4
f 91/91/4 90/90/4 92/92/4
f 93/93/4 94/94/4 95/95/4
f 95/95/4 94/94/4 96/96/4
f 97/97/5 98/98/5 99/99/5
f 100/100/5 98/98/5 97/97/5
f 101/101/5 102/102/5 103/103/5
f 104/104/5 102/102/5 101/101/5
f 105/105/5 106/106/5 107/107/5
f 108/108/5 106/106/5 105/105/5
f 109/109/5 110/110/5 111/111/5
f 112/112/5 110/110/5 109/109/5
f 113/113/5 114/114/5 115/115/5
f 116/116/5 114/114/5 113/113/5
f 117/117/5 118/118/5 119/119/5
f 120/120/5 118/118/5 117/117/5
f 121/121/6 122/122/6 123/123/6
f 123/123/6 122/122/6 124/124/6
f 125/125/6 126/126/6 127/127/6
f 127/127/6 126/126/6 128/128/6
f 129/129/6 130/130/6 131/131/6
f 131/131/6 130/130/6 132/132/6
f 133/133/6 134/134/6 135/135/6
f 135/135/6 134/134/6 136/136/6
f 137/137/6 138/138/6 139/139/6
f 139/139/6 138/138/6 140/140/6
f 141/141/6 142/142/6 143/143/6
f 143/143/6 142/142/6 144/144/6
