# MagicaVoxel @ Ephtracy

# group
o 

# material
mtllib YellowHouseParts-114.mtl
usemtl palette

# normals
vn -1 0 0
vn 1 0 0
vn 0 0 1
vn 0 0 -1
vn 0 -1 0
vn 0 1 0

# texcoords
vt 0.439453 0.5
vt 0.513672 0.5
vt 0.541016 0.5
vt 0.791016 0.5

# verts
v -0.4 2.8 1.1
v -0.4 2.8 1
v -0.4 2.9 1.1
v -0.4 2.9 1
v -0.3 2.9 1.1
v -0.3 2.9 1
v -0.3 3 1.1
v -0.3 3 1
v -0.2 3 1.1
v -0.2 3 1
v -0.2 3.1 1.1
v -0.2 3.1 1
v -0.1 3.1 1.1
v -0.1 3.1 1
v -0.1 3.3 1.1
v -0.1 3.3 1
v 0 2.8 1.1
v 0 2.8 1
v 0 2.9 1.1
v 0 2.9 1
v 0.1 2.9 1.1
v 0.1 2.9 1
v 0.1 3 1.1
v 0.1 3 1
v 0.1 3.3 1.1
v 0.1 3.3 1
v -0.4 2.8 1.1
v -0.4 2.9 1.1
v -0.3 2.8 1.1
v -0.3 2.9 1.1
v -0.3 3 1.1
v -0.2 2.8 1.1
v -0.2 2.9 1.1
v -0.2 3 1.1
v -0.2 3.1 1.1
v -0.1 2.8 1.1
v -0.1 2.9 1.1
v -0.1 3 1.1
v -0.1 3.1 1.1
v -0.1 3.3 1.1
v 0 2.8 1.1
v 0 2.9 1.1
v 0.1 2.9 1.1
v 0.1 3 1.1
v 0.1 3.3 1.1
v -0.4 2.8 1
v -0.4 2.9 1
v -0.3 2.8 1
v -0.3 2.9 1
v -0.3 3 1
v -0.2 2.8 1
v -0.2 2.9 1
v -0.2 3 1
v -0.2 3.1 1
v -0.1 2.8 1
v -0.1 2.9 1
v -0.1 3 1
v -0.1 3.1 1
v -0.1 3.3 1
v 0 2.8 1
v 0 2.9 1
v 0.1 2.9 1
v 0.1 3 1
v 0.1 3.3 1
v -0.4 2.8 1.1
v -0.3 2.8 1.1
v -0.2 2.8 1.1
v -0.1 2.8 1.1
v 0 2.8 1.1
v -0.4 2.8 1
v -0.3 2.8 1
v -0.2 2.8 1
v -0.1 2.8 1
v 0 2.8 1
v 0 2.9 1.1
v 0.1 2.9 1.1
v 0 2.9 1
v 0.1 2.9 1
v -0.4 2.9 1.1
v -0.3 2.9 1.1
v -0.4 2.9 1
v -0.3 2.9 1
v -0.3 3 1.1
v -0.2 3 1.1
v -0.3 3 1
v -0.2 3 1
v -0.2 3.1 1.1
v -0.1 3.1 1.1
v -0.2 3.1 1
v -0.1 3.1 1
v -0.1 3.3 1.1
v 0.1 3.3 1.1
v -0.1 3.3 1
v 0.1 3.3 1

# faces
f 3/1/1 2/1/1 1/1/1
f 4/1/1 2/1/1 3/1/1
f 7/1/1 6/1/1 5/1/1
f 8/1/1 6/1/1 7/1/1
f 11/1/1 10/1/1 9/1/1
f 12/1/1 10/1/1 11/1/1
f 15/1/1 14/1/1 13/1/1
f 16/1/1 14/1/1 15/1/1
f 17/2/2 18/2/2 19/2/2
f 19/2/2 18/2/2 20/2/2
f 21/3/2 22/3/2 23/3/2
f 23/3/2 22/3/2 24/3/2
f 23/1/2 24/1/2 25/1/2
f 25/1/2 24/1/2 26/1/2
f 29/1/3 28/1/3 27/1/3
f 30/1/3 28/1/3 29/1/3
f 32/4/3 30/4/3 29/4/3
f 33/1/3 31/1/3 30/1/3
f 33/4/3 30/4/3 32/4/3
f 34/1/3 31/1/3 33/1/3
f 36/1/3 33/1/3 32/1/3
f 36/1/3 35/1/3 34/1/3
f 36/1/3 34/1/3 33/1/3
f 37/1/3 35/1/3 36/1/3
f 38/1/3 35/1/3 37/1/3
f 39/1/3 35/1/3 38/1/3
f 41/2/3 37/2/3 36/2/3
f 42/3/3 38/3/3 37/3/3
f 42/2/3 37/2/3 41/2/3
f 43/3/3 38/3/3 42/3/3
f 44/1/3 40/1/3 39/1/3
f 44/3/3 38/3/3 43/3/3
f 44/1/3 39/1/3 38/1/3
f 45/1/3 40/1/3 44/1/3
f 46/1/4 47/1/4 48/1/4
f 48/1/4 47/1/4 49/1/4
f 48/4/4 49/4/4 51/4/4
f 49/1/4 50/1/4 52/1/4
f 51/4/4 49/4/4 52/4/4
f 52/1/4 50/1/4 53/1/4
f 51/1/4 52/1/4 55/1/4
f 53/1/4 54/1/4 55/1/4
f 52/1/4 53/1/4 55/1/4
f 55/1/4 54/1/4 56/1/4
f 56/1/4 54/1/4 57/1/4
f 57/1/4 54/1/4 58/1/4
f 55/2/4 56/2/4 60/2/4
f 56/3/4 57/3/4 61/3/4
f 60/2/4 56/2/4 61/2/4
f 61/3/4 57/3/4 62/3/4
f 58/1/4 59/1/4 63/1/4
f 62/3/4 57/3/4 63/3/4
f 57/1/4 58/1/4 63/1/4
f 63/1/4 59/1/4 64/1/4
f 70/1/5 66/1/5 65/1/5
f 71/4/5 67/4/5 66/4/5
f 71/1/5 66/1/5 70/1/5
f 72/1/5 68/1/5 67/1/5
f 72/4/5 67/4/5 71/4/5
f 73/2/5 69/2/5 68/2/5
f 73/1/5 68/1/5 72/1/5
f 74/2/5 69/2/5 73/2/5
f 77/3/5 76/3/5 75/3/5
f 78/3/5 76/3/5 77/3/5
f 79/1/6 80/1/6 81/1/6
f 81/1/6 80/1/6 82/1/6
f 83/1/6 84/1/6 85/1/6
f 85/1/6 84/1/6 86/1/6
f 87/1/6 88/1/6 89/1/6
f 89/1/6 88/1/6 90/1/6
f 91/1/6 92/1/6 93/1/6
f 93/1/6 92/1/6 94/1/6
