# MagicaVoxel @ Ephtracy

# group
o 

# material
mtllib YellowHouseParts-51.mtl
usemtl palette

# normals
vn -1 0 0
vn 1 0 0
vn 0 0 1
vn 0 0 -1
vn 0 -1 0
vn 0 1 0

# texcoords
vt 0.439453 0.5
vt 0.509766 0.5
vt 0.513672 0.5
vt 0.541016 0.5

# verts
v -0.8 0.5 -1.1
v -0.8 0.5 -1.2
v -0.8 0.6 -1.1
v -0.8 0.6 -1.2
v -0.8 0.7 -1.1
v -0.8 0.7 -1.2
v -0.8 0.8 -1.1
v -0.8 0.8 -1.2
v -0.8 0.9 -1.1
v -0.8 0.9 -1.2
v -0.8 1 -1.1
v -0.8 1 -1.2
v -0.8 1.1 -1.1
v -0.8 1.1 -1.2
v -0.8 1.2 -1.1
v -0.8 1.2 -1.2
v -0.7 0.8 -1.2
v -0.7 0.8 -1.3
v -0.7 0.9 -1.2
v -0.7 1 -1.2
v -0.7 1.1 -1.2
v -0.7 1.2 -1.2
v -0.7 1.2 -1.3
v -0.7 0.5 -1.1
v -0.7 0.5 -1.2
v -0.7 0.6 -1.1
v -0.7 0.6 -1.2
v -0.7 0.7 -1.1
v -0.7 0.7 -1.2
v -0.7 0.8 -1.1
v -0.7 0.8 -1.2
v -0.7 0.9 -1.1
v -0.7 0.9 -1.2
v -0.7 1 -1.1
v -0.7 1 -1.2
v -0.7 1.1 -1.1
v -0.7 1.1 -1.2
v -0.7 1.2 -1.1
v -0.7 1.2 -1.2
v -0.6 0.8 -1.2
v -0.6 0.8 -1.3
v -0.6 0.9 -1.2
v -0.6 0.9 -1.3
v -0.5 1 -1.2
v -0.5 1 -1.3
v -0.5 1.1 -1.2
v -0.5 1.1 -1.3
v -0.5 1.2 -1.2
v -0.5 1.2 -1.3
v -0.4 0.9 -1.2
v -0.4 0.9 -1.3
v -0.4 1 -1.2
v -0.4 1 -1.3
v -0.8 0.5 -1.1
v -0.8 0.6 -1.1
v -0.8 0.7 -1.1
v -0.8 0.8 -1.1
v -0.8 0.9 -1.1
v -0.8 1 -1.1
v -0.8 1.1 -1.1
v -0.8 1.2 -1.1
v -0.7 0.5 -1.1
v -0.7 0.6 -1.1
v -0.7 0.7 -1.1
v -0.7 0.8 -1.1
v -0.7 0.9 -1.1
v -0.7 1 -1.1
v -0.7 1.1 -1.1
v -0.7 1.2 -1.1
v -0.7 0.8 -1.2
v -0.7 0.9 -1.2
v -0.7 1 -1.2
v -0.7 1.1 -1.2
v -0.7 1.2 -1.2
v -0.6 0.8 -1.2
v -0.6 0.9 -1.2
v -0.6 1 -1.2
v -0.6 1.1 -1.2
v -0.6 1.2 -1.2
v -0.5 1 -1.2
v -0.5 1.1 -1.2
v -0.5 1.2 -1.2
v -0.4 0.9 -1.2
v -0.4 1 -1.2
v -0.8 0.5 -1.2
v -0.8 0.6 -1.2
v -0.8 0.7 -1.2
v -0.8 0.8 -1.2
v -0.8 0.9 -1.2
v -0.8 1 -1.2
v -0.8 1.1 -1.2
v -0.8 1.2 -1.2
v -0.7 0.5 -1.2
v -0.7 0.6 -1.2
v -0.7 0.7 -1.2
v -0.7 0.8 -1.2
v -0.7 0.9 -1.2
v -0.7 1 -1.2
v -0.7 1.1 -1.2
v -0.7 1.2 -1.2
v -0.7 0.8 -1.3
v -0.7 1.2 -1.3
v -0.6 0.8 -1.3
v -0.6 0.9 -1.3
v -0.6 1 -1.3
v -0.6 1.1 -1.3
v -0.6 1.2 -1.3
v -0.5 1 -1.3
v -0.5 1.1 -1.3
v -0.5 1.2 -1.3
v -0.4 0.9 -1.3
v -0.4 1 -1.3
v -0.8 0.5 -1.1
v -0.7 0.5 -1.1
v -0.8 0.5 -1.2
v -0.7 0.5 -1.2
v -0.7 0.8 -1.2
v -0.6 0.8 -1.2
v -0.7 0.8 -1.3
v -0.6 0.8 -1.3
v -0.6 0.9 -1.2
v -0.4 0.9 -1.2
v -0.6 0.9 -1.3
v -0.4 0.9 -1.3
v -0.5 1 -1.2
v -0.4 1 -1.2
v -0.5 1 -1.3
v -0.4 1 -1.3
v -0.8 1.2 -1.1
v -0.7 1.2 -1.1
v -0.8 1.2 -1.2
v -0.7 1.2 -1.2
v -0.6 1.2 -1.2
v -0.5 1.2 -1.2
v -0.7 1.2 -1.3
v -0.6 1.2 -1.3
v -0.5 1.2 -1.3

# faces
f 3/1/1 2/1/1 1/1/1
f 4/1/1 2/1/1 3/1/1
f 5/3/1 4/3/1 3/3/1
f 6/3/1 4/3/1 5/3/1
f 7/2/1 6/2/1 5/2/1
f 8/2/1 6/2/1 7/2/1
f 9/3/1 8/3/1 7/3/1
f 10/3/1 8/3/1 9/3/1
f 11/2/1 10/2/1 9/2/1
f 12/2/1 10/2/1 11/2/1
f 13/3/1 12/3/1 11/3/1
f 14/3/1 12/3/1 13/3/1
f 15/2/1 14/2/1 13/2/1
f 16/2/1 14/2/1 15/2/1
f 19/1/1 18/1/1 17/1/1
f 20/1/1 18/1/1 19/1/1
f 21/1/1 18/1/1 20/1/1
f 22/1/1 18/1/1 21/1/1
f 23/1/1 18/1/1 22/1/1
f 24/1/2 25/1/2 26/1/2
f 26/1/2 25/1/2 27/1/2
f 26/3/2 27/3/2 28/3/2
f 28/3/2 27/3/2 29/3/2
f 28/2/2 29/2/2 30/2/2
f 30/2/2 29/2/2 31/2/2
f 30/3/2 31/3/2 32/3/2
f 32/3/2 31/3/2 33/3/2
f 32/2/2 33/2/2 34/2/2
f 34/2/2 33/2/2 35/2/2
f 34/3/2 35/3/2 36/3/2
f 36/3/2 35/3/2 37/3/2
f 36/2/2 37/2/2 38/2/2
f 38/2/2 37/2/2 39/2/2
f 40/1/2 41/1/2 42/1/2
f 42/1/2 41/1/2 43/1/2
f 44/2/2 45/2/2 46/2/2
f 46/2/2 45/2/2 47/2/2
f 46/4/2 47/4/2 48/4/2
f 48/4/2 47/4/2 49/4/2
f 50/3/2 51/3/2 52/3/2
f 52/3/2 51/3/2 53/3/2
f 62/1/3 55/1/3 54/1/3
f 63/3/3 56/3/3 55/3/3
f 63/1/3 55/1/3 62/1/3
f 64/2/3 57/2/3 56/2/3
f 64/3/3 56/3/3 63/3/3
f 65/3/3 58/3/3 57/3/3
f 65/2/3 57/2/3 64/2/3
f 66/2/3 59/2/3 58/2/3
f 66/3/3 58/3/3 65/3/3
f 67/3/3 60/3/3 59/3/3
f 67/2/3 59/2/3 66/2/3
f 68/2/3 61/2/3 60/2/3
f 68/3/3 60/3/3 67/3/3
f 69/2/3 61/2/3 68/2/3
f 75/1/3 71/1/3 70/1/3
f 75/1/3 74/1/3 73/1/3
f 75/1/3 73/1/3 72/1/3
f 75/1/3 72/1/3 71/1/3
f 76/1/3 74/1/3 75/1/3
f 77/1/3 74/1/3 76/1/3
f 78/1/3 74/1/3 77/1/3
f 79/1/3 74/1/3 78/1/3
f 80/3/3 77/3/3 76/3/3
f 80/2/3 78/2/3 77/2/3
f 81/4/3 79/4/3 78/4/3
f 81/2/3 78/2/3 80/2/3
f 82/4/3 79/4/3 81/4/3
f 83/3/3 80/3/3 76/3/3
f 84/3/3 80/3/3 83/3/3
f 85/1/4 86/1/4 93/1/4
f 86/3/4 87/3/4 94/3/4
f 93/1/4 86/1/4 94/1/4
f 87/2/4 88/2/4 95/2/4
f 94/3/4 87/3/4 95/3/4
f 88/3/4 89/3/4 96/3/4
f 95/2/4 88/2/4 96/2/4
f 89/2/4 90/2/4 97/2/4
f 96/3/4 89/3/4 97/3/4
f 90/3/4 91/3/4 98/3/4
f 97/2/4 90/2/4 98/2/4
f 91/2/4 92/2/4 99/2/4
f 98/3/4 91/3/4 99/3/4
f 99/2/4 92/2/4 100/2/4
f 101/1/4 102/1/4 103/1/4
f 103/1/4 102/1/4 104/1/4
f 104/1/4 102/1/4 105/1/4
f 105/1/4 102/1/4 106/1/4
f 106/1/4 102/1/4 107/1/4
f 104/3/4 105/3/4 108/3/4
f 105/2/4 106/2/4 108/2/4
f 106/4/4 107/4/4 109/4/4
f 108/2/4 106/2/4 109/2/4
f 109/4/4 107/4/4 110/4/4
f 104/3/4 108/3/4 111/3/4
f 111/3/4 108/3/4 112/3/4
f 115/1/5 114/1/5 113/1/5
f 116/1/5 114/1/5 115/1/5
f 119/1/5 118/1/5 117/1/5
f 120/1/5 118/1/5 119/1/5
f 123/3/5 122/3/5 121/3/5
f 124/3/5 122/3/5 123/3/5
f 125/3/6 126/3/6 127/3/6
f 127/3/6 126/3/6 128/3/6
f 129/2/6 130/2/6 131/2/6
f 131/2/6 130/2/6 132/2/6
f 132/1/6 133/1/6 135/1/6
f 133/4/6 134/4/6 136/4/6
f 135/1/6 133/1/6 136/1/6
f 136/4/6 134/4/6 137/4/6
