# MagicaVoxel @ Ephtracy

# group
o 

# material
mtllib YellowHouseParts-74.mtl
usemtl palette

# normals
vn -1 0 0
vn 1 0 0
vn 0 0 1
vn 0 0 -1
vn 0 -1 0
vn 0 1 0

# texcoords
vt 0.439453 0.5
vt 0.509766 0.5
vt 0.513672 0.5
vt 0.541016 0.5
vt 0.791016 0.5

# verts
v -0.2 1.4 -1.2
v -0.2 1.4 -1.3
v -0.2 1.8 -1.2
v -0.2 1.8 -1.3
v -0.0999999 1.3 -1.2
v -0.0999999 1.3 -1.3
v -0.0999999 1.4 -1.1
v -0.0999999 1.4 -1.2
v -0.0999999 1.4 -1.3
v -0.0999999 1.5 -1.1
v -0.0999999 1.5 -1.2
v -0.0999999 1.6 -1.1
v -0.0999999 1.6 -1.2
v -0.0999999 1.7 -1.1
v -0.0999999 1.7 -1.2
v -0.0999999 1.8 -1.1
v -0.0999999 1.8 -1.2
v -0.0999999 1.9 -1.1
v -0.0999999 1.9 -1.2
v -0.0999999 2 -1.1
v -0.0999999 2 -1.2
v 5.96046e-008 1.2 -1.1
v 5.96046e-008 1.2 -1.2
v 5.96046e-008 1.3 -1.1
v 5.96046e-008 1.3 -1.2
v 5.96046e-008 1.4 -1
v 5.96046e-008 1.4 -1.1
v 5.96046e-008 1.4 -1.2
v 5.96046e-008 1.5 -1.1
v 5.96046e-008 1.6 -1.1
v 5.96046e-008 1.7 -1.1
v 5.96046e-008 1.8 -1.1
v 5.96046e-008 1.9 -1.1
v 5.96046e-008 2 -1
v 5.96046e-008 2 -1.1
v -0.0999999 1.4 -1.2
v -0.0999999 1.4 -1.3
v -0.0999999 1.5 -1.2
v -0.0999999 1.6 -1.2
v -0.0999999 1.7 -1.2
v -0.0999999 1.8 -1.2
v -0.0999999 1.8 -1.3
v 5.96046e-008 1.4 -1.1
v 5.96046e-008 1.4 -1.2
v 5.96046e-008 1.5 -1.1
v 5.96046e-008 1.5 -1.2
v 5.96046e-008 1.6 -1.1
v 5.96046e-008 1.6 -1.2
v 5.96046e-008 1.7 -1.1
v 5.96046e-008 1.7 -1.2
v 5.96046e-008 1.8 -1.1
v 5.96046e-008 1.8 -1.2
v 5.96046e-008 1.9 -1.1
v 5.96046e-008 1.9 -1.2
v 5.96046e-008 2 -1.1
v 5.96046e-008 2 -1.2
v 0.1 1.3 -1.1
v 0.1 1.3 -1.2
v 0.1 1.4 -1
v 0.1 1.4 -1.1
v 0.1 1.4 -1.2
v 0.1 2 -1
v 0.1 2 -1.1
v 0.3 1.2 -1.1
v 0.3 1.2 -1.2
v 0.3 1.3 -1.1
v 0.3 1.3 -1.2
v 0.3 1.3 -1.3
v 0.3 1.4 -1.2
v 0.3 1.4 -1.3
v 5.96046e-008 1.4 -1
v 5.96046e-008 2 -1
v 0.1 1.4 -1
v 0.1 2 -1
v -0.0999999 1.4 -1.1
v -0.0999999 1.5 -1.1
v -0.0999999 1.6 -1.1
v -0.0999999 1.7 -1.1
v -0.0999999 1.8 -1.1
v -0.0999999 1.9 -1.1
v -0.0999999 2 -1.1
v 5.96046e-008 1.2 -1.1
v 5.96046e-008 1.3 -1.1
v 5.96046e-008 1.4 -1.1
v 5.96046e-008 1.5 -1.1
v 5.96046e-008 1.6 -1.1
v 5.96046e-008 1.7 -1.1
v 5.96046e-008 1.8 -1.1
v 5.96046e-008 1.9 -1.1
v 5.96046e-008 2 -1.1
v 0.1 1.3 -1.1
v 0.1 1.4 -1.1
v 0.3 1.2 -1.1
v 0.3 1.3 -1.1
v -0.2 1.4 -1.2
v -0.2 1.8 -1.2
v -0.0999999 1.3 -1.2
v -0.0999999 1.4 -1.2
v -0.0999999 1.5 -1.2
v -0.0999999 1.6 -1.2
v -0.0999999 1.7 -1.2
v -0.0999999 1.8 -1.2
v 5.96046e-008 1.3 -1.2
v 5.96046e-008 1.4 -1.2
v 0.1 1.3 -1.2
v 0.1 1.4 -1.2
v 0.3 1.3 -1.2
v 0.3 1.4 -1.2
v 5.96046e-008 1.4 -1.1
v 5.96046e-008 1.5 -1.1
v 5.96046e-008 1.6 -1.1
v 5.96046e-008 1.7 -1.1
v 5.96046e-008 1.8 -1.1
v 5.96046e-008 1.9 -1.1
v 5.96046e-008 2 -1.1
v 0.1 1.4 -1.1
v 0.1 2 -1.1
v -0.0999999 1.4 -1.2
v -0.0999999 1.5 -1.2
v -0.0999999 1.6 -1.2
v -0.0999999 1.7 -1.2
v -0.0999999 1.8 -1.2
v -0.0999999 1.9 -1.2
v -0.0999999 2 -1.2
v 5.96046e-008 1.2 -1.2
v 5.96046e-008 1.3 -1.2
v 5.96046e-008 1.4 -1.2
v 5.96046e-008 1.5 -1.2
v 5.96046e-008 1.6 -1.2
v 5.96046e-008 1.7 -1.2
v 5.96046e-008 1.8 -1.2
v 5.96046e-008 1.9 -1.2
v 5.96046e-008 2 -1.2
v 0.3 1.2 -1.2
v 0.3 1.3 -1.2
v -0.2 1.4 -1.3
v -0.2 1.8 -1.3
v -0.0999999 1.3 -1.3
v -0.0999999 1.4 -1.3
v -0.0999999 1.8 -1.3
v 0.3 1.3 -1.3
v 0.3 1.4 -1.3
v 5.96046e-008 1.2 -1.1
v 0.3 1.2 -1.1
v 5.96046e-008 1.2 -1.2
v 0.3 1.2 -1.2
v -0.0999999 1.3 -1.2
v 5.96046e-008 1.3 -1.2
v 0.3 1.3 -1.2
v -0.0999999 1.3 -1.3
v 0.3 1.3 -1.3
v 5.96046e-008 1.4 -1
v 0.1 1.4 -1
v -0.0999999 1.4 -1.1
v 5.96046e-008 1.4 -1.1
v 0.1 1.4 -1.1
v -0.2 1.4 -1.2
v -0.0999999 1.4 -1.2
v 5.96046e-008 1.4 -1.2
v -0.2 1.4 -1.3
v -0.0999999 1.4 -1.3
v 0.1 1.3 -1.1
v 0.3 1.3 -1.1
v 0.1 1.3 -1.2
v 0.3 1.3 -1.2
v 5.96046e-008 1.4 -1.1
v 0.1 1.4 -1.1
v -0.0999999 1.4 -1.2
v 5.96046e-008 1.4 -1.2
v 0.1 1.4 -1.2
v 0.3 1.4 -1.2
v -0.0999999 1.4 -1.3
v 0.3 1.4 -1.3
v -0.2 1.8 -1.2
v -0.0999999 1.8 -1.2
v -0.2 1.8 -1.3
v -0.0999999 1.8 -1.3
v 5.96046e-008 2 -1
v 0.1 2 -1
v -0.0999999 2 -1.1
v 5.96046e-008 2 -1.1
v 0.1 2 -1.1
v -0.0999999 2 -1.2
v 5.96046e-008 2 -1.2

# faces
f 3/1/1 2/1/1 1/1/1
f 4/1/1 2/1/1 3/1/1
f 8/5/1 6/5/1 5/5/1
f 9/5/1 6/5/1 8/5/1
f 10/1/1 8/1/1 7/1/1
f 11/1/1 8/1/1 10/1/1
f 12/3/1 11/3/1 10/3/1
f 13/3/1 11/3/1 12/3/1
f 14/2/1 13/2/1 12/2/1
f 15/2/1 13/2/1 14/2/1
f 16/3/1 15/3/1 14/3/1
f 17/3/1 15/3/1 16/3/1
f 18/2/1 17/2/1 16/2/1
f 19/2/1 17/2/1 18/2/1
f 20/3/1 19/3/1 18/3/1
f 21/3/1 19/3/1 20/3/1
f 24/4/1 23/4/1 22/4/1
f 25/4/1 23/4/1 24/4/1
f 27/5/1 25/5/1 24/5/1
f 28/5/1 25/5/1 27/5/1
f 29/1/1 27/1/1 26/1/1
f 30/1/1 29/1/1 26/1/1
f 31/1/1 30/1/1 26/1/1
f 32/1/1 31/1/1 26/1/1
f 33/1/1 32/1/1 26/1/1
f 34/1/1 33/1/1 26/1/1
f 35/1/1 33/1/1 34/1/1
f 36/1/2 37/1/2 38/1/2
f 38/1/2 37/1/2 39/1/2
f 39/1/2 37/1/2 40/1/2
f 40/1/2 37/1/2 41/1/2
f 41/1/2 37/1/2 42/1/2
f 43/1/2 44/1/2 45/1/2
f 45/1/2 44/1/2 46/1/2
f 45/3/2 46/3/2 47/3/2
f 47/3/2 46/3/2 48/3/2
f 47/2/2 48/2/2 49/2/2
f 49/2/2 48/2/2 50/2/2
f 49/3/2 50/3/2 51/3/2
f 51/3/2 50/3/2 52/3/2
f 51/2/2 52/2/2 53/2/2
f 53/2/2 52/2/2 54/2/2
f 53/3/2 54/3/2 55/3/2
f 55/3/2 54/3/2 56/3/2
f 57/5/2 58/5/2 60/5/2
f 60/5/2 58/5/2 61/5/2
f 59/1/2 60/1/2 62/1/2
f 62/1/2 60/1/2 63/1/2
f 64/4/2 65/4/2 66/4/2
f 66/4/2 65/4/2 67/4/2
f 67/5/2 68/5/2 69/5/2
f 69/5/2 68/5/2 70/5/2
f 73/1/3 72/1/3 71/1/3
f 74/1/3 72/1/3 73/1/3
f 84/1/3 76/1/3 75/1/3
f 85/3/3 77/3/3 76/3/3
f 85/1/3 76/1/3 84/1/3
f 86/2/3 78/2/3 77/2/3
f 86/3/3 77/3/3 85/3/3
f 87/3/3 79/3/3 78/3/3
f 87/2/3 78/2/3 86/2/3
f 88/2/3 80/2/3 79/2/3
f 88/3/3 79/3/3 87/3/3
f 89/3/3 81/3/3 80/3/3
f 89/2/3 80/2/3 88/2/3
f 90/3/3 81/3/3 89/3/3
f 91/4/3 83/4/3 82/4/3
f 91/5/3 84/5/3 83/5/3
f 92/5/3 84/5/3 91/5/3
f 93/4/3 91/4/3 82/4/3
f 94/4/3 91/4/3 93/4/3
f 98/1/3 96/1/3 95/1/3
f 99/1/3 96/1/3 98/1/3
f 100/1/3 96/1/3 99/1/3
f 101/1/3 96/1/3 100/1/3
f 102/1/3 96/1/3 101/1/3
f 103/5/3 98/5/3 97/5/3
f 104/5/3 98/5/3 103/5/3
f 107/5/3 106/5/3 105/5/3
f 108/5/3 106/5/3 107/5/3
f 109/1/4 110/1/4 116/1/4
f 114/1/4 115/1/4 116/1/4
f 113/1/4 114/1/4 116/1/4
f 112/1/4 113/1/4 116/1/4
f 111/1/4 112/1/4 116/1/4
f 110/1/4 111/1/4 116/1/4
f 116/1/4 115/1/4 117/1/4
f 118/1/4 119/1/4 127/1/4
f 119/3/4 120/3/4 128/3/4
f 127/1/4 119/1/4 128/1/4
f 120/2/4 121/2/4 129/2/4
f 128/3/4 120/3/4 129/3/4
f 121/3/4 122/3/4 130/3/4
f 129/2/4 121/2/4 130/2/4
f 122/2/4 123/2/4 131/2/4
f 130/3/4 122/3/4 131/3/4
f 123/3/4 124/3/4 132/3/4
f 131/2/4 123/2/4 132/2/4
f 132/3/4 124/3/4 133/3/4
f 125/4/4 126/4/4 134/4/4
f 134/4/4 126/4/4 135/4/4
f 136/1/4 137/1/4 139/1/4
f 139/1/4 137/1/4 140/1/4
f 138/5/4 139/5/4 141/5/4
f 141/5/4 139/5/4 142/5/4
f 145/4/5 144/4/5 143/4/5
f 146/4/5 144/4/5 145/4/5
f 150/5/5 148/5/5 147/5/5
f 150/5/5 149/5/5 148/5/5
f 151/5/5 149/5/5 150/5/5
f 155/1/5 153/1/5 152/1/5
f 156/1/5 153/1/5 155/1/5
f 158/1/5 155/1/5 154/1/5
f 159/1/5 155/1/5 158/1/5
f 160/1/5 158/1/5 157/1/5
f 161/1/5 158/1/5 160/1/5
f 162/4/6 163/4/6 164/4/6
f 164/4/6 163/4/6 165/4/6
f 166/5/6 167/5/6 169/5/6
f 169/5/6 167/5/6 170/5/6
f 168/5/6 169/5/6 172/5/6
f 170/5/6 171/5/6 172/5/6
f 169/5/6 170/5/6 172/5/6
f 172/5/6 171/5/6 173/5/6
f 174/1/6 175/1/6 176/1/6
f 176/1/6 175/1/6 177/1/6
f 178/1/6 179/1/6 181/1/6
f 181/1/6 179/1/6 182/1/6
f 180/3/6 181/3/6 183/3/6
f 183/3/6 181/3/6 184/3/6
