# MagicaVoxel @ Ephtracy

# group
o 

# material
mtllib YellowHouseParts-35.mtl
usemtl palette

# normals
vn -1 0 0
vn 1 0 0
vn 0 0 1
vn 0 0 -1
vn 0 -1 0
vn 0 1 0

# texcoords
vt 0.189453 0.5
vt 0.439453 0.5
vt 0.544922 0.5

# verts
v -2.23517e-008 0.1 1.2
v -2.23517e-008 0.1 1.1
v -2.23517e-008 0.2 1.2
v -2.23517e-008 0.2 1.1
v 0.1 0.1 1.3
v 0.1 0.1 1.2
v 0.1 0.2 1.3
v 0.1 0.2 1.2
v 0.2 0 1.2
v 0.2 0 1.1
v 0.2 0.1 1.2
v 0.2 0.1 1.1
v 0.6 0 1.2
v 0.6 0 1.1
v 0.6 0.1 1.2
v 0.6 0.1 1.1
v 0.7 0.1 1.3
v 0.7 0.1 1.2
v 0.7 0.2 1.3
v 0.7 0.2 1.2
v 0.8 0.1 1.2
v 0.8 0.1 1.1
v 0.8 0.2 1.2
v 0.8 0.2 1.1
v 0.1 0.1 1.3
v 0.1 0.2 1.3
v 0.7 0.1 1.3
v 0.7 0.2 1.3
v -2.23517e-008 0.1 1.2
v -2.23517e-008 0.2 1.2
v 0.1 0.1 1.2
v 0.1 0.2 1.2
v 0.2 0 1.2
v 0.2 0.1 1.2
v 0.6 0 1.2
v 0.6 0.1 1.2
v 0.7 0.1 1.2
v 0.7 0.2 1.2
v 0.8 0.1 1.2
v 0.8 0.2 1.2
v -2.23517e-008 0.1 1.1
v -2.23517e-008 0.2 1.1
v 0.2 0 1.1
v 0.2 0.1 1.1
v 0.2 0.2 1.1
v 0.6 0 1.1
v 0.6 0.1 1.1
v 0.6 0.2 1.1
v 0.8 0.1 1.1
v 0.8 0.2 1.1
v 0.2 0 1.2
v 0.6 0 1.2
v 0.2 0 1.1
v 0.6 0 1.1
v 0.1 0.1 1.3
v 0.7 0.1 1.3
v -2.23517e-008 0.1 1.2
v 0.1 0.1 1.2
v 0.2 0.1 1.2
v 0.6 0.1 1.2
v 0.7 0.1 1.2
v 0.8 0.1 1.2
v -2.23517e-008 0.1 1.1
v 0.2 0.1 1.1
v 0.6 0.1 1.1
v 0.8 0.1 1.1
v 0.1 0.2 1.3
v 0.7 0.2 1.3
v -2.23517e-008 0.2 1.2
v 0.1 0.2 1.2
v 0.2 0.2 1.2
v 0.6 0.2 1.2
v 0.7 0.2 1.2
v 0.8 0.2 1.2
v -2.23517e-008 0.2 1.1
v 0.2 0.2 1.1
v 0.6 0.2 1.1
v 0.8 0.2 1.1

# faces
f 3/3/1 2/3/1 1/3/1
f 4/3/1 2/3/1 3/3/1
f 7/3/1 6/3/1 5/3/1
f 8/3/1 6/3/1 7/3/1
f 11/2/1 10/2/1 9/2/1
f 12/2/1 10/2/1 11/2/1
f 13/2/2 14/2/2 15/2/2
f 15/2/2 14/2/2 16/2/2
f 17/3/2 18/3/2 19/3/2
f 19/3/2 18/3/2 20/3/2
f 21/3/2 22/3/2 23/3/2
f 23/3/2 22/3/2 24/3/2
f 27/3/3 26/3/3 25/3/3
f 28/3/3 26/3/3 27/3/3
f 31/3/3 30/3/3 29/3/3
f 32/3/3 30/3/3 31/3/3
f 35/2/3 34/2/3 33/2/3
f 36/2/3 34/2/3 35/2/3
f 39/3/3 38/3/3 37/3/3
f 40/3/3 38/3/3 39/3/3
f 41/3/4 42/3/4 44/3/4
f 44/3/4 42/3/4 45/3/4
f 43/2/4 44/2/4 46/2/4
f 44/1/4 45/1/4 47/1/4
f 46/2/4 44/2/4 47/2/4
f 47/1/4 45/1/4 48/1/4
f 47/3/4 48/3/4 49/3/4
f 49/3/4 48/3/4 50/3/4
f 53/2/5 52/2/5 51/2/5
f 54/2/5 52/2/5 53/2/5
f 58/3/5 56/3/5 55/3/5
f 59/3/5 56/3/5 58/3/5
f 60/3/5 56/3/5 59/3/5
f 61/3/5 56/3/5 60/3/5
f 63/3/5 58/3/5 57/3/5
f 63/3/5 59/3/5 58/3/5
f 64/3/5 59/3/5 63/3/5
f 65/3/5 62/3/5 61/3/5
f 65/3/5 61/3/5 60/3/5
f 66/3/5 62/3/5 65/3/5
f 67/3/6 68/3/6 70/3/6
f 70/3/6 68/3/6 71/3/6
f 71/3/6 68/3/6 72/3/6
f 72/3/6 68/3/6 73/3/6
f 69/3/6 70/3/6 75/3/6
f 70/3/6 71/3/6 75/3/6
f 71/1/6 72/1/6 76/1/6
f 75/3/6 71/3/6 76/3/6
f 73/3/6 74/3/6 77/3/6
f 76/1/6 72/1/6 77/1/6
f 72/3/6 73/3/6 77/3/6
f 77/3/6 74/3/6 78/3/6
