# MagicaVoxel @ Ephtracy

# group
o 

# material
mtllib YellowHouseParts-103.mtl
usemtl palette

# normals
vn -1 0 0
vn 1 0 0
vn 0 0 1
vn 0 0 -1
vn 0 -1 0
vn 0 1 0

# texcoords
vt 0.189453 0.5
vt 0.193359 0.5

# verts
v -0.8 2.4 0.2
v -0.8 2.4 0.1
v -0.8 2.4 0
v -0.8 2.5 0.2
v -0.8 2.5 0.1
v -0.8 2.5 0
v -0.7 2.5 0.4
v -0.7 2.5 0.3
v -0.7 2.5 0.2
v -0.7 2.5 0.1
v -0.7 2.5 0
v -0.7 2.5 -0.1
v -0.7 2.5 -0.2
v -0.7 2.6 0.4
v -0.7 2.6 0.3
v -0.7 2.6 0.2
v -0.7 2.6 0.1
v -0.7 2.6 0
v -0.7 2.6 -0.1
v -0.7 2.6 -0.2
v -0.6 2.6 0.3
v -0.6 2.6 0.2
v -0.6 2.6 0.1
v -0.6 2.6 0
v -0.6 2.6 -0.1
v -0.6 2.6 -0.2
v -0.6 2.6 -0.3
v -0.6 2.6 -0.4
v -0.6 2.6 -0.5
v -0.6 2.7 0.3
v -0.6 2.7 0.2
v -0.6 2.7 0.1
v -0.6 2.7 0
v -0.6 2.7 -0.1
v -0.6 2.7 -0.2
v -0.6 2.7 -0.3
v -0.6 2.7 -0.4
v -0.6 2.7 -0.5
v -0.5 2.7 0.2
v -0.5 2.7 0.1
v -0.5 2.7 0
v -0.5 2.7 -0.1
v -0.5 2.7 -0.2
v -0.5 2.7 -0.3
v -0.5 2.7 -0.4
v -0.5 2.8 0.2
v -0.5 2.8 0.1
v -0.5 2.8 0
v -0.5 2.8 -0.1
v -0.5 2.8 -0.2
v -0.5 2.8 -0.3
v -0.5 2.8 -0.4
v -0.4 2.8 0.1
v -0.4 2.8 0
v -0.4 2.8 -0.1
v -0.4 2.8 -0.2
v -0.4 2.8 -0.3
v -0.4 2.9 0.1
v -0.4 2.9 0
v -0.4 2.9 -0.1
v -0.4 2.9 -0.2
v -0.4 2.9 -0.3
v -0.3 2.9 0
v -0.3 2.9 -0.1
v -0.3 2.9 -0.2
v -0.3 3 0
v -0.3 3 -0.1
v -0.3 3 -0.2
v -0.2 3 -0.1
v -0.2 3 -0.2
v -0.2 3.1 -0.1
v -0.2 3.1 -0.2
v -0.7 2.4 0.2
v -0.7 2.4 0.1
v -0.7 2.4 0
v -0.7 2.5 0.2
v -0.7 2.5 0.1
v -0.7 2.5 0
v -0.6 2.5 0.4
v -0.6 2.5 0.3
v -0.6 2.5 0.2
v -0.6 2.5 0.1
v -0.6 2.5 0
v -0.6 2.5 -0.1
v -0.6 2.5 -0.2
v -0.6 2.6 0.4
v -0.6 2.6 0.3
v -0.6 2.6 0.2
v -0.6 2.6 0.1
v -0.6 2.6 0
v -0.6 2.6 -0.1
v -0.6 2.6 -0.2
v -0.5 2.6 0.3
v -0.5 2.6 0.2
v -0.5 2.6 0.1
v -0.5 2.6 0
v -0.5 2.6 -0.1
v -0.5 2.6 -0.2
v -0.5 2.6 -0.3
v -0.5 2.6 -0.4
v -0.5 2.6 -0.5
v -0.5 2.7 0.3
v -0.5 2.7 0.2
v -0.5 2.7 0.1
v -0.5 2.7 0
v -0.5 2.7 -0.1
v -0.5 2.7 -0.2
v -0.5 2.7 -0.3
v -0.5 2.7 -0.4
v -0.5 2.7 -0.5
v -0.4 2.7 0.2
v -0.4 2.7 0.1
v -0.4 2.7 0
v -0.4 2.7 -0.1
v -0.4 2.7 -0.2
v -0.4 2.7 -0.3
v -0.4 2.7 -0.4
v -0.4 2.8 0.2
v -0.4 2.8 0.1
v -0.4 2.8 0
v -0.4 2.8 -0.1
v -0.4 2.8 -0.2
v -0.4 2.8 -0.3
v -0.4 2.8 -0.4
v -0.3 2.8 0.1
v -0.3 2.8 0
v -0.3 2.8 -0.1
v -0.3 2.8 -0.2
v -0.3 2.8 -0.3
v -0.3 2.9 0.1
v -0.3 2.9 0
v -0.3 2.9 -0.1
v -0.3 2.9 -0.2
v -0.3 2.9 -0.3
v -0.2 2.9 0
v -0.2 2.9 -0.1
v -0.2 2.9 -0.2
v -0.2 3 0
v -0.2 3 -0.1
v -0.2 3 -0.2
v -0.1 3 -0.1
v -0.1 3 -0.2
v -0.1 3.1 -0.1
v -0.1 3.1 -0.2
v -0.7 2.5 0.4
v -0.7 2.6 0.4
v -0.6 2.5 0.4
v -0.6 2.6 0.4
v -0.6 2.6 0.3
v -0.6 2.7 0.3
v -0.5 2.6 0.3
v -0.5 2.7 0.3
v -0.8 2.4 0.2
v -0.8 2.5 0.2
v -0.7 2.4 0.2
v -0.7 2.5 0.2
v -0.5 2.7 0.2
v -0.5 2.8 0.2
v -0.4 2.7 0.2
v -0.4 2.8 0.2
v -0.4 2.8 0.1
v -0.4 2.9 0.1
v -0.3 2.8 0.1
v -0.3 2.9 0.1
v -0.3 2.9 0
v -0.3 3 0
v -0.2 2.9 0
v -0.2 3 0
v -0.2 3 -0.1
v -0.2 3.1 -0.1
v -0.1 3 -0.1
v -0.1 3.1 -0.1
v -0.8 2.4 0
v -0.8 2.5 0
v -0.7 2.4 0
v -0.7 2.5 0
v -0.7 2.5 -0.2
v -0.7 2.6 -0.2
v -0.6 2.5 -0.2
v -0.6 2.6 -0.2
v -0.3 2.9 -0.2
v -0.3 3 -0.2
v -0.2 2.9 -0.2
v -0.2 3 -0.2
v -0.2 3.1 -0.2
v -0.1 3 -0.2
v -0.1 3.1 -0.2
v -0.4 2.8 -0.3
v -0.4 2.9 -0.3
v -0.3 2.8 -0.3
v -0.3 2.9 -0.3
v -0.5 2.7 -0.4
v -0.5 2.8 -0.4
v -0.4 2.7 -0.4
v -0.4 2.8 -0.4
v -0.6 2.6 -0.5
v -0.6 2.7 -0.5
v -0.5 2.6 -0.5
v -0.5 2.7 -0.5
v -0.8 2.4 0.2
v -0.7 2.4 0.2
v -0.8 2.4 0.1
v -0.7 2.4 0.1
v -0.8 2.4 0
v -0.7 2.4 0
v -0.7 2.5 0.4
v -0.6 2.5 0.4
v -0.7 2.5 0.3
v -0.6 2.5 0.3
v -0.7 2.5 0.2
v -0.6 2.5 0.2
v -0.7 2.5 0.1
v -0.6 2.5 0.1
v -0.7 2.5 0
v -0.6 2.5 0
v -0.7 2.5 -0.1
v -0.6 2.5 -0.1
v -0.7 2.5 -0.2
v -0.6 2.5 -0.2
v -0.6 2.6 0.3
v -0.5 2.6 0.3
v -0.6 2.6 0.2
v -0.5 2.6 0.2
v -0.6 2.6 0.1
v -0.5 2.6 0.1
v -0.6 2.6 0
v -0.5 2.6 0
v -0.6 2.6 -0.1
v -0.5 2.6 -0.1
v -0.6 2.6 -0.2
v -0.5 2.6 -0.2
v -0.6 2.6 -0.3
v -0.5 2.6 -0.3
v -0.6 2.6 -0.4
v -0.5 2.6 -0.4
v -0.6 2.6 -0.5
v -0.5 2.6 -0.5
v -0.5 2.7 0.2
v -0.4 2.7 0.2
v -0.5 2.7 0.1
v -0.4 2.7 0.1
v -0.5 2.7 0
v -0.4 2.7 0
v -0.5 2.7 -0.1
v -0.4 2.7 -0.1
v -0.5 2.7 -0.2
v -0.4 2.7 -0.2
v -0.5 2.7 -0.3
v -0.4 2.7 -0.3
v -0.5 2.7 -0.4
v -0.4 2.7 -0.4
v -0.4 2.8 0.1
v -0.3 2.8 0.1
v -0.4 2.8 0
v -0.3 2.8 0
v -0.4 2.8 -0.1
v -0.3 2.8 -0.1
v -0.4 2.8 -0.2
v -0.3 2.8 -0.2
v -0.4 2.8 -0.3
v -0.3 2.8 -0.3
v -0.3 2.9 0
v -0.2 2.9 0
v -0.3 2.9 -0.1
v -0.2 2.9 -0.1
v -0.3 2.9 -0.2
v -0.2 2.9 -0.2
v -0.2 3 -0.1
v -0.1 3 -0.1
v -0.2 3 -0.2
v -0.1 3 -0.2
v -0.8 2.5 0.2
v -0.7 2.5 0.2
v -0.8 2.5 0.1
v -0.7 2.5 0.1
v -0.8 2.5 0
v -0.7 2.5 0
v -0.7 2.6 0.4
v -0.6 2.6 0.4
v -0.7 2.6 0.3
v -0.6 2.6 0.3
v -0.7 2.6 0.2
v -0.6 2.6 0.2
v -0.7 2.6 0.1
v -0.6 2.6 0.1
v -0.7 2.6 0
v -0.6 2.6 0
v -0.7 2.6 -0.1
v -0.6 2.6 -0.1
v -0.7 2.6 -0.2
v -0.6 2.6 -0.2
v -0.6 2.7 0.3
v -0.5 2.7 0.3
v -0.6 2.7 0.2
v -0.5 2.7 0.2
v -0.6 2.7 0.1
v -0.5 2.7 0.1
v -0.6 2.7 0
v -0.5 2.7 0
v -0.6 2.7 -0.1
v -0.5 2.7 -0.1
v -0.6 2.7 -0.2
v -0.5 2.7 -0.2
v -0.6 2.7 -0.3
v -0.5 2.7 -0.3
v -0.6 2.7 -0.4
v -0.5 2.7 -0.4
v -0.6 2.7 -0.5
v -0.5 2.7 -0.5
v -0.5 2.8 0.2
v -0.4 2.8 0.2
v -0.5 2.8 0.1
v -0.4 2.8 0.1
v -0.5 2.8 0
v -0.4 2.8 0
v -0.5 2.8 -0.1
v -0.4 2.8 -0.1
v -0.5 2.8 -0.2
v -0.4 2.8 -0.2
v -0.5 2.8 -0.3
v -0.4 2.8 -0.3
v -0.5 2.8 -0.4
v -0.4 2.8 -0.4
v -0.4 2.9 0.1
v -0.3 2.9 0.1
v -0.4 2.9 0
v -0.3 2.9 0
v -0.4 2.9 -0.1
v -0.3 2.9 -0.1
v -0.4 2.9 -0.2
v -0.3 2.9 -0.2
v -0.4 2.9 -0.3
v -0.3 2.9 -0.3
v -0.3 3 0
v -0.2 3 0
v -0.3 3 -0.1
v -0.2 3 -0.1
v -0.3 3 -0.2
v -0.2 3 -0.2
v -0.2 3.1 -0.1
v -0.1 3.1 -0.1
v -0.2 3.1 -0.2
v -0.1 3.1 -0.2

# faces
f 4/1/1 2/1/1 1/1/1
f 5/2/1 3/2/1 2/2/1
f 5/1/1 2/1/1 4/1/1
f 6/2/1 3/2/1 5/2/1
f 14/2/1 8/2/1 7/2/1
f 15/1/1 9/1/1 8/1/1
f 15/2/1 8/2/1 14/2/1
f 16/2/1 10/2/1 9/2/1
f 16/1/1 9/1/1 15/1/1
f 17/1/1 11/1/1 10/1/1
f 17/2/1 10/2/1 16/2/1
f 18/2/1 12/2/1 11/2/1
f 18/1/1 11/1/1 17/1/1
f 19/1/1 13/1/1 12/1/1
f 19/2/1 12/2/1 18/2/1
f 20/1/1 13/1/1 19/1/1
f 30/2/1 22/2/1 21/2/1
f 31/1/1 23/1/1 22/1/1
f 31/2/1 22/2/1 30/2/1
f 32/2/1 24/2/1 23/2/1
f 32/1/1 23/1/1 31/1/1
f 33/1/1 25/1/1 24/1/1
f 33/2/1 24/2/1 32/2/1
f 34/2/1 26/2/1 25/2/1
f 34/1/1 25/1/1 33/1/1
f 35/1/1 27/1/1 26/1/1
f 35/2/1 26/2/1 34/2/1
f 36/2/1 28/2/1 27/2/1
f 36/1/1 27/1/1 35/1/1
f 37/1/1 29/1/1 28/1/1
f 37/2/1 28/2/1 36/2/1
f 38/1/1 29/1/1 37/1/1
f 46/2/1 40/2/1 39/2/1
f 47/1/1 41/1/1 40/1/1
f 47/2/1 40/2/1 46/2/1
f 48/2/1 42/2/1 41/2/1
f 48/1/1 41/1/1 47/1/1
f 49/1/1 43/1/1 42/1/1
f 49/2/1 42/2/1 48/2/1
f 50/2/1 44/2/1 43/2/1
f 50/1/1 43/1/1 49/1/1
f 51/1/1 45/1/1 44/1/1
f 51/2/1 44/2/1 50/2/1
f 52/1/1 45/1/1 51/1/1
f 58/2/1 54/2/1 53/2/1
f 59/1/1 55/1/1 54/1/1
f 59/2/1 54/2/1 58/2/1
f 60/2/1 56/2/1 55/2/1
f 60/1/1 55/1/1 59/1/1
f 61/1/1 57/1/1 56/1/1
f 61/2/1 56/2/1 60/2/1
f 62/1/1 57/1/1 61/1/1
f 66/2/1 64/2/1 63/2/1
f 67/1/1 65/1/1 64/1/1
f 67/2/1 64/2/1 66/2/1
f 68/1/1 65/1/1 67/1/1
f 71/2/1 70/2/1 69/2/1
f 72/2/1 70/2/1 71/2/1
f 73/1/2 74/1/2 76/1/2
f 74/2/2 75/2/2 77/2/2
f 76/1/2 74/1/2 77/1/2
f 77/2/2 75/2/2 78/2/2
f 79/2/2 80/2/2 86/2/2
f 80/1/2 81/1/2 87/1/2
f 86/2/2 80/2/2 87/2/2
f 81/2/2 82/2/2 88/2/2
f 87/1/2 81/1/2 88/1/2
f 82/1/2 83/1/2 89/1/2
f 88/2/2 82/2/2 89/2/2
f 83/2/2 84/2/2 90/2/2
f 89/1/2 83/1/2 90/1/2
f 84/1/2 85/1/2 91/1/2
f 90/2/2 84/2/2 91/2/2
f 91/1/2 85/1/2 92/1/2
f 93/2/2 94/2/2 102/2/2
f 94/1/2 95/1/2 103/1/2
f 102/2/2 94/2/2 103/2/2
f 95/2/2 96/2/2 104/2/2
f 103/1/2 95/1/2 104/1/2
f 96/1/2 97/1/2 105/1/2
f 104/2/2 96/2/2 105/2/2
f 97/2/2 98/2/2 106/2/2
f 105/1/2 97/1/2 106/1/2
f 98/1/2 99/1/2 107/1/2
f 106/2/2 98/2/2 107/2/2
f 99/2/2 100/2/2 108/2/2
f 107/1/2 99/1/2 108/1/2
f 100/1/2 101/1/2 109/1/2
f 108/2/2 100/2/2 109/2/2
f 109/1/2 101/1/2 110/1/2
f 111/2/2 112/2/2 118/2/2
f 112/1/2 113/1/2 119/1/2
f 118/2/2 112/2/2 119/2/2
f 113/2/2 114/2/2 120/2/2
f 119/1/2 113/1/2 120/1/2
f 114/1/2 115/1/2 121/1/2
f 120/2/2 114/2/2 121/2/2
f 115/2/2 116/2/2 122/2/2
f 121/1/2 115/1/2 122/1/2
f 116/1/2 117/1/2 123/1/2
f 122/2/2 116/2/2 123/2/2
f 123/1/2 117/1/2 124/1/2
f 125/2/2 126/2/2 130/2/2
f 126/1/2 127/1/2 131/1/2
f 130/2/2 126/2/2 131/2/2
f 127/2/2 128/2/2 132/2/2
f 131/1/2 127/1/2 132/1/2
f 128/1/2 129/1/2 133/1/2
f 132/2/2 128/2/2 133/2/2
f 133/1/2 129/1/2 134/1/2
f 135/2/2 136/2/2 138/2/2
f 136/1/2 137/1/2 139/1/2
f 138/2/2 136/2/2 139/2/2
f 139/1/2 137/1/2 140/1/2
f 141/2/2 142/2/2 143/2/2
f 143/2/2 142/2/2 144/2/2
f 147/2/3 146/2/3 145/2/3
f 148/2/3 146/2/3 147/2/3
f 151/2/3 150/2/3 149/2/3
f 152/2/3 150/2/3 151/2/3
f 155/1/3 154/1/3 153/1/3
f 156/1/3 154/1/3 155/1/3
f 159/2/3 158/2/3 157/2/3
f 160/2/3 158/2/3 159/2/3
f 163/2/3 162/2/3 161/2/3
f 164/2/3 162/2/3 163/2/3
f 167/2/3 166/2/3 165/2/3
f 168/2/3 166/2/3 167/2/3
f 171/2/3 170/2/3 169/2/3
f 172/2/3 170/2/3 171/2/3
f 173/2/4 174/2/4 175/2/4
f 175/2/4 174/2/4 176/2/4
f 177/1/4 178/1/4 179/1/4
f 179/1/4 178/1/4 180/1/4
f 181/1/4 182/1/4 183/1/4
f 183/1/4 182/1/4 184/1/4
f 184/2/4 185/2/4 186/2/4
f 186/2/4 185/2/4 187/2/4
f 188/1/4 189/1/4 190/1/4
f 190/1/4 189/1/4 191/1/4
f 192/1/4 193/1/4 194/1/4
f 194/1/4 193/1/4 195/1/4
f 196/1/4 197/1/4 198/1/4
f 198/1/4 197/1/4 199/1/4
f 202/1/5 201/1/5 200/1/5
f 203/1/5 201/1/5 202/1/5
f 204/2/5 203/2/5 202/2/5
f 205/2/5 203/2/5 204/2/5
f 208/2/5 207/2/5 206/2/5
f 209/2/5 207/2/5 208/2/5
f 210/1/5 209/1/5 208/1/5
f 211/1/5 209/1/5 210/1/5
f 212/2/5 211/2/5 210/2/5
f 213/2/5 211/2/5 212/2/5
f 214/1/5 213/1/5 212/1/5
f 215/1/5 213/1/5 214/1/5
f 216/2/5 215/2/5 214/2/5
f 217/2/5 215/2/5 216/2/5
f 218/1/5 217/1/5 216/1/5
f 219/1/5 217/1/5 218/1/5
f 222/2/5 221/2/5 220/2/5
f 223/2/5 221/2/5 222/2/5
f 224/1/5 223/1/5 222/1/5
f 225/1/5 223/1/5 224/1/5
f 226/2/5 225/2/5 224/2/5
f 227/2/5 225/2/5 226/2/5
f 228/1/5 227/1/5 226/1/5
f 229/1/5 227/1/5 228/1/5
f 230/2/5 229/2/5 228/2/5
f 231/2/5 229/2/5 230/2/5
f 232/1/5 231/1/5 230/1/5
f 233/1/5 231/1/5 232/1/5
f 234/2/5 233/2/5 232/2/5
f 235/2/5 233/2/5 234/2/5
f 236/1/5 235/1/5 234/1/5
f 237/1/5 235/1/5 236/1/5
f 240/2/5 239/2/5 238/2/5
f 241/2/5 239/2/5 240/2/5
f 242/1/5 241/1/5 240/1/5
f 243/1/5 241/1/5 242/1/5
f 244/2/5 243/2/5 242/2/5
f 245/2/5 243/2/5 244/2/5
f 246/1/5 245/1/5 244/1/5
f 247/1/5 245/1/5 246/1/5
f 248/2/5 247/2/5 246/2/5
f 249/2/5 247/2/5 248/2/5
f 250/1/5 249/1/5 248/1/5
f 251/1/5 249/1/5 250/1/5
f 254/2/5 253/2/5 252/2/5
f 255/2/5 253/2/5 254/2/5
f 256/1/5 255/1/5 254/1/5
f 257/1/5 255/1/5 256/1/5
f 258/2/5 257/2/5 256/2/5
f 259/2/5 257/2/5 258/2/5
f 260/1/5 259/1/5 258/1/5
f 261/1/5 259/1/5 260/1/5
f 264/2/5 263/2/5 262/2/5
f 265/2/5 263/2/5 264/2/5
f 266/1/5 265/1/5 264/1/5
f 267/1/5 265/1/5 266/1/5
f 270/2/5 269/2/5 268/2/5
f 271/2/5 269/2/5 270/2/5
f 272/1/6 273/1/6 274/1/6
f 274/1/6 273/1/6 275/1/6
f 274/2/6 275/2/6 276/2/6
f 276/2/6 275/2/6 277/2/6
f 278/2/6 279/2/6 280/2/6
f 280/2/6 279/2/6 281/2/6
f 280/1/6 281/1/6 282/1/6
f 282/1/6 281/1/6 283/1/6
f 282/2/6 283/2/6 284/2/6
f 284/2/6 283/2/6 285/2/6
f 284/1/6 285/1/6 286/1/6
f 286/1/6 285/1/6 287/1/6
f 286/2/6 287/2/6 288/2/6
f 288/2/6 287/2/6 289/2/6
f 288/1/6 289/1/6 290/1/6
f 290/1/6 289/1/6 291/1/6
f 292/2/6 293/2/6 294/2/6
f 294/2/6 293/2/6 295/2/6
f 294/1/6 295/1/6 296/1/6
f 296/1/6 295/1/6 297/1/6
f 296/2/6 297/2/6 298/2/6
f 298/2/6 297/2/6 299/2/6
f 298/1/6 299/1/6 300/1/6
f 300/1/6 299/1/6 301/1/6
f 300/2/6 301/2/6 302/2/6
f 302/2/6 301/2/6 303/2/6
f 302/1/6 303/1/6 304/1/6
f 304/1/6 303/1/6 305/1/6
f 304/2/6 305/2/6 306/2/6
f 306/2/6 305/2/6 307/2/6
f 306/1/6 307/1/6 308/1/6
f 308/1/6 307/1/6 309/1/6
f 310/2/6 311/2/6 312/2/6
f 312/2/6 311/2/6 313/2/6
f 312/1/6 313/1/6 314/1/6
f 314/1/6 313/1/6 315/1/6
f 314/2/6 315/2/6 316/2/6
f 316/2/6 315/2/6 317/2/6
f 316/1/6 317/1/6 318/1/6
f 318/1/6 317/1/6 319/1/6
f 318/2/6 319/2/6 320/2/6
f 320/2/6 319/2/6 321/2/6
f 320/1/6 321/1/6 322/1/6
f 322/1/6 321/1/6 323/1/6
f 324/2/6 325/2/6 326/2/6
f 326/2/6 325/2/6 327/2/6
f 326/1/6 327/1/6 328/1/6
f 328/1/6 327/1/6 329/1/6
f 328/2/6 329/2/6 330/2/6
f 330/2/6 329/2/6 331/2/6
f 330/1/6 331/1/6 332/1/6
f 332/1/6 331/1/6 333/1/6
f 334/2/6 335/2/6 336/2/6
f 336/2/6 335/2/6 337/2/6
f 336/1/6 337/1/6 338/1/6
f 338/1/6 337/1/6 339/1/6
f 340/2/6 341/2/6 342/2/6
f 342/2/6 341/2/6 343/2/6
