# MagicaVoxel @ Ephtracy

# group
o 

# material
mtllib YellowHouseParts-78.mtl
usemtl palette

# normals
vn -1 0 0
vn 1 0 0
vn 0 0 1
vn 0 0 -1
vn 0 -1 0
vn 0 1 0

# texcoords
vt 0.259766 0.5
vt 0.439453 0.5
vt 0.509766 0.5
vt 0.541016 0.5
vt 0.791016 0.5

# verts
v -0.0999999 2 -1.1
v -0.0999999 2 -1.2
v -0.0999999 2.1 -1.1
v -0.0999999 2.1 -1.2
v 7.45058e-008 2 -1
v 7.45058e-008 2 -1.1
v 7.45058e-008 2.1 -1
v 7.45058e-008 2.1 -1.1
v 0.1 1.8 -0.9
v 0.1 1.8 -1
v 0.1 1.9 -0.9
v 0.1 1.9 -1
v 0.1 2 -0.9
v 0.1 2 -1
v 0.1 2.1 -0.9
v 0.1 2.1 -1
v 0.1 2.1 -1.1
v 0.1 2.2 -1
v 0.1 2.2 -1.1
v 0.2 2.1 -1.1
v 0.2 2.1 -1.2
v 0.2 2.2 -1.1
v 0.2 2.2 -1.2
v 0.3 2.1 -1.2
v 0.3 2.1 -1.3
v 0.3 2.2 -1.2
v 0.3 2.2 -1.3
v 0.6 1.9 -0.9
v 0.6 1.9 -1
v 0.6 2 -0.9
v 0.6 2 -1
v 0.8 2 -1
v 0.8 2 -1.1
v 0.8 2.1 -1
v 0.8 2.1 -1.1
v 7.45058e-008 2 -1.1
v 7.45058e-008 2 -1.2
v 7.45058e-008 2.1 -1.1
v 7.45058e-008 2.1 -1.2
v 0.1 2 -1
v 0.1 2 -1.1
v 0.1 2.1 -1
v 0.1 2.1 -1.1
v 0.2 1.8 -0.9
v 0.2 1.8 -1
v 0.2 1.9 -0.9
v 0.2 1.9 -1
v 0.3 1.9 -0.9
v 0.3 1.9 -1
v 0.3 2 -0.9
v 0.3 2 -1
v 0.6 2.1 -1.1
v 0.6 2.1 -1.2
v 0.6 2.1 -1.3
v 0.6 2.2 -1.1
v 0.6 2.2 -1.2
v 0.6 2.2 -1.3
v 0.7 2.1 -1
v 0.7 2.1 -1.1
v 0.7 2.2 -1
v 0.7 2.2 -1.1
v 0.8 1.9 -0.9
v 0.8 1.9 -1
v 0.8 2 -0.9
v 0.8 2 -1
v 0.8 2.1 -0.9
v 0.8 2.1 -1
v 0.9 2 -1
v 0.9 2 -1.1
v 0.9 2.1 -1
v 0.9 2.1 -1.1
v 0.1 1.8 -0.9
v 0.1 1.9 -0.9
v 0.1 2 -0.9
v 0.1 2.1 -0.9
v 0.2 1.8 -0.9
v 0.2 1.9 -0.9
v 0.3 1.9 -0.9
v 0.3 2 -0.9
v 0.3 2.1 -0.9
v 0.6 1.9 -0.9
v 0.6 2 -0.9
v 0.7 1.9 -0.9
v 0.7 2 -0.9
v 0.7 2.1 -0.9
v 0.8 1.9 -0.9
v 0.8 2 -0.9
v 0.8 2.1 -0.9
v 7.45058e-008 2 -1
v 7.45058e-008 2.1 -1
v 0.1 2 -1
v 0.1 2.1 -1
v 0.1 2.2 -1
v 0.3 2.1 -1
v 0.7 2.1 -1
v 0.7 2.2 -1
v 0.8 2 -1
v 0.8 2.1 -1
v 0.9 2 -1
v 0.9 2.1 -1
v -0.0999999 2 -1.1
v -0.0999999 2.1 -1.1
v 7.45058e-008 2 -1.1
v 7.45058e-008 2.1 -1.1
v 0.1 1.8 -1
v 0.1 1.9 -1
v 0.1 2 -1
v 0.1 2.1 -1
v 0.2 1.8 -1
v 0.2 1.9 -1
v 0.3 1.9 -1
v 0.3 2 -1
v 0.3 2.1 -1
v 0.6 1.9 -1
v 0.6 2 -1
v 0.7 1.9 -1
v 0.7 2 -1
v 0.7 2.1 -1
v 0.8 1.9 -1
v 0.8 2 -1
v 0.8 2.1 -1
v 7.45058e-008 2 -1.1
v 7.45058e-008 2.1 -1.1
v 0.1 2 -1.1
v 0.1 2.1 -1.1
v 0.1 2.2 -1.1
v 0.2 2.1 -1.1
v 0.2 2.2 -1.1
v 0.6 2.1 -1.1
v 0.6 2.2 -1.1
v 0.7 2.1 -1.1
v 0.7 2.2 -1.1
v 0.8 2 -1.1
v 0.8 2.1 -1.1
v 0.9 2 -1.1
v 0.9 2.1 -1.1
v -0.0999999 2 -1.2
v -0.0999999 2.1 -1.2
v 7.45058e-008 2 -1.2
v 7.45058e-008 2.1 -1.2
v 0.2 2.1 -1.2
v 0.2 2.2 -1.2
v 0.3 2.1 -1.2
v 0.3 2.2 -1.2
v 0.3 2.1 -1.3
v 0.3 2.2 -1.3
v 0.6 2.1 -1.3
v 0.6 2.2 -1.3
v 0.1 1.8 -0.9
v 0.2 1.8 -0.9
v 0.1 1.8 -1
v 0.2 1.8 -1
v 0.2 1.9 -0.9
v 0.3 1.9 -0.9
v 0.6 1.9 -0.9
v 0.7 1.9 -0.9
v 0.8 1.9 -0.9
v 0.2 1.9 -1
v 0.3 1.9 -1
v 0.6 1.9 -1
v 0.7 1.9 -1
v 0.8 1.9 -1
v 0.3 2 -0.9
v 0.6 2 -0.9
v 7.45058e-008 2 -1
v 0.1 2 -1
v 0.3 2 -1
v 0.6 2 -1
v 0.8 2 -1
v 0.9 2 -1
v -0.0999999 2 -1.1
v 7.45058e-008 2 -1.1
v 0.1 2 -1.1
v 0.8 2 -1.1
v 0.9 2 -1.1
v -0.0999999 2 -1.2
v 7.45058e-008 2 -1.2
v 0.1 2.1 -1
v 0.3 2.1 -1
v 0.7 2.1 -1
v 0.1 2.1 -1.1
v 0.2 2.1 -1.1
v 0.6 2.1 -1.1
v 0.7 2.1 -1.1
v 0.2 2.1 -1.2
v 0.3 2.1 -1.2
v 0.6 2.1 -1.2
v 0.3 2.1 -1.3
v 0.6 2.1 -1.3
v 0.1 2.1 -0.9
v 0.3 2.1 -0.9
v 0.7 2.1 -0.9
v 0.8 2.1 -0.9
v 7.45058e-008 2.1 -1
v 0.1 2.1 -1
v 0.3 2.1 -1
v 0.7 2.1 -1
v 0.8 2.1 -1
v 0.9 2.1 -1
v -0.0999999 2.1 -1.1
v 7.45058e-008 2.1 -1.1
v 0.1 2.1 -1.1
v 0.8 2.1 -1.1
v 0.9 2.1 -1.1
v -0.0999999 2.1 -1.2
v 7.45058e-008 2.1 -1.2
v 0.1 2.2 -1
v 0.7 2.2 -1
v 0.1 2.2 -1.1
v 0.2 2.2 -1.1
v 0.6 2.2 -1.1
v 0.7 2.2 -1.1
v 0.2 2.2 -1.2
v 0.3 2.2 -1.2
v 0.6 2.2 -1.2
v 0.3 2.2 -1.3
v 0.6 2.2 -1.3

# faces
f 3/3/1 2/3/1 1/3/1
f 4/3/1 2/3/1 3/3/1
f 7/2/1 6/2/1 5/2/1
f 8/2/1 6/2/1 7/2/1
f 11/5/1 10/5/1 9/5/1
f 12/5/1 10/5/1 11/5/1
f 13/1/1 12/1/1 11/1/1
f 14/1/1 12/1/1 13/1/1
f 15/5/1 14/5/1 13/5/1
f 16/5/1 14/5/1 15/5/1
f 18/4/1 17/4/1 16/4/1
f 19/4/1 17/4/1 18/4/1
f 22/4/1 21/4/1 20/4/1
f 23/4/1 21/4/1 22/4/1
f 26/2/1 25/2/1 24/2/1
f 27/2/1 25/2/1 26/2/1
f 30/2/1 29/2/1 28/2/1
f 31/2/1 29/2/1 30/2/1
f 34/2/1 33/2/1 32/2/1
f 35/2/1 33/2/1 34/2/1
f 36/3/2 37/3/2 38/3/2
f 38/3/2 37/3/2 39/3/2
f 40/2/2 41/2/2 42/2/2
f 42/2/2 41/2/2 43/2/2
f 44/5/2 45/5/2 46/5/2
f 46/5/2 45/5/2 47/5/2
f 48/1/2 49/1/2 50/1/2
f 50/1/2 49/1/2 51/1/2
f 52/4/2 53/4/2 55/4/2
f 53/2/2 54/2/2 56/2/2
f 55/4/2 53/4/2 56/4/2
f 56/2/2 54/2/2 57/2/2
f 58/4/2 59/4/2 60/4/2
f 60/4/2 59/4/2 61/4/2
f 62/1/2 63/1/2 64/1/2
f 64/1/2 63/1/2 65/1/2
f 64/5/2 65/5/2 66/5/2
f 66/5/2 65/5/2 67/5/2
f 68/2/2 69/2/2 70/2/2
f 70/2/2 69/2/2 71/2/2
f 76/5/3 73/5/3 72/5/3
f 77/1/3 74/1/3 73/1/3
f 77/5/3 73/5/3 76/5/3
f 78/1/3 74/1/3 77/1/3
f 79/5/3 75/5/3 74/5/3
f 79/1/3 74/1/3 78/1/3
f 80/5/3 75/5/3 79/5/3
f 82/2/3 80/2/3 79/2/3
f 83/2/3 82/2/3 81/2/3
f 84/2/3 80/2/3 82/2/3
f 84/2/3 82/2/3 83/2/3
f 85/2/3 80/2/3 84/2/3
f 86/1/3 84/1/3 83/1/3
f 87/5/3 85/5/3 84/5/3
f 87/1/3 84/1/3 86/1/3
f 88/5/3 85/5/3 87/5/3
f 91/2/3 90/2/3 89/2/3
f 92/2/3 90/2/3 91/2/3
f 94/4/3 93/4/3 92/4/3
f 95/4/3 93/4/3 94/4/3
f 96/4/3 93/4/3 95/4/3
f 99/2/3 98/2/3 97/2/3
f 100/2/3 98/2/3 99/2/3
f 103/3/3 102/3/3 101/3/3
f 104/3/3 102/3/3 103/3/3
f 105/5/4 106/5/4 109/5/4
f 106/1/4 107/1/4 110/1/4
f 109/5/4 106/5/4 110/5/4
f 110/1/4 107/1/4 111/1/4
f 107/5/4 108/5/4 112/5/4
f 111/1/4 107/1/4 112/1/4
f 112/5/4 108/5/4 113/5/4
f 112/2/4 113/2/4 115/2/4
f 114/2/4 115/2/4 116/2/4
f 115/2/4 113/2/4 117/2/4
f 116/2/4 115/2/4 117/2/4
f 117/2/4 113/2/4 118/2/4
f 116/1/4 117/1/4 119/1/4
f 117/5/4 118/5/4 120/5/4
f 119/1/4 117/1/4 120/1/4
f 120/5/4 118/5/4 121/5/4
f 122/2/4 123/2/4 124/2/4
f 124/2/4 123/2/4 125/2/4
f 125/4/4 126/4/4 127/4/4
f 127/4/4 126/4/4 128/4/4
f 129/4/4 130/4/4 131/4/4
f 131/4/4 130/4/4 132/4/4
f 133/2/4 134/2/4 135/2/4
f 135/2/4 134/2/4 136/2/4
f 137/3/4 138/3/4 139/3/4
f 139/3/4 138/3/4 140/3/4
f 141/4/4 142/4/4 143/4/4
f 143/4/4 142/4/4 144/4/4
f 145/2/4 146/2/4 147/2/4
f 147/2/4 146/2/4 148/2/4
f 151/5/5 150/5/5 149/5/5
f 152/5/5 150/5/5 151/5/5
f 158/1/5 154/1/5 153/1/5
f 159/1/5 154/1/5 158/1/5
f 160/2/5 156/2/5 155/2/5
f 161/1/5 157/1/5 156/1/5
f 161/2/5 156/2/5 160/2/5
f 162/1/5 157/1/5 161/1/5
f 167/2/5 164/2/5 163/2/5
f 168/2/5 164/2/5 167/2/5
f 172/2/5 166/2/5 165/2/5
f 173/2/5 166/2/5 172/2/5
f 174/2/5 170/2/5 169/2/5
f 175/2/5 170/2/5 174/2/5
f 176/3/5 172/3/5 171/3/5
f 177/3/5 172/3/5 176/3/5
f 181/4/5 179/4/5 178/4/5
f 181/4/5 180/4/5 179/4/5
f 182/4/5 180/4/5 181/4/5
f 183/4/5 180/4/5 182/4/5
f 184/4/5 180/4/5 183/4/5
f 185/4/5 183/4/5 182/4/5
f 186/4/5 183/4/5 185/4/5
f 187/4/5 183/4/5 186/4/5
f 188/2/5 187/2/5 186/2/5
f 189/2/5 187/2/5 188/2/5
f 190/5/6 191/5/6 195/5/6
f 191/2/6 192/2/6 196/2/6
f 195/5/6 191/5/6 196/5/6
f 192/5/6 193/5/6 197/5/6
f 196/2/6 192/2/6 197/2/6
f 197/5/6 193/5/6 198/5/6
f 194/2/6 195/2/6 201/2/6
f 201/2/6 195/2/6 202/2/6
f 198/2/6 199/2/6 203/2/6
f 203/2/6 199/2/6 204/2/6
f 200/3/6 201/3/6 205/3/6
f 205/3/6 201/3/6 206/3/6
f 207/4/6 208/4/6 209/4/6
f 209/4/6 208/4/6 210/4/6
f 210/4/6 208/4/6 211/4/6
f 211/4/6 208/4/6 212/4/6
f 210/4/6 211/4/6 213/4/6
f 213/4/6 211/4/6 214/4/6
f 214/4/6 211/4/6 215/4/6
f 214/2/6 215/2/6 216/2/6
f 216/2/6 215/2/6 217/2/6
