# MagicaVoxel @ Ephtracy

# group
o 

# material
mtllib YellowHouseParts-43.mtl
usemtl palette

# normals
vn -1 0 0
vn 1 0 0
vn 0 0 1
vn 0 0 -1
vn 0 -1 0
vn 0 1 0

# texcoords
vt 0.259766 0.5
vt 0.439453 0.5
vt 0.791016 0.5

# verts
v 0.3 1.9 1.1
v 0.3 1.9 1
v 0.3 2 1.1
v 0.3 2 1
v 0.4 2 1.1
v 0.4 2 1
v 0.4 2.1 1.1
v 0.4 2.1 1
v 0.6 2.1 1.1
v 0.6 2.1 1
v 0.6 2.2 1.1
v 0.6 2.2 1
v 0.7 1.8 1.1
v 0.7 1.8 1
v 0.7 1.9 1.1
v 0.7 1.9 1
v 0.7 2.2 1.1
v 0.7 2.2 1
v 0.7 2.3 1.1
v 0.7 2.3 1
v 0.8 1.7 1.1
v 0.8 1.7 1
v 0.8 1.8 1.1
v 0.8 1.8 1
v 0.9 1.7 1.1
v 0.9 1.7 1
v 0.9 2.3 1.1
v 0.9 2.3 1
v 0.3 1.9 1.1
v 0.3 2 1.1
v 0.4 2 1.1
v 0.4 2.1 1.1
v 0.6 2.1 1.1
v 0.6 2.2 1.1
v 0.7 1.8 1.1
v 0.7 1.9 1.1
v 0.7 2.2 1.1
v 0.7 2.3 1.1
v 0.8 1.7 1.1
v 0.8 1.8 1.1
v 0.8 1.9 1.1
v 0.8 2 1.1
v 0.8 2.1 1.1
v 0.8 2.2 1.1
v 0.8 2.3 1.1
v 0.9 1.7 1.1
v 0.9 2.3 1.1
v 0.3 1.9 1
v 0.3 2 1
v 0.4 2 1
v 0.4 2.1 1
v 0.6 2.1 1
v 0.6 2.2 1
v 0.7 1.8 1
v 0.7 1.9 1
v 0.7 2.2 1
v 0.7 2.3 1
v 0.8 1.7 1
v 0.8 1.8 1
v 0.8 1.9 1
v 0.8 2 1
v 0.8 2.1 1
v 0.8 2.2 1
v 0.8 2.3 1
v 0.9 1.7 1
v 0.9 2.3 1
v 0.8 1.7 1.1
v 0.9 1.7 1.1
v 0.8 1.7 1
v 0.9 1.7 1
v 0.7 1.8 1.1
v 0.8 1.8 1.1
v 0.7 1.8 1
v 0.8 1.8 1
v 0.3 1.9 1.1
v 0.7 1.9 1.1
v 0.3 1.9 1
v 0.7 1.9 1
v 0.3 2 1.1
v 0.4 2 1.1
v 0.3 2 1
v 0.4 2 1
v 0.4 2.1 1.1
v 0.6 2.1 1.1
v 0.4 2.1 1
v 0.6 2.1 1
v 0.6 2.2 1.1
v 0.7 2.2 1.1
v 0.6 2.2 1
v 0.7 2.2 1
v 0.7 2.3 1.1
v 0.8 2.3 1.1
v 0.9 2.3 1.1
v 0.7 2.3 1
v 0.8 2.3 1
v 0.9 2.3 1

# faces
f 3/1/1 2/1/1 1/1/1
f 4/1/1 2/1/1 3/1/1
f 7/3/1 6/3/1 5/3/1
f 8/3/1 6/3/1 7/3/1
f 11/2/1 10/2/1 9/2/1
f 12/2/1 10/2/1 11/2/1
f 15/3/1 14/3/1 13/3/1
f 16/3/1 14/3/1 15/3/1
f 19/3/1 18/3/1 17/3/1
f 20/3/1 18/3/1 19/3/1
f 23/2/1 22/2/1 21/2/1
f 24/2/1 22/2/1 23/2/1
f 25/2/2 26/2/2 27/2/2
f 27/2/2 26/2/2 28/2/2
f 31/1/3 30/1/3 29/1/3
f 33/3/3 32/3/3 31/3/3
f 36/1/3 31/1/3 29/1/3
f 37/2/3 34/2/3 33/2/3
f 40/3/3 36/3/3 35/3/3
f 41/1/3 31/1/3 36/1/3
f 41/3/3 36/3/3 40/3/3
f 42/3/3 33/3/3 31/3/3
f 42/1/3 31/1/3 41/1/3
f 43/2/3 37/2/3 33/2/3
f 43/3/3 33/3/3 42/3/3
f 44/3/3 38/3/3 37/3/3
f 44/2/3 37/2/3 43/2/3
f 45/3/3 38/3/3 44/3/3
f 46/2/3 43/2/3 42/2/3
f 46/2/3 41/2/3 40/2/3
f 46/2/3 45/2/3 44/2/3
f 46/2/3 44/2/3 43/2/3
f 46/2/3 40/2/3 39/2/3
f 46/2/3 42/2/3 41/2/3
f 47/2/3 45/2/3 46/2/3
f 48/1/4 49/1/4 50/1/4
f 50/3/4 51/3/4 52/3/4
f 48/1/4 50/1/4 55/1/4
f 52/2/4 53/2/4 56/2/4
f 54/3/4 55/3/4 59/3/4
f 55/1/4 50/1/4 60/1/4
f 59/3/4 55/3/4 60/3/4
f 50/3/4 52/3/4 61/3/4
f 60/1/4 50/1/4 61/1/4
f 52/2/4 56/2/4 62/2/4
f 61/3/4 52/3/4 62/3/4
f 56/3/4 57/3/4 63/3/4
f 62/2/4 56/2/4 63/2/4
f 63/3/4 57/3/4 64/3/4
f 61/2/4 62/2/4 65/2/4
f 59/2/4 60/2/4 65/2/4
f 63/2/4 64/2/4 65/2/4
f 62/2/4 63/2/4 65/2/4
f 58/2/4 59/2/4 65/2/4
f 60/2/4 61/2/4 65/2/4
f 65/2/4 64/2/4 66/2/4
f 69/2/5 68/2/5 67/2/5
f 70/2/5 68/2/5 69/2/5
f 73/3/5 72/3/5 71/3/5
f 74/3/5 72/3/5 73/3/5
f 77/1/5 76/1/5 75/1/5
f 78/1/5 76/1/5 77/1/5
f 79/1/6 80/1/6 81/1/6
f 81/1/6 80/1/6 82/1/6
f 83/3/6 84/3/6 85/3/6
f 85/3/6 84/3/6 86/3/6
f 87/2/6 88/2/6 89/2/6
f 89/2/6 88/2/6 90/2/6
f 91/3/6 92/3/6 94/3/6
f 92/2/6 93/2/6 95/2/6
f 94/3/6 92/3/6 95/3/6
f 95/2/6 93/2/6 96/2/6
