# MagicaVoxel @ Ephtracy

# group
o 

# material
mtllib YellowHouseParts-13.mtl
usemtl palette

# normals
vn -1 0 0
vn 1 0 0
vn 0 0 1
vn 0 0 -1
vn 0 -1 0
vn 0 1 0

# texcoords
vt 0.259766 0.5
vt 0.791016 0.5

# verts
v 0.8 1.5 -0.8
v 0.8 1.5 -1
v 0.8 1.6 -0.7
v 0.8 1.6 -0.8
v 0.8 1.6 -1
v 0.8 1.7 -0.5
v 0.8 1.7 -0.7
v 0.8 1.7 -1
v 0.8 1.8 -0.5
v 0.8 1.8 -0.6
v 0.8 1.8 -1
v 0.8 1.9 -0.6
v 0.8 1.9 -0.7
v 0.8 1.9 -1
v 0.8 2 -0.7
v 0.8 2 -0.8
v 0.8 2 -1
v 0.8 2.1 -0.8
v 0.8 2.1 -1
v 0.9 1.5 -0.8
v 0.9 1.5 -1
v 0.9 1.6 -0.7
v 0.9 1.6 -0.8
v 0.9 1.6 -1
v 0.9 1.7 -0.5
v 0.9 1.7 -0.7
v 0.9 1.7 -1
v 0.9 1.8 -0.5
v 0.9 1.8 -0.6
v 0.9 1.8 -1
v 0.9 1.9 -0.6
v 0.9 1.9 -0.7
v 0.9 1.9 -1
v 0.9 2 -0.7
v 0.9 2 -0.8
v 0.9 2 -1
v 0.9 2.1 -0.8
v 0.9 2.1 -1
v 0.8 1.7 -0.5
v 0.8 1.8 -0.5
v 0.9 1.7 -0.5
v 0.9 1.8 -0.5
v 0.8 1.8 -0.6
v 0.8 1.9 -0.6
v 0.9 1.8 -0.6
v 0.9 1.9 -0.6
v 0.8 1.6 -0.7
v 0.8 1.7 -0.7
v 0.8 1.9 -0.7
v 0.8 2 -0.7
v 0.9 1.6 -0.7
v 0.9 1.7 -0.7
v 0.9 1.9 -0.7
v 0.9 2 -0.7
v 0.8 1.5 -0.8
v 0.8 1.6 -0.8
v 0.8 2 -0.8
v 0.8 2.1 -0.8
v 0.9 1.5 -0.8
v 0.9 1.6 -0.8
v 0.9 2 -0.8
v 0.9 2.1 -0.8
v 0.8 1.5 -1
v 0.8 1.6 -1
v 0.8 1.7 -1
v 0.8 1.8 -1
v 0.8 1.9 -1
v 0.8 2 -1
v 0.8 2.1 -1
v 0.9 1.5 -1
v 0.9 1.6 -1
v 0.9 1.7 -1
v 0.9 1.8 -1
v 0.9 1.9 -1
v 0.9 2 -1
v 0.9 2.1 -1
v 0.8 1.5 -0.8
v 0.9 1.5 -0.8
v 0.8 1.5 -1
v 0.9 1.5 -1
v 0.8 1.6 -0.7
v 0.9 1.6 -0.7
v 0.8 1.6 -0.8
v 0.9 1.6 -0.8
v 0.8 1.7 -0.5
v 0.9 1.7 -0.5
v 0.8 1.7 -0.7
v 0.9 1.7 -0.7
v 0.8 1.8 -0.5
v 0.9 1.8 -0.5
v 0.8 1.8 -0.6
v 0.9 1.8 -0.6
v 0.8 1.9 -0.6
v 0.9 1.9 -0.6
v 0.8 1.9 -0.7
v 0.9 1.9 -0.7
v 0.8 2 -0.7
v 0.9 2 -0.7
v 0.8 2 -0.8
v 0.9 2 -0.8
v 0.8 2.1 -0.8
v 0.9 2.1 -0.8
v 0.8 2.1 -1
v 0.9 2.1 -1

# faces
f 4/1/1 2/1/1 1/1/1
f 5/1/1 2/1/1 4/1/1
f 7/2/1 4/2/1 3/2/1
f 7/2/1 5/2/1 4/2/1
f 8/2/1 5/2/1 7/2/1
f 9/1/1 7/1/1 6/1/1
f 9/1/1 8/1/1 7/1/1
f 10/1/1 8/1/1 9/1/1
f 11/1/1 8/1/1 10/1/1
f 12/2/1 11/2/1 10/2/1
f 13/2/1 11/2/1 12/2/1
f 14/2/1 11/2/1 13/2/1
f 15/1/1 14/1/1 13/1/1
f 16/1/1 14/1/1 15/1/1
f 17/1/1 14/1/1 16/1/1
f 18/2/1 17/2/1 16/2/1
f 19/2/1 17/2/1 18/2/1
f 20/1/2 21/1/2 23/1/2
f 23/1/2 21/1/2 24/1/2
f 22/2/2 23/2/2 26/2/2
f 23/2/2 24/2/2 26/2/2
f 26/2/2 24/2/2 27/2/2
f 25/1/2 26/1/2 28/1/2
f 26/1/2 27/1/2 28/1/2
f 28/1/2 27/1/2 29/1/2
f 29/1/2 27/1/2 30/1/2
f 29/2/2 30/2/2 31/2/2
f 31/2/2 30/2/2 32/2/2
f 32/2/2 30/2/2 33/2/2
f 32/1/2 33/1/2 34/1/2
f 34/1/2 33/1/2 35/1/2
f 35/1/2 33/1/2 36/1/2
f 35/2/2 36/2/2 37/2/2
f 37/2/2 36/2/2 38/2/2
f 41/1/3 40/1/3 39/1/3
f 42/1/3 40/1/3 41/1/3
f 45/2/3 44/2/3 43/2/3
f 46/2/3 44/2/3 45/2/3
f 51/2/3 48/2/3 47/2/3
f 52/2/3 48/2/3 51/2/3
f 53/1/3 50/1/3 49/1/3
f 54/1/3 50/1/3 53/1/3
f 59/1/3 56/1/3 55/1/3
f 60/1/3 56/1/3 59/1/3
f 61/2/3 58/2/3 57/2/3
f 62/2/3 58/2/3 61/2/3
f 63/1/4 64/1/4 70/1/4
f 64/2/4 65/2/4 71/2/4
f 70/1/4 64/1/4 71/1/4
f 65/1/4 66/1/4 72/1/4
f 71/2/4 65/2/4 72/2/4
f 66/2/4 67/2/4 73/2/4
f 72/1/4 66/1/4 73/1/4
f 67/1/4 68/1/4 74/1/4
f 73/2/4 67/2/4 74/2/4
f 68/2/4 69/2/4 75/2/4
f 74/1/4 68/1/4 75/1/4
f 75/2/4 69/2/4 76/2/4
f 79/1/5 78/1/5 77/1/5
f 80/1/5 78/1/5 79/1/5
f 83/2/5 82/2/5 81/2/5
f 84/2/5 82/2/5 83/2/5
f 87/1/5 86/1/5 85/1/5
f 88/1/5 86/1/5 87/1/5
f 89/1/6 90/1/6 91/1/6
f 91/1/6 90/1/6 92/1/6
f 93/2/6 94/2/6 95/2/6
f 95/2/6 94/2/6 96/2/6
f 97/1/6 98/1/6 99/1/6
f 99/1/6 98/1/6 100/1/6
f 101/2/6 102/2/6 103/2/6
f 103/2/6 102/2/6 104/2/6
