# MagicaVoxel @ Ephtracy

# group
o 

# material
mtllib YellowHouseParts-52.mtl
usemtl palette

# normals
vn -1 0 0
vn 1 0 0
vn 0 0 1
vn 0 0 -1
vn 0 -1 0
vn 0 1 0

# texcoords
vt 0.439453 0.5
vt 0.509766 0.5
vt 0.513672 0.5
vt 0.791016 0.5

# verts
v -0.7 0.4 -1.2
v -0.7 0.4 -1.3
v -0.7 0.5 -1.2
v -0.7 0.5 -1.3
v -0.7 0.8 -1.2
v -0.7 0.8 -1.3
v -0.6 0.8 -1.2
v -0.6 0.8 -1.3
v -0.6 0.9 -1.2
v -0.6 0.9 -1.3
v -0.5 0.4 -1.2
v -0.5 0.4 -1.3
v -0.5 0.5 -1.2
v -0.5 0.5 -1.3
v -0.5 0.6 -1.2
v -0.5 0.6 -1.3
v -0.6 0.4 -1.2
v -0.6 0.4 -1.3
v -0.6 0.5 -1.2
v -0.6 0.5 -1.3
v -0.6 0.6 -1.2
v -0.6 0.6 -1.3
v -0.5 0.7 -1.2
v -0.5 0.7 -1.3
v -0.5 0.8 -1.2
v -0.5 0.8 -1.3
v -0.4 0.4 -1.2
v -0.4 0.4 -1.3
v -0.4 0.5 -1.2
v -0.4 0.5 -1.3
v -0.4 0.6 -1.2
v -0.4 0.6 -1.3
v -0.4 0.7 -1.2
v -0.4 0.7 -1.3
v -0.4 0.8 -1.2
v -0.4 0.8 -1.3
v -0.4 0.9 -1.2
v -0.4 0.9 -1.3
v -0.7 0.4 -1.2
v -0.7 0.5 -1.2
v -0.7 0.8 -1.2
v -0.6 0.4 -1.2
v -0.6 0.5 -1.2
v -0.6 0.6 -1.2
v -0.6 0.7 -1.2
v -0.6 0.8 -1.2
v -0.6 0.9 -1.2
v -0.5 0.4 -1.2
v -0.5 0.5 -1.2
v -0.5 0.6 -1.2
v -0.5 0.7 -1.2
v -0.5 0.8 -1.2
v -0.4 0.4 -1.2
v -0.4 0.5 -1.2
v -0.4 0.6 -1.2
v -0.4 0.7 -1.2
v -0.4 0.8 -1.2
v -0.4 0.9 -1.2
v -0.7 0.4 -1.3
v -0.7 0.5 -1.3
v -0.7 0.8 -1.3
v -0.6 0.4 -1.3
v -0.6 0.5 -1.3
v -0.6 0.6 -1.3
v -0.6 0.7 -1.3
v -0.6 0.8 -1.3
v -0.6 0.9 -1.3
v -0.5 0.4 -1.3
v -0.5 0.5 -1.3
v -0.5 0.6 -1.3
v -0.5 0.7 -1.3
v -0.5 0.8 -1.3
v -0.4 0.4 -1.3
v -0.4 0.5 -1.3
v -0.4 0.6 -1.3
v -0.4 0.7 -1.3
v -0.4 0.8 -1.3
v -0.4 0.9 -1.3
v -0.7 0.4 -1.2
v -0.6 0.4 -1.2
v -0.5 0.4 -1.2
v -0.4 0.4 -1.2
v -0.7 0.4 -1.3
v -0.6 0.4 -1.3
v -0.5 0.4 -1.3
v -0.4 0.4 -1.3
v -0.6 0.6 -1.2
v -0.5 0.6 -1.2
v -0.6 0.6 -1.3
v -0.5 0.6 -1.3
v -0.5 0.8 -1.2
v -0.4 0.8 -1.2
v -0.5 0.8 -1.3
v -0.4 0.8 -1.3
v -0.5 0.7 -1.2
v -0.4 0.7 -1.2
v -0.5 0.7 -1.3
v -0.4 0.7 -1.3
v -0.7 0.8 -1.2
v -0.6 0.8 -1.2
v -0.7 0.8 -1.3
v -0.6 0.8 -1.3
v -0.6 0.9 -1.2
v -0.4 0.9 -1.2
v -0.6 0.9 -1.3
v -0.4 0.9 -1.3

# faces
f 3/4/1 2/4/1 1/4/1
f 4/4/1 2/4/1 3/4/1
f 5/1/1 4/1/1 3/1/1
f 6/1/1 4/1/1 5/1/1
f 9/1/1 8/1/1 7/1/1
f 10/1/1 8/1/1 9/1/1
f 13/4/1 12/4/1 11/4/1
f 14/4/1 12/4/1 13/4/1
f 15/1/1 14/1/1 13/1/1
f 16/1/1 14/1/1 15/1/1
f 17/4/2 18/4/2 19/4/2
f 19/4/2 18/4/2 20/4/2
f 19/1/2 20/1/2 21/1/2
f 21/1/2 20/1/2 22/1/2
f 23/2/2 24/2/2 25/2/2
f 25/2/2 24/2/2 26/2/2
f 27/4/2 28/4/2 29/4/2
f 29/4/2 28/4/2 30/4/2
f 29/1/2 30/1/2 31/1/2
f 31/1/2 30/1/2 32/1/2
f 31/3/2 32/3/2 33/3/2
f 33/3/2 32/3/2 34/3/2
f 35/1/2 36/1/2 37/1/2
f 37/1/2 36/1/2 38/1/2
f 42/4/3 40/4/3 39/4/3
f 43/1/3 41/1/3 40/1/3
f 43/4/3 40/4/3 42/4/3
f 44/1/3 41/1/3 43/1/3
f 45/1/3 41/1/3 44/1/3
f 46/1/3 41/1/3 45/1/3
f 50/3/3 45/3/3 44/3/3
f 51/2/3 46/2/3 45/2/3
f 51/3/3 45/3/3 50/3/3
f 52/1/3 47/1/3 46/1/3
f 52/2/3 46/2/3 51/2/3
f 53/4/3 49/4/3 48/4/3
f 54/1/3 50/1/3 49/1/3
f 54/4/3 49/4/3 53/4/3
f 55/3/3 51/3/3 50/3/3
f 55/1/3 50/1/3 54/1/3
f 56/3/3 51/3/3 55/3/3
f 57/1/3 47/1/3 52/1/3
f 58/1/3 47/1/3 57/1/3
f 59/4/4 60/4/4 62/4/4
f 60/1/4 61/1/4 63/1/4
f 62/4/4 60/4/4 63/4/4
f 63/1/4 61/1/4 64/1/4
f 64/1/4 61/1/4 65/1/4
f 65/1/4 61/1/4 66/1/4
f 64/3/4 65/3/4 70/3/4
f 65/2/4 66/2/4 71/2/4
f 70/3/4 65/3/4 71/3/4
f 66/1/4 67/1/4 72/1/4
f 71/2/4 66/2/4 72/2/4
f 68/4/4 69/4/4 73/4/4
f 69/1/4 70/1/4 74/1/4
f 73/4/4 69/4/4 74/4/4
f 70/3/4 71/3/4 75/3/4
f 74/1/4 70/1/4 75/1/4
f 75/3/4 71/3/4 76/3/4
f 72/1/4 67/1/4 77/1/4
f 77/1/4 67/1/4 78/1/4
f 83/4/5 80/4/5 79/4/5
f 84/4/5 80/4/5 83/4/5
f 85/4/5 82/4/5 81/4/5
f 86/4/5 82/4/5 85/4/5
f 89/3/5 88/3/5 87/3/5
f 90/3/5 88/3/5 89/3/5
f 93/1/5 92/1/5 91/1/5
f 94/1/5 92/1/5 93/1/5
f 95/3/6 96/3/6 97/3/6
f 97/3/6 96/3/6 98/3/6
f 99/1/6 100/1/6 101/1/6
f 101/1/6 100/1/6 102/1/6
f 103/1/6 104/1/6 105/1/6
f 105/1/6 104/1/6 106/1/6
