# MagicaVoxel @ Ephtracy

# group
o 

# material
mtllib YellowHouseParts-4.mtl
usemtl palette

# normals
vn -1 0 0
vn 1 0 0
vn 0 0 1
vn 0 0 -1
vn 0 -1 0
vn 0 1 0

# texcoords
vt 0.259766 0.5
vt 0.791016 0.5

# verts
v 0.8 0.2 -0.5
v 0.8 0.2 -0.6
v 0.8 0.3 -0.5
v 0.8 0.3 -0.6
v 0.8 0.4 -0.5
v 0.8 0.4 -0.6
v 0.8 0.5 -0.4
v 0.8 0.5 -0.5
v 0.8 0.5 -0.6
v 0.8 0.6 -0.4
v 0.8 0.6 -0.6
v 0.8 0.6 -0.7
v 0.8 0.7 -0.4
v 0.8 0.7 -0.7
v 0.8 0.8 -0.3
v 0.8 0.8 -0.4
v 0.8 0.8 -0.7
v 0.8 0.8 -0.8
v 0.8 0.9 -0.2
v 0.8 0.9 -0.3
v 0.8 0.9 -0.8
v 0.8 0.9 -1
v 0.8 1 -0.2
v 0.8 1 -0.4
v 0.8 1 -1
v 0.8 1.1 -0.2
v 0.8 1.1 -0.4
v 0.9 0.2 -0.5
v 0.9 0.2 -0.6
v 0.9 0.3 -0.5
v 0.9 0.3 -0.6
v 0.9 0.4 -0.5
v 0.9 0.4 -0.6
v 0.9 0.5 -0.4
v 0.9 0.5 -0.5
v 0.9 0.5 -0.6
v 0.9 0.6 -0.4
v 0.9 0.6 -0.6
v 0.9 0.6 -0.7
v 0.9 0.7 -0.4
v 0.9 0.7 -0.7
v 0.9 0.8 -0.3
v 0.9 0.8 -0.4
v 0.9 0.8 -0.7
v 0.9 0.8 -0.8
v 0.9 0.9 -0.2
v 0.9 0.9 -0.3
v 0.9 0.9 -0.8
v 0.9 0.9 -1
v 0.9 1 -0.2
v 0.9 1 -0.4
v 0.9 1 -1
v 0.9 1.1 -0.2
v 0.9 1.1 -0.4
v 0.8 0.9 -0.2
v 0.8 1 -0.2
v 0.8 1.1 -0.2
v 0.9 0.9 -0.2
v 0.9 1 -0.2
v 0.9 1.1 -0.2
v 0.8 0.8 -0.3
v 0.8 0.9 -0.3
v 0.9 0.8 -0.3
v 0.9 0.9 -0.3
v 0.8 0.5 -0.4
v 0.8 0.6 -0.4
v 0.8 0.7 -0.4
v 0.8 0.8 -0.4
v 0.9 0.5 -0.4
v 0.9 0.6 -0.4
v 0.9 0.7 -0.4
v 0.9 0.8 -0.4
v 0.8 0.2 -0.5
v 0.8 0.3 -0.5
v 0.8 0.4 -0.5
v 0.8 0.5 -0.5
v 0.9 0.2 -0.5
v 0.9 0.3 -0.5
v 0.9 0.4 -0.5
v 0.9 0.5 -0.5
v 0.8 1 -0.4
v 0.8 1.1 -0.4
v 0.9 1 -0.4
v 0.9 1.1 -0.4
v 0.8 0.2 -0.6
v 0.8 0.3 -0.6
v 0.8 0.4 -0.6
v 0.8 0.5 -0.6
v 0.8 0.6 -0.6
v 0.9 0.2 -0.6
v 0.9 0.3 -0.6
v 0.9 0.4 -0.6
v 0.9 0.5 -0.6
v 0.9 0.6 -0.6
v 0.8 0.6 -0.7
v 0.8 0.7 -0.7
v 0.8 0.8 -0.7
v 0.9 0.6 -0.7
v 0.9 0.7 -0.7
v 0.9 0.8 -0.7
v 0.8 0.8 -0.8
v 0.8 0.9 -0.8
v 0.9 0.8 -0.8
v 0.9 0.9 -0.8
v 0.8 0.9 -1
v 0.8 1 -1
v 0.9 0.9 -1
v 0.9 1 -1
v 0.8 0.2 -0.5
v 0.9 0.2 -0.5
v 0.8 0.2 -0.6
v 0.9 0.2 -0.6
v 0.8 0.5 -0.4
v 0.9 0.5 -0.4
v 0.8 0.5 -0.5
v 0.9 0.5 -0.5
v 0.8 0.6 -0.6
v 0.9 0.6 -0.6
v 0.8 0.6 -0.7
v 0.9 0.6 -0.7
v 0.8 0.8 -0.3
v 0.9 0.8 -0.3
v 0.8 0.8 -0.4
v 0.9 0.8 -0.4
v 0.8 0.8 -0.7
v 0.9 0.8 -0.7
v 0.8 0.8 -0.8
v 0.9 0.8 -0.8
v 0.8 0.9 -0.2
v 0.9 0.9 -0.2
v 0.8 0.9 -0.3
v 0.9 0.9 -0.3
v 0.8 0.9 -0.8
v 0.9 0.9 -0.8
v 0.8 0.9 -1
v 0.9 0.9 -1
v 0.8 1 -0.4
v 0.9 1 -0.4
v 0.8 1 -1
v 0.9 1 -1
v 0.8 1.1 -0.2
v 0.9 1.1 -0.2
v 0.8 1.1 -0.4
v 0.9 1.1 -0.4

# faces
f 3/2/1 2/2/1 1/2/1
f 4/2/1 2/2/1 3/2/1
f 5/1/1 4/1/1 3/1/1
f 6/1/1 4/1/1 5/1/1
f 8/2/1 6/2/1 5/2/1
f 9/2/1 6/2/1 8/2/1
f 10/1/1 8/1/1 7/1/1
f 10/1/1 9/1/1 8/1/1
f 11/1/1 9/1/1 10/1/1
f 13/2/1 11/2/1 10/2/1
f 13/2/1 12/2/1 11/2/1
f 14/2/1 12/2/1 13/2/1
f 16/1/1 14/1/1 13/1/1
f 17/1/1 14/1/1 16/1/1
f 20/2/1 17/2/1 16/2/1
f 20/2/1 18/2/1 17/2/1
f 20/2/1 16/2/1 15/2/1
f 21/2/1 18/2/1 20/2/1
f 23/1/1 20/1/1 19/1/1
f 23/1/1 22/1/1 21/1/1
f 23/1/1 21/1/1 20/1/1
f 24/1/1 22/1/1 23/1/1
f 25/1/1 22/1/1 24/1/1
f 26/2/1 24/2/1 23/2/1
f 27/2/1 24/2/1 26/2/1
f 28/2/2 29/2/2 30/2/2
f 30/2/2 29/2/2 31/2/2
f 30/1/2 31/1/2 32/1/2
f 32/1/2 31/1/2 33/1/2
f 32/2/2 33/2/2 35/2/2
f 35/2/2 33/2/2 36/2/2
f 34/1/2 35/1/2 37/1/2
f 35/1/2 36/1/2 37/1/2
f 37/1/2 36/1/2 38/1/2
f 37/2/2 38/2/2 40/2/2
f 38/2/2 39/2/2 40/2/2
f 40/2/2 39/2/2 41/2/2
f 40/1/2 41/1/2 43/1/2
f 43/1/2 41/1/2 44/1/2
f 43/2/2 44/2/2 47/2/2
f 44/2/2 45/2/2 47/2/2
f 42/2/2 43/2/2 47/2/2
f 47/2/2 45/2/2 48/2/2
f 46/1/2 47/1/2 50/1/2
f 48/1/2 49/1/2 50/1/2
f 47/1/2 48/1/2 50/1/2
f 50/1/2 49/1/2 51/1/2
f 51/1/2 49/1/2 52/1/2
f 50/2/2 51/2/2 53/2/2
f 53/2/2 51/2/2 54/2/2
f 58/1/3 56/1/3 55/1/3
f 59/2/3 57/2/3 56/2/3
f 59/1/3 56/1/3 58/1/3
f 60/2/3 57/2/3 59/2/3
f 63/2/3 62/2/3 61/2/3
f 64/2/3 62/2/3 63/2/3
f 69/1/3 66/1/3 65/1/3
f 70/2/3 67/2/3 66/2/3
f 70/1/3 66/1/3 69/1/3
f 71/1/3 68/1/3 67/1/3
f 71/2/3 67/2/3 70/2/3
f 72/1/3 68/1/3 71/1/3
f 77/2/3 74/2/3 73/2/3
f 78/1/3 75/1/3 74/1/3
f 78/2/3 74/2/3 77/2/3
f 79/2/3 76/2/3 75/2/3
f 79/1/3 75/1/3 78/1/3
f 80/2/3 76/2/3 79/2/3
f 81/2/4 82/2/4 83/2/4
f 83/2/4 82/2/4 84/2/4
f 85/2/4 86/2/4 90/2/4
f 86/1/4 87/1/4 91/1/4
f 90/2/4 86/2/4 91/2/4
f 87/2/4 88/2/4 92/2/4
f 91/1/4 87/1/4 92/1/4
f 88/1/4 89/1/4 93/1/4
f 92/2/4 88/2/4 93/2/4
f 93/1/4 89/1/4 94/1/4
f 95/2/4 96/2/4 98/2/4
f 96/1/4 97/1/4 99/1/4
f 98/2/4 96/2/4 99/2/4
f 99/1/4 97/1/4 100/1/4
f 101/2/4 102/2/4 103/2/4
f 103/2/4 102/2/4 104/2/4
f 105/1/4 106/1/4 107/1/4
f 107/1/4 106/1/4 108/1/4
f 111/2/5 110/2/5 109/2/5
f 112/2/5 110/2/5 111/2/5
f 115/1/5 114/1/5 113/1/5
f 116/1/5 114/1/5 115/1/5
f 119/2/5 118/2/5 117/2/5
f 120/2/5 118/2/5 119/2/5
f 123/2/5 122/2/5 121/2/5
f 124/2/5 122/2/5 123/2/5
f 127/2/5 126/2/5 125/2/5
f 128/2/5 126/2/5 127/2/5
f 131/1/5 130/1/5 129/1/5
f 132/1/5 130/1/5 131/1/5
f 135/1/5 134/1/5 133/1/5
f 136/1/5 134/1/5 135/1/5
f 137/1/6 138/1/6 139/1/6
f 139/1/6 138/1/6 140/1/6
f 141/2/6 142/2/6 143/2/6
f 143/2/6 142/2/6 144/2/6
