# MagicaVoxel @ Ephtracy

# group
o 

# material
mtllib YellowHouseParts-56.mtl
usemtl palette

# normals
vn -1 0 0
vn 1 0 0
vn 0 0 1
vn 0 0 -1
vn 0 -1 0
vn 0 1 0

# texcoords
vt 0.259766 0.5
vt 0.439453 0.5
vt 0.791016 0.5

# verts
v -0.8 0 -1
v -0.8 0 -1.1
v -0.8 0.1 -1
v -0.8 0.1 -1.1
v -0.8 0.2 -1
v -0.8 0.2 -1.1
v -0.7 0 -1.1
v -0.7 0 -1.2
v -0.7 0.1 -1.1
v -0.7 0.2 -1.1
v -0.7 0.2 -1.2
v -0.6 0 -1
v -0.6 0 -1.1
v -0.6 0.1 -1
v -0.6 0.1 -1.1
v -0.6 0.2 -1
v -0.6 0.2 -1.1
v -0.2 0 -1.1
v -0.2 0 -1.2
v -0.2 0.1 -1.1
v -0.2 0.2 -1.1
v -0.2 0.2 -1.2
v -0.1 0 -1
v -0.1 0 -1.1
v -0.1 0.1 -1
v -0.1 0.1 -1.1
v -0.1 0.2 -1
v -0.1 0.2 -1.1
v -0.7 0 -1
v -0.7 0 -1.1
v -0.7 0.1 -1
v -0.7 0.1 -1.1
v -0.7 0.2 -1
v -0.7 0.2 -1.1
v -0.6 0 -1.1
v -0.6 0 -1.2
v -0.6 0.1 -1.1
v -0.6 0.2 -1.1
v -0.6 0.2 -1.2
v -0.2 0 -1
v -0.2 0 -1.1
v -0.2 0.1 -1
v -0.2 0.1 -1.1
v -0.2 0.2 -1
v -0.2 0.2 -1.1
v -0.1 0 -1.1
v -0.1 0 -1.2
v -0.1 0.1 -1.1
v -0.1 0.2 -1.1
v -0.1 0.2 -1.2
v 0.1 0 -1
v 0.1 0 -1.1
v 0.1 0.1 -1
v 0.1 0.1 -1.1
v 0.1 0.2 -1
v 0.1 0.2 -1.1
v -0.8 0 -1
v -0.8 0.1 -1
v -0.8 0.2 -1
v -0.7 0 -1
v -0.7 0.1 -1
v -0.7 0.2 -1
v -0.6 0 -1
v -0.6 0.1 -1
v -0.6 0.2 -1
v -0.2 0 -1
v -0.2 0.1 -1
v -0.2 0.2 -1
v -0.1 0 -1
v -0.1 0.1 -1
v -0.1 0.2 -1
v 0.1 0 -1
v 0.1 0.1 -1
v 0.1 0.2 -1
v -0.7 0 -1.1
v -0.7 0.1 -1.1
v -0.7 0.2 -1.1
v -0.6 0 -1.1
v -0.6 0.1 -1.1
v -0.6 0.2 -1.1
v -0.2 0 -1.1
v -0.2 0.1 -1.1
v -0.2 0.2 -1.1
v -0.1 0 -1.1
v -0.1 0.1 -1.1
v -0.1 0.2 -1.1
v -0.8 0 -1.1
v -0.8 0.1 -1.1
v -0.8 0.2 -1.1
v -0.7 0 -1.1
v -0.7 0.1 -1.1
v -0.7 0.2 -1.1
v -0.6 0 -1.1
v -0.6 0.1 -1.1
v -0.6 0.2 -1.1
v -0.2 0 -1.1
v -0.2 0.1 -1.1
v -0.2 0.2 -1.1
v -0.1 0 -1.1
v -0.1 0.1 -1.1
v -0.1 0.2 -1.1
v 0.1 0 -1.1
v 0.1 0.1 -1.1
v 0.1 0.2 -1.1
v -0.7 0 -1.2
v -0.7 0.2 -1.2
v -0.6 0 -1.2
v -0.6 0.2 -1.2
v -0.2 0 -1.2
v -0.2 0.2 -1.2
v -0.1 0 -1.2
v -0.1 0.2 -1.2
v -0.8 0 -1
v -0.7 0 -1
v -0.6 0 -1
v -0.2 0 -1
v -0.1 0 -1
v 0.1 0 -1
v -0.8 0 -1.1
v -0.7 0 -1.1
v -0.6 0 -1.1
v -0.2 0 -1.1
v -0.1 0 -1.1
v 0.1 0 -1.1
v -0.7 0 -1.2
v -0.6 0 -1.2
v -0.2 0 -1.2
v -0.1 0 -1.2
v -0.8 0.2 -1
v -0.7 0.2 -1
v -0.6 0.2 -1
v -0.2 0.2 -1
v -0.1 0.2 -1
v 0.1 0.2 -1
v -0.8 0.2 -1.1
v -0.7 0.2 -1.1
v -0.6 0.2 -1.1
v -0.2 0.2 -1.1
v -0.1 0.2 -1.1
v 0.1 0.2 -1.1
v -0.7 0.2 -1.2
v -0.6 0.2 -1.2
v -0.2 0.2 -1.2
v -0.1 0.2 -1.2

# faces
f 3/3/1 2/3/1 1/3/1
f 4/3/1 2/3/1 3/3/1
f 5/1/1 4/1/1 3/1/1
f 6/1/1 4/1/1 5/1/1
f 9/2/1 8/2/1 7/2/1
f 10/2/1 8/2/1 9/2/1
f 11/2/1 8/2/1 10/2/1
f 14/3/1 13/3/1 12/3/1
f 15/3/1 13/3/1 14/3/1
f 16/1/1 15/1/1 14/1/1
f 17/1/1 15/1/1 16/1/1
f 20/2/1 19/2/1 18/2/1
f 21/2/1 19/2/1 20/2/1
f 22/2/1 19/2/1 21/2/1
f 25/3/1 24/3/1 23/3/1
f 26/3/1 24/3/1 25/3/1
f 27/1/1 26/1/1 25/1/1
f 28/1/1 26/1/1 27/1/1
f 29/3/2 30/3/2 31/3/2
f 31/3/2 30/3/2 32/3/2
f 31/1/2 32/1/2 33/1/2
f 33/1/2 32/1/2 34/1/2
f 35/2/2 36/2/2 37/2/2
f 37/2/2 36/2/2 38/2/2
f 38/2/2 36/2/2 39/2/2
f 40/3/2 41/3/2 42/3/2
f 42/3/2 41/3/2 43/3/2
f 42/1/2 43/1/2 44/1/2
f 44/1/2 43/1/2 45/1/2
f 46/2/2 47/2/2 48/2/2
f 48/2/2 47/2/2 49/2/2
f 49/2/2 47/2/2 50/2/2
f 51/3/2 52/3/2 53/3/2
f 53/3/2 52/3/2 54/3/2
f 53/1/2 54/1/2 55/1/2
f 55/1/2 54/1/2 56/1/2
f 60/3/3 58/3/3 57/3/3
f 61/1/3 59/1/3 58/1/3
f 61/3/3 58/3/3 60/3/3
f 62/1/3 59/1/3 61/1/3
f 66/3/3 64/3/3 63/3/3
f 67/1/3 65/1/3 64/1/3
f 67/3/3 64/3/3 66/3/3
f 68/1/3 65/1/3 67/1/3
f 72/3/3 70/3/3 69/3/3
f 73/1/3 71/1/3 70/1/3
f 73/3/3 70/3/3 72/3/3
f 74/1/3 71/1/3 73/1/3
f 78/2/3 76/2/3 75/2/3
f 78/2/3 77/2/3 76/2/3
f 79/2/3 77/2/3 78/2/3
f 80/2/3 77/2/3 79/2/3
f 84/2/3 82/2/3 81/2/3
f 84/2/3 83/2/3 82/2/3
f 85/2/3 83/2/3 84/2/3
f 86/2/3 83/2/3 85/2/3
f 87/3/4 88/3/4 90/3/4
f 88/1/4 89/1/4 91/1/4
f 90/3/4 88/3/4 91/3/4
f 91/1/4 89/1/4 92/1/4
f 93/3/4 94/3/4 96/3/4
f 94/1/4 95/1/4 97/1/4
f 96/3/4 94/3/4 97/3/4
f 97/1/4 95/1/4 98/1/4
f 99/3/4 100/3/4 102/3/4
f 100/1/4 101/1/4 103/1/4
f 102/3/4 100/3/4 103/3/4
f 103/1/4 101/1/4 104/1/4
f 105/2/4 106/2/4 107/2/4
f 107/2/4 106/2/4 108/2/4
f 109/2/4 110/2/4 111/2/4
f 111/2/4 110/2/4 112/2/4
f 119/3/5 114/3/5 113/3/5
f 120/3/5 114/3/5 119/3/5
f 121/3/5 116/3/5 115/3/5
f 122/3/5 116/3/5 121/3/5
f 123/3/5 118/3/5 117/3/5
f 124/3/5 118/3/5 123/3/5
f 125/2/5 121/2/5 120/2/5
f 126/2/5 121/2/5 125/2/5
f 127/2/5 123/2/5 122/2/5
f 128/2/5 123/2/5 127/2/5
f 129/1/6 130/1/6 135/1/6
f 135/1/6 130/1/6 136/1/6
f 131/1/6 132/1/6 137/1/6
f 137/1/6 132/1/6 138/1/6
f 133/1/6 134/1/6 139/1/6
f 139/1/6 134/1/6 140/1/6
f 136/2/6 137/2/6 141/2/6
f 141/2/6 137/2/6 142/2/6
f 138/2/6 139/2/6 143/2/6
f 143/2/6 139/2/6 144/2/6
