# MagicaVoxel @ Ephtracy

# group
o 

# material
mtllib YellowHouseParts-76.mtl
usemtl palette

# normals
vn -1 0 0
vn 1 0 0
vn 0 0 1
vn 0 0 -1
vn 0 -1 0
vn 0 1 0

# texcoords
vt 0.509766 0.5
vt 0.513672 0.5
vt 0.541016 0.5

# verts
v 0.4 1.6 -0.9
v 0.4 1.6 -1
v 0.4 1.7 -0.9
v 0.4 1.7 -1
v 0.4 1.9 -0.9
v 0.4 1.9 -1
v 0.4 2 -0.9
v 0.4 2 -1
v 0.6 1.6 -0.9
v 0.6 1.6 -1
v 0.6 1.7 -0.9
v 0.6 1.7 -1
v 0.6 1.9 -0.9
v 0.6 1.9 -1
v 0.6 2 -0.9
v 0.6 2 -1
v 0.4 1.6 -0.9
v 0.4 1.7 -0.9
v 0.4 1.9 -0.9
v 0.4 2 -0.9
v 0.5 1.6 -0.9
v 0.5 1.7 -0.9
v 0.5 1.9 -0.9
v 0.6 1.6 -0.9
v 0.6 1.7 -0.9
v 0.6 1.9 -0.9
v 0.6 2 -0.9
v 0.4 1.6 -1
v 0.4 1.7 -1
v 0.4 1.9 -1
v 0.4 2 -1
v 0.5 1.6 -1
v 0.5 1.7 -1
v 0.5 1.9 -1
v 0.6 1.6 -1
v 0.6 1.7 -1
v 0.6 1.9 -1
v 0.6 2 -1
v 0.4 1.6 -0.9
v 0.5 1.6 -0.9
v 0.6 1.6 -0.9
v 0.4 1.6 -1
v 0.5 1.6 -1
v 0.6 1.6 -1
v 0.4 2 -0.9
v 0.6 2 -0.9
v 0.4 2 -1
v 0.6 2 -1

# faces
f 3/2/1 2/2/1 1/2/1
f 4/2/1 2/2/1 3/2/1
f 5/1/1 4/1/1 3/1/1
f 6/1/1 4/1/1 5/1/1
f 7/3/1 6/3/1 5/3/1
f 8/3/1 6/3/1 7/3/1
f 9/1/2 10/1/2 11/1/2
f 11/1/2 10/1/2 12/1/2
f 11/2/2 12/2/2 13/2/2
f 13/2/2 12/2/2 14/2/2
f 13/3/2 14/3/2 15/3/2
f 15/3/2 14/3/2 16/3/2
f 21/2/3 18/2/3 17/2/3
f 22/1/3 19/1/3 18/1/3
f 22/2/3 18/2/3 21/2/3
f 23/3/3 20/3/3 19/3/3
f 23/1/3 19/1/3 22/1/3
f 24/1/3 22/1/3 21/1/3
f 25/2/3 23/2/3 22/2/3
f 25/1/3 22/1/3 24/1/3
f 26/3/3 20/3/3 23/3/3
f 26/2/3 23/2/3 25/2/3
f 27/3/3 20/3/3 26/3/3
f 28/2/4 29/2/4 32/2/4
f 29/1/4 30/1/4 33/1/4
f 32/2/4 29/2/4 33/2/4
f 30/3/4 31/3/4 34/3/4
f 33/1/4 30/1/4 34/1/4
f 32/1/4 33/1/4 35/1/4
f 33/2/4 34/2/4 36/2/4
f 35/1/4 33/1/4 36/1/4
f 34/3/4 31/3/4 37/3/4
f 36/2/4 34/2/4 37/2/4
f 37/3/4 31/3/4 38/3/4
f 42/2/5 40/2/5 39/2/5
f 43/1/5 41/1/5 40/1/5
f 43/2/5 40/2/5 42/2/5
f 44/1/5 41/1/5 43/1/5
f 45/3/6 46/3/6 47/3/6
f 47/3/6 46/3/6 48/3/6
