# MagicaVoxel @ Ephtracy

# group
o 

# material
mtllib YellowHouseParts-86.mtl
usemtl palette

# normals
vn -1 0 0
vn 1 0 0
vn 0 0 1
vn 0 0 -1
vn 0 -1 0
vn 0 1 0

# texcoords
vt 0.189453 0.5
vt 0.193359 0.5

# verts
v -0.3 2.9 1
v -0.3 2.9 0.9
v -0.3 2.9 0.8
v -0.3 2.9 0.7
v -0.3 2.9 0.6
v -0.3 3 1
v -0.3 3 0.9
v -0.3 3 0.8
v -0.3 3 0.7
v -0.3 3 0.6
v -0.2 3 1
v -0.2 3 0.9
v -0.2 3 0.8
v -0.2 3 0.7
v -0.2 3.1 1
v -0.2 3.1 0.9
v -0.2 3.1 0.8
v -0.2 3.1 0.7
v -0.1 3.1 1
v -0.1 3.1 0.9
v -0.1 3.1 0.8
v -0.1 3.2 1
v -0.1 3.2 0.9
v -0.1 3.2 0.8
v -0.2 2.9 1
v -0.2 2.9 0.9
v -0.2 2.9 0.8
v -0.2 2.9 0.7
v -0.2 2.9 0.6
v -0.2 3 1
v -0.2 3 0.9
v -0.2 3 0.8
v -0.2 3 0.7
v -0.2 3 0.6
v -0.1 3 1
v -0.1 3 0.9
v -0.1 3 0.8
v -0.1 3 0.7
v -0.1 3.1 1
v -0.1 3.1 0.9
v -0.1 3.1 0.8
v -0.1 3.1 0.7
v 2.98023e-008 3.1 1
v 2.98023e-008 3.1 0.9
v 2.98023e-008 3.1 0.8
v 2.98023e-008 3.2 1
v 2.98023e-008 3.2 0.9
v 2.98023e-008 3.2 0.8
v -0.3 2.9 1
v -0.3 3 1
v -0.2 2.9 1
v -0.2 3 1
v -0.2 3.1 1
v -0.1 3 1
v -0.1 3.1 1
v -0.1 3.2 1
v 2.98023e-008 3.1 1
v 2.98023e-008 3.2 1
v -0.1 3.1 0.8
v -0.1 3.2 0.8
v 2.98023e-008 3.1 0.8
v 2.98023e-008 3.2 0.8
v -0.2 3 0.7
v -0.2 3.1 0.7
v -0.1 3 0.7
v -0.1 3.1 0.7
v -0.3 2.9 0.6
v -0.3 3 0.6
v -0.2 2.9 0.6
v -0.2 3 0.6
v -0.3 2.9 1
v -0.2 2.9 1
v -0.3 2.9 0.9
v -0.2 2.9 0.9
v -0.3 2.9 0.8
v -0.2 2.9 0.8
v -0.3 2.9 0.7
v -0.2 2.9 0.7
v -0.3 2.9 0.6
v -0.2 2.9 0.6
v -0.2 3 1
v -0.1 3 1
v -0.2 3 0.9
v -0.1 3 0.9
v -0.2 3 0.8
v -0.1 3 0.8
v -0.2 3 0.7
v -0.1 3 0.7
v -0.1 3.1 1
v 2.98023e-008 3.1 1
v -0.1 3.1 0.9
v 2.98023e-008 3.1 0.9
v -0.1 3.1 0.8
v 2.98023e-008 3.1 0.8
v -0.3 3 1
v -0.2 3 1
v -0.3 3 0.9
v -0.2 3 0.9
v -0.3 3 0.8
v -0.2 3 0.8
v -0.3 3 0.7
v -0.2 3 0.7
v -0.3 3 0.6
v -0.2 3 0.6
v -0.2 3.1 1
v -0.1 3.1 1
v -0.2 3.1 0.9
v -0.1 3.1 0.9
v -0.2 3.1 0.8
v -0.1 3.1 0.8
v -0.2 3.1 0.7
v -0.1 3.1 0.7
v -0.1 3.2 1
v 2.98023e-008 3.2 1
v -0.1 3.2 0.9
v 2.98023e-008 3.2 0.9
v -0.1 3.2 0.8
v 2.98023e-008 3.2 0.8

# faces
f 6/2/1 2/2/1 1/2/1
f 7/1/1 3/1/1 2/1/1
f 7/2/1 2/2/1 6/2/1
f 8/2/1 4/2/1 3/2/1
f 8/1/1 3/1/1 7/1/1
f 9/1/1 5/1/1 4/1/1
f 9/2/1 4/2/1 8/2/1
f 10/1/1 5/1/1 9/1/1
f 15/1/1 12/1/1 11/1/1
f 16/2/1 13/2/1 12/2/1
f 16/1/1 12/1/1 15/1/1
f 17/1/1 14/1/1 13/1/1
f 17/2/1 13/2/1 16/2/1
f 18/1/1 14/1/1 17/1/1
f 22/2/1 20/2/1 19/2/1
f 23/1/1 21/1/1 20/1/1
f 23/2/1 20/2/1 22/2/1
f 24/1/1 21/1/1 23/1/1
f 25/2/2 26/2/2 30/2/2
f 26/1/2 27/1/2 31/1/2
f 30/2/2 26/2/2 31/2/2
f 27/2/2 28/2/2 32/2/2
f 31/1/2 27/1/2 32/1/2
f 28/1/2 29/1/2 33/1/2
f 32/2/2 28/2/2 33/2/2
f 33/1/2 29/1/2 34/1/2
f 35/1/2 36/1/2 39/1/2
f 36/2/2 37/2/2 40/2/2
f 39/1/2 36/1/2 40/1/2
f 37/1/2 38/1/2 41/1/2
f 40/2/2 37/2/2 41/2/2
f 41/1/2 38/1/2 42/1/2
f 43/2/2 44/2/2 46/2/2
f 44/1/2 45/1/2 47/1/2
f 46/2/2 44/2/2 47/2/2
f 47/1/2 45/1/2 48/1/2
f 51/2/3 50/2/3 49/2/3
f 52/2/3 50/2/3 51/2/3
f 54/1/3 53/1/3 52/1/3
f 55/1/3 53/1/3 54/1/3
f 57/2/3 56/2/3 55/2/3
f 58/2/3 56/2/3 57/2/3
f 59/1/4 60/1/4 61/1/4
f 61/1/4 60/1/4 62/1/4
f 63/1/4 64/1/4 65/1/4
f 65/1/4 64/1/4 66/1/4
f 67/1/4 68/1/4 69/1/4
f 69/1/4 68/1/4 70/1/4
f 73/2/5 72/2/5 71/2/5
f 74/2/5 72/2/5 73/2/5
f 75/1/5 74/1/5 73/1/5
f 76/1/5 74/1/5 75/1/5
f 77/2/5 76/2/5 75/2/5
f 78/2/5 76/2/5 77/2/5
f 79/1/5 78/1/5 77/1/5
f 80/1/5 78/1/5 79/1/5
f 83/1/5 82/1/5 81/1/5
f 84/1/5 82/1/5 83/1/5
f 85/2/5 84/2/5 83/2/5
f 86/2/5 84/2/5 85/2/5
f 87/1/5 86/1/5 85/1/5
f 88/1/5 86/1/5 87/1/5
f 91/2/5 90/2/5 89/2/5
f 92/2/5 90/2/5 91/2/5
f 93/1/5 92/1/5 91/1/5
f 94/1/5 92/1/5 93/1/5
f 95/2/6 96/2/6 97/2/6
f 97/2/6 96/2/6 98/2/6
f 97/1/6 98/1/6 99/1/6
f 99/1/6 98/1/6 100/1/6
f 99/2/6 100/2/6 101/2/6
f 101/2/6 100/2/6 102/2/6
f 101/1/6 102/1/6 103/1/6
f 103/1/6 102/1/6 104/1/6
f 105/1/6 106/1/6 107/1/6
f 107/1/6 106/1/6 108/1/6
f 107/2/6 108/2/6 109/2/6
f 109/2/6 108/2/6 110/2/6
f 109/1/6 110/1/6 111/1/6
f 111/1/6 110/1/6 112/1/6
f 113/2/6 114/2/6 115/2/6
f 115/2/6 114/2/6 116/2/6
f 115/1/6 116/1/6 117/1/6
f 117/1/6 116/1/6 118/1/6
