# MagicaVoxel @ Ephtracy

# group
o 

# material
mtllib YellowHouseParts-115.mtl
usemtl palette

# normals
vn -1 0 0
vn 1 0 0
vn 0 0 1
vn 0 0 -1
vn 0 -1 0
vn 0 1 0

# texcoords
vt 0.189453 0.5
vt 0.541016 0.5

# verts
v -0.4 2.9 0.6
v -0.4 2.9 0.4
v -0.4 3.4 0.6
v -0.4 3.4 0.4
v -0.3 3.4 0.6
v -0.3 3.4 0.4
v -0.3 3.5 0.6
v -0.3 3.5 0.4
v -0.3 2.9 0.6
v -0.3 2.9 0.4
v -0.3 3 0.6
v -0.3 3 0.4
v -0.2 3 0.6
v -0.2 3 0.4
v -0.2 3.4 0.6
v -0.2 3.4 0.4
v -0.2 3.5 0.6
v -0.2 3.5 0.4
v -0.4 2.9 0.6
v -0.4 3.4 0.6
v -0.3 2.9 0.6
v -0.3 3 0.6
v -0.3 3.4 0.6
v -0.3 3.5 0.6
v -0.2 3 0.6
v -0.2 3.4 0.6
v -0.2 3.5 0.6
v -0.4 2.9 0.4
v -0.4 3.4 0.4
v -0.3 2.9 0.4
v -0.3 3 0.4
v -0.3 3.4 0.4
v -0.3 3.5 0.4
v -0.2 3 0.4
v -0.2 3.4 0.4
v -0.2 3.5 0.4
v -0.4 2.9 0.6
v -0.3 2.9 0.6
v -0.4 2.9 0.4
v -0.3 2.9 0.4
v -0.3 3 0.6
v -0.2 3 0.6
v -0.3 3 0.4
v -0.2 3 0.4
v -0.4 3.4 0.6
v -0.3 3.4 0.6
v -0.4 3.4 0.4
v -0.3 3.4 0.4
v -0.3 3.5 0.6
v -0.2 3.5 0.6
v -0.3 3.5 0.4
v -0.2 3.5 0.4

# faces
f 3/2/1 2/2/1 1/2/1
f 4/2/1 2/2/1 3/2/1
f 7/1/1 6/1/1 5/1/1
f 8/1/1 6/1/1 7/1/1
f 9/2/2 10/2/2 11/2/2
f 11/2/2 10/2/2 12/2/2
f 13/2/2 14/2/2 15/2/2
f 15/2/2 14/2/2 16/2/2
f 15/1/2 16/1/2 17/1/2
f 17/1/2 16/1/2 18/1/2
f 21/2/3 20/2/3 19/2/3
f 22/2/3 20/2/3 21/2/3
f 23/2/3 20/2/3 22/2/3
f 25/2/3 23/2/3 22/2/3
f 26/1/3 24/1/3 23/1/3
f 26/2/3 23/2/3 25/2/3
f 27/1/3 24/1/3 26/1/3
f 28/2/4 29/2/4 30/2/4
f 30/2/4 29/2/4 31/2/4
f 31/2/4 29/2/4 32/2/4
f 31/2/4 32/2/4 34/2/4
f 32/1/4 33/1/4 35/1/4
f 34/2/4 32/2/4 35/2/4
f 35/1/4 33/1/4 36/1/4
f 39/2/5 38/2/5 37/2/5
f 40/2/5 38/2/5 39/2/5
f 43/2/5 42/2/5 41/2/5
f 44/2/5 42/2/5 43/2/5
f 45/2/6 46/2/6 47/2/6
f 47/2/6 46/2/6 48/2/6
f 49/1/6 50/1/6 51/1/6
f 51/1/6 50/1/6 52/1/6
