# MagicaVoxel @ Ephtracy

# group
o 

# material
mtllib YellowHouseParts-9.mtl
usemtl palette

# normals
vn -1 0 0
vn 1 0 0
vn 0 0 1
vn 0 0 -1
vn 0 -1 0
vn 0 1 0

# texcoords
vt 0.259766 0.5
vt 0.791016 0.5

# verts
v 0.8 0.6 0.8
v 0.8 0.6 0.3
v 0.8 0.7 0.8
v 0.8 0.7 0.7
v 0.8 0.7 0.3
v 0.8 0.7 0.2
v 0.8 0.8 0.7
v 0.8 0.8 0.6
v 0.8 0.8 0.2
v 0.8 0.9 0.6
v 0.8 0.9 0.4
v 0.8 0.9 0.2
v 0.8 1 0.4
v 0.8 1 0.2
v 0.8 1.1 0.6
v 0.8 1.1 0.4
v 0.8 1.1 0.2
v 0.8 1.2 0.7
v 0.8 1.2 0.6
v 0.8 1.2 0.4
v 0.8 1.2 0.2
v 0.8 1.3 0.7
v 0.8 1.3 0.4
v 0.9 0.6 0.8
v 0.9 0.6 0.3
v 0.9 0.7 0.8
v 0.9 0.7 0.7
v 0.9 0.7 0.3
v 0.9 0.7 0.2
v 0.9 0.8 0.7
v 0.9 0.8 0.6
v 0.9 0.8 0.2
v 0.9 0.9 0.6
v 0.9 0.9 0.4
v 0.9 0.9 0.2
v 0.9 1 0.4
v 0.9 1 0.2
v 0.9 1.1 0.6
v 0.9 1.1 0.4
v 0.9 1.1 0.2
v 0.9 1.2 0.7
v 0.9 1.2 0.6
v 0.9 1.2 0.4
v 0.9 1.2 0.2
v 0.9 1.3 0.7
v 0.9 1.3 0.4
v 0.8 0.6 0.8
v 0.8 0.7 0.8
v 0.9 0.6 0.8
v 0.9 0.7 0.8
v 0.8 0.7 0.7
v 0.8 0.8 0.7
v 0.8 1.2 0.7
v 0.8 1.3 0.7
v 0.9 0.7 0.7
v 0.9 0.8 0.7
v 0.9 1.2 0.7
v 0.9 1.3 0.7
v 0.8 0.8 0.6
v 0.8 0.9 0.6
v 0.8 1.1 0.6
v 0.8 1.2 0.6
v 0.9 0.8 0.6
v 0.9 0.9 0.6
v 0.9 1.1 0.6
v 0.9 1.2 0.6
v 0.8 0.9 0.4
v 0.8 1 0.4
v 0.8 1.1 0.4
v 0.9 0.9 0.4
v 0.9 1 0.4
v 0.9 1.1 0.4
v 0.8 1.2 0.4
v 0.8 1.3 0.4
v 0.9 1.2 0.4
v 0.9 1.3 0.4
v 0.8 0.6 0.3
v 0.8 0.7 0.3
v 0.9 0.6 0.3
v 0.9 0.7 0.3
v 0.8 0.7 0.2
v 0.8 0.8 0.2
v 0.8 0.9 0.2
v 0.8 1 0.2
v 0.8 1.1 0.2
v 0.8 1.2 0.2
v 0.9 0.7 0.2
v 0.9 0.8 0.2
v 0.9 0.9 0.2
v 0.9 1 0.2
v 0.9 1.1 0.2
v 0.9 1.2 0.2
v 0.8 0.6 0.8
v 0.9 0.6 0.8
v 0.8 0.6 0.3
v 0.9 0.6 0.3
v 0.8 0.7 0.3
v 0.9 0.7 0.3
v 0.8 0.7 0.2
v 0.9 0.7 0.2
v 0.8 1.1 0.6
v 0.9 1.1 0.6
v 0.8 1.1 0.4
v 0.9 1.1 0.4
v 0.8 1.2 0.7
v 0.9 1.2 0.7
v 0.8 1.2 0.6
v 0.9 1.2 0.6
v 0.8 0.7 0.8
v 0.9 0.7 0.8
v 0.8 0.7 0.7
v 0.9 0.7 0.7
v 0.8 0.8 0.7
v 0.9 0.8 0.7
v 0.8 0.8 0.6
v 0.9 0.8 0.6
v 0.8 0.9 0.6
v 0.9 0.9 0.6
v 0.8 0.9 0.4
v 0.9 0.9 0.4
v 0.8 1.2 0.4
v 0.9 1.2 0.4
v 0.8 1.2 0.2
v 0.9 1.2 0.2
v 0.8 1.3 0.7
v 0.9 1.3 0.7
v 0.8 1.3 0.4
v 0.9 1.3 0.4

# faces
f 3/2/1 2/2/1 1/2/1
f 4/2/1 2/2/1 3/2/1
f 5/2/1 2/2/1 4/2/1
f 7/1/1 6/1/1 5/1/1
f 7/1/1 5/1/1 4/1/1
f 8/1/1 6/1/1 7/1/1
f 9/1/1 6/1/1 8/1/1
f 10/2/1 9/2/1 8/2/1
f 11/2/1 9/2/1 10/2/1
f 12/2/1 9/2/1 11/2/1
f 13/1/1 12/1/1 11/1/1
f 14/1/1 12/1/1 13/1/1
f 16/2/1 14/2/1 13/2/1
f 17/2/1 14/2/1 16/2/1
f 19/1/1 16/1/1 15/1/1
f 19/1/1 17/1/1 16/1/1
f 20/1/1 17/1/1 19/1/1
f 21/1/1 17/1/1 20/1/1
f 22/2/1 19/2/1 18/2/1
f 22/2/1 20/2/1 19/2/1
f 23/2/1 20/2/1 22/2/1
f 24/2/2 25/2/2 26/2/2
f 26/2/2 25/2/2 27/2/2
f 27/2/2 25/2/2 28/2/2
f 28/1/2 29/1/2 30/1/2
f 27/1/2 28/1/2 30/1/2
f 30/1/2 29/1/2 31/1/2
f 31/1/2 29/1/2 32/1/2
f 31/2/2 32/2/2 33/2/2
f 33/2/2 32/2/2 34/2/2
f 34/2/2 32/2/2 35/2/2
f 34/1/2 35/1/2 36/1/2
f 36/1/2 35/1/2 37/1/2
f 36/2/2 37/2/2 39/2/2
f 39/2/2 37/2/2 40/2/2
f 38/1/2 39/1/2 42/1/2
f 39/1/2 40/1/2 42/1/2
f 42/1/2 40/1/2 43/1/2
f 43/1/2 40/1/2 44/1/2
f 41/2/2 42/2/2 45/2/2
f 42/2/2 43/2/2 45/2/2
f 45/2/2 43/2/2 46/2/2
f 49/2/3 48/2/3 47/2/3
f 50/2/3 48/2/3 49/2/3
f 55/1/3 52/1/3 51/1/3
f 56/1/3 52/1/3 55/1/3
f 57/2/3 54/2/3 53/2/3
f 58/2/3 54/2/3 57/2/3
f 63/2/3 60/2/3 59/2/3
f 64/2/3 60/2/3 63/2/3
f 65/1/3 62/1/3 61/1/3
f 66/1/3 62/1/3 65/1/3
f 70/1/3 68/1/3 67/1/3
f 71/2/3 69/2/3 68/2/3
f 71/1/3 68/1/3 70/1/3
f 72/2/3 69/2/3 71/2/3
f 73/2/4 74/2/4 75/2/4
f 75/2/4 74/2/4 76/2/4
f 77/2/4 78/2/4 79/2/4
f 79/2/4 78/2/4 80/2/4
f 81/1/4 82/1/4 87/1/4
f 82/2/4 83/2/4 88/2/4
f 87/1/4 82/1/4 88/1/4
f 83/1/4 84/1/4 89/1/4
f 88/2/4 83/2/4 89/2/4
f 84/2/4 85/2/4 90/2/4
f 89/1/4 84/1/4 90/1/4
f 85/1/4 86/1/4 91/1/4
f 90/2/4 85/2/4 91/2/4
f 91/1/4 86/1/4 92/1/4
f 95/2/5 94/2/5 93/2/5
f 96/2/5 94/2/5 95/2/5
f 99/1/5 98/1/5 97/1/5
f 100/1/5 98/1/5 99/1/5
f 103/1/5 102/1/5 101/1/5
f 104/1/5 102/1/5 103/1/5
f 107/2/5 106/2/5 105/2/5
f 108/2/5 106/2/5 107/2/5
f 109/2/6 110/2/6 111/2/6
f 111/2/6 110/2/6 112/2/6
f 113/1/6 114/1/6 115/1/6
f 115/1/6 114/1/6 116/1/6
f 117/2/6 118/2/6 119/2/6
f 119/2/6 118/2/6 120/2/6
f 121/1/6 122/1/6 123/1/6
f 123/1/6 122/1/6 124/1/6
f 125/2/6 126/2/6 127/2/6
f 127/2/6 126/2/6 128/2/6
