# MagicaVoxel @ Ephtracy

# group
o 

# material
mtllib YellowHouseParts-62.mtl
usemtl palette

# normals
vn -1 0 0
vn 1 0 0
vn 0 0 1
vn 0 0 -1
vn 0 -1 0
vn 0 1 0

# texcoords
vt 0.439453 0.5

# verts
v 0.7 1.2 -1.2
v 0.7 1.2 -1.3
v 0.7 1.3 -1.2
v 0.7 1.3 -1.3
v 0.8 0.2 -1.2
v 0.8 0.2 -1.3
v 0.8 1.2 -1.1
v 0.8 1.2 -1.2
v 0.8 1.2 -1.3
v 0.8 1.3 -1.1
v 0.8 1.3 -1.2
v 0.9 0.2 -1.2
v 0.9 0.2 -1.3
v 0.9 1.2 -1.1
v 0.9 1.2 -1.2
v 0.9 1.3 -1.1
v 0.9 1.3 -1.3
v 0.8 1.2 -1.1
v 0.8 1.3 -1.1
v 0.9 1.2 -1.1
v 0.9 1.3 -1.1
v 0.7 1.2 -1.2
v 0.7 1.3 -1.2
v 0.8 0.2 -1.2
v 0.8 1.2 -1.2
v 0.8 1.3 -1.2
v 0.9 0.2 -1.2
v 0.9 1.2 -1.2
v 0.7 1.2 -1.3
v 0.7 1.3 -1.3
v 0.8 0.2 -1.3
v 0.8 1.2 -1.3
v 0.9 0.2 -1.3
v 0.9 1.3 -1.3
v 0.8 0.2 -1.2
v 0.9 0.2 -1.2
v 0.8 0.2 -1.3
v 0.9 0.2 -1.3
v 0.8 1.2 -1.1
v 0.9 1.2 -1.1
v 0.7 1.2 -1.2
v 0.8 1.2 -1.2
v 0.9 1.2 -1.2
v 0.7 1.2 -1.3
v 0.8 1.2 -1.3
v 0.8 1.3 -1.1
v 0.9 1.3 -1.1
v 0.7 1.3 -1.2
v 0.8 1.3 -1.2
v 0.7 1.3 -1.3
v 0.9 1.3 -1.3

# faces
f 3/1/1 2/1/1 1/1/1
f 4/1/1 2/1/1 3/1/1
f 8/1/1 6/1/1 5/1/1
f 9/1/1 6/1/1 8/1/1
f 10/1/1 8/1/1 7/1/1
f 11/1/1 8/1/1 10/1/1
f 12/1/2 13/1/2 15/1/2
f 14/1/2 15/1/2 16/1/2
f 15/1/2 13/1/2 17/1/2
f 16/1/2 15/1/2 17/1/2
f 20/1/3 19/1/3 18/1/3
f 21/1/3 19/1/3 20/1/3
f 25/1/3 23/1/3 22/1/3
f 26/1/3 23/1/3 25/1/3
f 27/1/3 25/1/3 24/1/3
f 28/1/3 25/1/3 27/1/3
f 29/1/4 30/1/4 32/1/4
f 31/1/4 32/1/4 33/1/4
f 32/1/4 30/1/4 34/1/4
f 33/1/4 32/1/4 34/1/4
f 37/1/5 36/1/5 35/1/5
f 38/1/5 36/1/5 37/1/5
f 42/1/5 40/1/5 39/1/5
f 43/1/5 40/1/5 42/1/5
f 44/1/5 42/1/5 41/1/5
f 45/1/5 42/1/5 44/1/5
f 46/1/6 47/1/6 49/1/6
f 48/1/6 49/1/6 50/1/6
f 49/1/6 47/1/6 51/1/6
f 50/1/6 49/1/6 51/1/6
