# MagicaVoxel @ Ephtracy

# group
o 

# material
mtllib YellowHouseParts-30.mtl
usemtl palette

# normals
vn -1 0 0
vn 1 0 0
vn 0 0 1
vn 0 0 -1
vn 0 -1 0
vn 0 1 0

# texcoords
vt 0.439453 0.5
vt 0.791016 0.5

# verts
v 0.6 0 1.1
v 0.6 0 1
v 0.6 0.1 1.1
v 0.6 0.1 1
v 0.8 0.1 1.1
v 0.8 0.1 1
v 0.8 1.2 1.1
v 0.8 1.2 1
v 0.9 0 1.1
v 0.9 0 1
v 0.9 1.2 1.1
v 0.9 1.2 1
v 0.6 0 1.1
v 0.6 0.1 1.1
v 0.8 0 1.1
v 0.8 0.1 1.1
v 0.8 1.2 1.1
v 0.9 0 1.1
v 0.9 1.2 1.1
v 0.6 0 1
v 0.6 0.1 1
v 0.8 0 1
v 0.8 0.1 1
v 0.8 1.2 1
v 0.9 0 1
v 0.9 1.2 1
v 0.6 0 1.1
v 0.8 0 1.1
v 0.9 0 1.1
v 0.6 0 1
v 0.8 0 1
v 0.9 0 1
v 0.6 0.1 1.1
v 0.8 0.1 1.1
v 0.6 0.1 1
v 0.8 0.1 1
v 0.8 1.2 1.1
v 0.9 1.2 1.1
v 0.8 1.2 1
v 0.9 1.2 1

# faces
f 3/2/1 2/2/1 1/2/1
f 4/2/1 2/2/1 3/2/1
f 7/1/1 6/1/1 5/1/1
f 8/1/1 6/1/1 7/1/1
f 9/1/2 10/1/2 11/1/2
f 11/1/2 10/1/2 12/1/2
f 15/2/3 14/2/3 13/2/3
f 16/2/3 14/2/3 15/2/3
f 18/1/3 16/1/3 15/1/3
f 18/1/3 17/1/3 16/1/3
f 19/1/3 17/1/3 18/1/3
f 20/2/4 21/2/4 22/2/4
f 22/2/4 21/2/4 23/2/4
f 22/1/4 23/1/4 25/1/4
f 23/1/4 24/1/4 25/1/4
f 25/1/4 24/1/4 26/1/4
f 30/2/5 28/2/5 27/2/5
f 31/1/5 29/1/5 28/1/5
f 31/2/5 28/2/5 30/2/5
f 32/1/5 29/1/5 31/1/5
f 33/2/6 34/2/6 35/2/6
f 35/2/6 34/2/6 36/2/6
f 37/1/6 38/1/6 39/1/6
f 39/1/6 38/1/6 40/1/6
