# MagicaVoxel @ Ephtracy

# group
o 

# material
mtllib YellowHouseParts-7.mtl
usemtl palette

# normals
vn -1 0 0
vn 1 0 0
vn 0 0 1
vn 0 0 -1
vn 0 -1 0
vn 0 1 0

# texcoords
vt 0.259766 0.5
vt 0.791016 0.5

# verts
v 0.8 0.5 1
v 0.8 0.5 0.9
v 0.8 0.6 1
v 0.8 0.6 0.9
v 0.8 0.6 0.8
v 0.8 0.7 1
v 0.8 0.7 0.8
v 0.8 0.7 0.7
v 0.8 0.8 1
v 0.8 0.8 0.7
v 0.8 0.8 0.6
v 0.8 0.9 1
v 0.8 0.9 0.6
v 0.8 0.9 0.4
v 0.8 1 1
v 0.8 1 0.8
v 0.8 1 0.4
v 0.8 1.1 0.8
v 0.8 1.1 0.7
v 0.8 1.1 0.6
v 0.8 1.1 0.4
v 0.8 1.2 0.7
v 0.8 1.2 0.6
v 0.9 0.5 1
v 0.9 0.5 0.9
v 0.9 0.6 1
v 0.9 0.6 0.9
v 0.9 0.6 0.8
v 0.9 0.7 1
v 0.9 0.7 0.8
v 0.9 0.7 0.7
v 0.9 0.8 1
v 0.9 0.8 0.7
v 0.9 0.8 0.6
v 0.9 0.9 1
v 0.9 0.9 0.6
v 0.9 0.9 0.4
v 0.9 1 1
v 0.9 1 0.8
v 0.9 1 0.4
v 0.9 1.1 0.8
v 0.9 1.1 0.7
v 0.9 1.1 0.6
v 0.9 1.1 0.4
v 0.9 1.2 0.7
v 0.9 1.2 0.6
v 0.8 0.5 1
v 0.8 0.6 1
v 0.8 0.7 1
v 0.8 0.8 1
v 0.8 0.9 1
v 0.8 1 1
v 0.9 0.5 1
v 0.9 0.6 1
v 0.9 0.7 1
v 0.9 0.8 1
v 0.9 0.9 1
v 0.9 1 1
v 0.8 1 0.8
v 0.8 1.1 0.8
v 0.9 1 0.8
v 0.9 1.1 0.8
v 0.8 1.1 0.7
v 0.8 1.2 0.7
v 0.9 1.1 0.7
v 0.9 1.2 0.7
v 0.8 0.5 0.9
v 0.8 0.6 0.9
v 0.9 0.5 0.9
v 0.9 0.6 0.9
v 0.8 0.6 0.8
v 0.8 0.7 0.8
v 0.9 0.6 0.8
v 0.9 0.7 0.8
v 0.8 0.7 0.7
v 0.8 0.8 0.7
v 0.9 0.7 0.7
v 0.9 0.8 0.7
v 0.8 0.8 0.6
v 0.8 0.9 0.6
v 0.8 1.1 0.6
v 0.8 1.2 0.6
v 0.9 0.8 0.6
v 0.9 0.9 0.6
v 0.9 1.1 0.6
v 0.9 1.2 0.6
v 0.8 0.9 0.4
v 0.8 1 0.4
v 0.8 1.1 0.4
v 0.9 0.9 0.4
v 0.9 1 0.4
v 0.9 1.1 0.4
v 0.8 0.5 1
v 0.9 0.5 1
v 0.8 0.5 0.9
v 0.9 0.5 0.9
v 0.8 0.6 0.9
v 0.9 0.6 0.9
v 0.8 0.6 0.8
v 0.9 0.6 0.8
v 0.8 0.7 0.8
v 0.9 0.7 0.8
v 0.8 0.7 0.7
v 0.9 0.7 0.7
v 0.8 0.8 0.7
v 0.9 0.8 0.7
v 0.8 0.8 0.6
v 0.9 0.8 0.6
v 0.8 0.9 0.6
v 0.9 0.9 0.6
v 0.8 0.9 0.4
v 0.9 0.9 0.4
v 0.8 1 1
v 0.9 1 1
v 0.8 1 0.8
v 0.9 1 0.8
v 0.8 1.1 0.8
v 0.9 1.1 0.8
v 0.8 1.1 0.7
v 0.9 1.1 0.7
v 0.8 1.1 0.6
v 0.9 1.1 0.6
v 0.8 1.1 0.4
v 0.9 1.1 0.4
v 0.8 1.2 0.7
v 0.9 1.2 0.7
v 0.8 1.2 0.6
v 0.9 1.2 0.6

# faces
f 3/1/1 2/1/1 1/1/1
f 4/1/1 2/1/1 3/1/1
f 6/2/1 4/2/1 3/2/1
f 6/2/1 5/2/1 4/2/1
f 7/2/1 5/2/1 6/2/1
f 9/1/1 7/1/1 6/1/1
f 9/1/1 8/1/1 7/1/1
f 10/1/1 8/1/1 9/1/1
f 12/2/1 10/2/1 9/2/1
f 12/2/1 11/2/1 10/2/1
f 13/2/1 11/2/1 12/2/1
f 15/1/1 13/1/1 12/1/1
f 15/1/1 14/1/1 13/1/1
f 16/1/1 14/1/1 15/1/1
f 17/1/1 14/1/1 16/1/1
f 18/2/1 17/2/1 16/2/1
f 19/2/1 17/2/1 18/2/1
f 20/2/1 17/2/1 19/2/1
f 21/2/1 17/2/1 20/2/1
f 22/1/1 20/1/1 19/1/1
f 23/1/1 20/1/1 22/1/1
f 24/1/2 25/1/2 26/1/2
f 26/1/2 25/1/2 27/1/2
f 26/2/2 27/2/2 29/2/2
f 27/2/2 28/2/2 29/2/2
f 29/2/2 28/2/2 30/2/2
f 29/1/2 30/1/2 32/1/2
f 30/1/2 31/1/2 32/1/2
f 32/1/2 31/1/2 33/1/2
f 32/2/2 33/2/2 35/2/2
f 33/2/2 34/2/2 35/2/2
f 35/2/2 34/2/2 36/2/2
f 35/1/2 36/1/2 38/1/2
f 36/1/2 37/1/2 38/1/2
f 38/1/2 37/1/2 39/1/2
f 39/1/2 37/1/2 40/1/2
f 39/2/2 40/2/2 41/2/2
f 41/2/2 40/2/2 42/2/2
f 42/2/2 40/2/2 43/2/2
f 43/2/2 40/2/2 44/2/2
f 42/1/2 43/1/2 45/1/2
f 45/1/2 43/1/2 46/1/2
f 53/1/3 48/1/3 47/1/3
f 54/2/3 49/2/3 48/2/3
f 54/1/3 48/1/3 53/1/3
f 55/1/3 50/1/3 49/1/3
f 55/2/3 49/2/3 54/2/3
f 56/2/3 51/2/3 50/2/3
f 56/1/3 50/1/3 55/1/3
f 57/1/3 52/1/3 51/1/3
f 57/2/3 51/2/3 56/2/3
f 58/1/3 52/1/3 57/1/3
f 61/2/3 60/2/3 59/2/3
f 62/2/3 60/2/3 61/2/3
f 65/1/3 64/1/3 63/1/3
f 66/1/3 64/1/3 65/1/3
f 67/1/4 68/1/4 69/1/4
f 69/1/4 68/1/4 70/1/4
f 71/2/4 72/2/4 73/2/4
f 73/2/4 72/2/4 74/2/4
f 75/1/4 76/1/4 77/1/4
f 77/1/4 76/1/4 78/1/4
f 79/2/4 80/2/4 83/2/4
f 83/2/4 80/2/4 84/2/4
f 81/1/4 82/1/4 85/1/4
f 85/1/4 82/1/4 86/1/4
f 87/1/4 88/1/4 90/1/4
f 88/2/4 89/2/4 91/2/4
f 90/1/4 88/1/4 91/1/4
f 91/2/4 89/2/4 92/2/4
f 95/1/5 94/1/5 93/1/5
f 96/1/5 94/1/5 95/1/5
f 99/2/5 98/2/5 97/2/5
f 100/2/5 98/2/5 99/2/5
f 103/1/5 102/1/5 101/1/5
f 104/1/5 102/1/5 103/1/5
f 107/2/5 106/2/5 105/2/5
f 108/2/5 106/2/5 107/2/5
f 111/1/5 110/1/5 109/1/5
f 112/1/5 110/1/5 111/1/5
f 113/1/6 114/1/6 115/1/6
f 115/1/6 114/1/6 116/1/6
f 117/2/6 118/2/6 119/2/6
f 119/2/6 118/2/6 120/2/6
f 121/2/6 122/2/6 123/2/6
f 123/2/6 122/2/6 124/2/6
f 125/1/6 126/1/6 127/1/6
f 127/1/6 126/1/6 128/1/6
