# MagicaVoxel @ Ephtracy

# group
o 

# material
mtllib YellowHouseParts-10.mtl
usemtl palette

# normals
vn -1 0 0
vn 1 0 0
vn 0 0 1
vn 0 0 -1
vn 0 -1 0
vn 0 1 0

# texcoords
vt 0.259766 0.5
vt 0.791016 0.5

# verts
v 0.8 1.1 -0.9
v 0.8 1.1 -1
v 0.8 1.2 -0.9
v 0.8 1.2 -1
v 0.8 1.3 -0.6
v 0.8 1.3 -0.9
v 0.8 1.3 -1
v 0.8 1.4 -0.6
v 0.8 1.4 -1
v 0.8 1.5 -0.3
v 0.8 1.5 -0.6
v 0.8 1.5 -0.8
v 0.8 1.5 -1
v 0.8 1.6 -0.3
v 0.8 1.6 -0.4
v 0.8 1.6 -0.7
v 0.8 1.6 -0.8
v 0.8 1.7 -0.4
v 0.8 1.7 -0.7
v 0.9 1.1 -0.9
v 0.9 1.1 -1
v 0.9 1.2 -0.9
v 0.9 1.2 -1
v 0.9 1.3 -0.6
v 0.9 1.3 -0.9
v 0.9 1.3 -1
v 0.9 1.4 -0.6
v 0.9 1.4 -1
v 0.9 1.5 -0.3
v 0.9 1.5 -0.6
v 0.9 1.5 -0.8
v 0.9 1.5 -1
v 0.9 1.6 -0.3
v 0.9 1.6 -0.4
v 0.9 1.6 -0.7
v 0.9 1.6 -0.8
v 0.9 1.7 -0.4
v 0.9 1.7 -0.7
v 0.8 1.5 -0.3
v 0.8 1.6 -0.3
v 0.9 1.5 -0.3
v 0.9 1.6 -0.3
v 0.8 1.6 -0.4
v 0.8 1.7 -0.4
v 0.9 1.6 -0.4
v 0.9 1.7 -0.4
v 0.8 1.3 -0.6
v 0.8 1.4 -0.6
v 0.8 1.5 -0.6
v 0.9 1.3 -0.6
v 0.9 1.4 -0.6
v 0.9 1.5 -0.6
v 0.8 1.1 -0.9
v 0.8 1.2 -0.9
v 0.8 1.3 -0.9
v 0.9 1.1 -0.9
v 0.9 1.2 -0.9
v 0.9 1.3 -0.9
v 0.8 1.6 -0.7
v 0.8 1.7 -0.7
v 0.9 1.6 -0.7
v 0.9 1.7 -0.7
v 0.8 1.5 -0.8
v 0.8 1.6 -0.8
v 0.9 1.5 -0.8
v 0.9 1.6 -0.8
v 0.8 1.1 -1
v 0.8 1.2 -1
v 0.8 1.3 -1
v 0.8 1.4 -1
v 0.8 1.5 -1
v 0.9 1.1 -1
v 0.9 1.2 -1
v 0.9 1.3 -1
v 0.9 1.4 -1
v 0.9 1.5 -1
v 0.8 1.1 -0.9
v 0.9 1.1 -0.9
v 0.8 1.1 -1
v 0.9 1.1 -1
v 0.8 1.3 -0.6
v 0.9 1.3 -0.6
v 0.8 1.3 -0.9
v 0.9 1.3 -0.9
v 0.8 1.5 -0.3
v 0.9 1.5 -0.3
v 0.8 1.5 -0.6
v 0.9 1.5 -0.6
v 0.8 1.5 -0.8
v 0.9 1.5 -0.8
v 0.8 1.5 -1
v 0.9 1.5 -1
v 0.8 1.6 -0.3
v 0.9 1.6 -0.3
v 0.8 1.6 -0.4
v 0.9 1.6 -0.4
v 0.8 1.6 -0.7
v 0.9 1.6 -0.7
v 0.8 1.6 -0.8
v 0.9 1.6 -0.8
v 0.8 1.7 -0.4
v 0.9 1.7 -0.4
v 0.8 1.7 -0.7
v 0.9 1.7 -0.7

# faces
f 3/1/1 2/1/1 1/1/1
f 4/1/1 2/1/1 3/1/1
f 6/2/1 4/2/1 3/2/1
f 7/2/1 4/2/1 6/2/1
f 8/1/1 6/1/1 5/1/1
f 8/1/1 7/1/1 6/1/1
f 9/1/1 7/1/1 8/1/1
f 11/2/1 9/2/1 8/2/1
f 12/2/1 9/2/1 11/2/1
f 13/2/1 9/2/1 12/2/1
f 14/1/1 11/1/1 10/1/1
f 14/1/1 12/1/1 11/1/1
f 15/1/1 12/1/1 14/1/1
f 16/1/1 12/1/1 15/1/1
f 17/1/1 12/1/1 16/1/1
f 18/2/1 16/2/1 15/2/1
f 19/2/1 16/2/1 18/2/1
f 20/1/2 21/1/2 22/1/2
f 22/1/2 21/1/2 23/1/2
f 22/2/2 23/2/2 25/2/2
f 25/2/2 23/2/2 26/2/2
f 24/1/2 25/1/2 27/1/2
f 25/1/2 26/1/2 27/1/2
f 27/1/2 26/1/2 28/1/2
f 27/2/2 28/2/2 30/2/2
f 30/2/2 28/2/2 31/2/2
f 31/2/2 28/2/2 32/2/2
f 29/1/2 30/1/2 33/1/2
f 30/1/2 31/1/2 33/1/2
f 33/1/2 31/1/2 34/1/2
f 34/1/2 31/1/2 35/1/2
f 35/1/2 31/1/2 36/1/2
f 34/2/2 35/2/2 37/2/2
f 37/2/2 35/2/2 38/2/2
f 41/1/3 40/1/3 39/1/3
f 42/1/3 40/1/3 41/1/3
f 45/2/3 44/2/3 43/2/3
f 46/2/3 44/2/3 45/2/3
f 50/1/3 48/1/3 47/1/3
f 51/2/3 49/2/3 48/2/3
f 51/1/3 48/1/3 50/1/3
f 52/2/3 49/2/3 51/2/3
f 56/1/3 54/1/3 53/1/3
f 57/2/3 55/2/3 54/2/3
f 57/1/3 54/1/3 56/1/3
f 58/2/3 55/2/3 57/2/3
f 59/2/4 60/2/4 61/2/4
f 61/2/4 60/2/4 62/2/4
f 63/1/4 64/1/4 65/1/4
f 65/1/4 64/1/4 66/1/4
f 67/1/4 68/1/4 72/1/4
f 68/2/4 69/2/4 73/2/4
f 72/1/4 68/1/4 73/1/4
f 69/1/4 70/1/4 74/1/4
f 73/2/4 69/2/4 74/2/4
f 70/2/4 71/2/4 75/2/4
f 74/1/4 70/1/4 75/1/4
f 75/2/4 71/2/4 76/2/4
f 79/1/5 78/1/5 77/1/5
f 80/1/5 78/1/5 79/1/5
f 83/1/5 82/1/5 81/1/5
f 84/1/5 82/1/5 83/1/5
f 87/1/5 86/1/5 85/1/5
f 88/1/5 86/1/5 87/1/5
f 89/2/6 90/2/6 91/2/6
f 91/2/6 90/2/6 92/2/6
f 93/1/6 94/1/6 95/1/6
f 95/1/6 94/1/6 96/1/6
f 97/1/6 98/1/6 99/1/6
f 99/1/6 98/1/6 100/1/6
f 101/2/6 102/2/6 103/2/6
f 103/2/6 102/2/6 104/2/6
