# MagicaVoxel @ Ephtracy

# group
o 

# material
mtllib YellowHouseParts-31.mtl
usemtl palette

# normals
vn -1 0 0
vn 1 0 0
vn 0 0 1
vn 0 0 -1
vn 0 -1 0
vn 0 1 0

# texcoords
vt 0.439453 0.5
vt 0.509766 0.5
vt 0.513672 0.5
vt 0.791016 0.5

# verts
v 0.1 0.3 1.1
v 0.1 0.3 1
v 0.1 0.5 1.1
v 0.1 0.5 1
v 0.2 0.5 1.1
v 0.2 0.5 1
v 0.2 0.6 1.1
v 0.2 0.6 1
v 0.3 0.2 1.1
v 0.3 0.2 1
v 0.3 0.3 1.1
v 0.3 0.3 1
v 0.3 0.4 1.1
v 0.3 0.4 1
v 0.5 0.3 1.1
v 0.5 0.3 1
v 0.5 0.4 1.1
v 0.5 0.4 1
v 0.5 0.6 1.1
v 0.5 0.6 1
v 0.5 0.7 1.1
v 0.5 0.7 1
v 0.2 0.3 1.1
v 0.2 0.3 1
v 0.2 0.4 1.1
v 0.2 0.4 1
v 0.4 0.2 1.1
v 0.4 0.2 1
v 0.4 0.3 1.1
v 0.4 0.3 1
v 0.4 0.4 1.1
v 0.4 0.4 1
v 0.7 0.3 1.1
v 0.7 0.3 1
v 0.7 0.7 1.1
v 0.7 0.7 1
v 0.1 0.3 1.1
v 0.1 0.5 1.1
v 0.2 0.3 1.1
v 0.2 0.4 1.1
v 0.2 0.5 1.1
v 0.2 0.6 1.1
v 0.3 0.2 1.1
v 0.3 0.3 1.1
v 0.3 0.4 1.1
v 0.4 0.2 1.1
v 0.4 0.3 1.1
v 0.4 0.4 1.1
v 0.4 0.5 1.1
v 0.4 0.6 1.1
v 0.5 0.3 1.1
v 0.5 0.4 1.1
v 0.5 0.6 1.1
v 0.5 0.7 1.1
v 0.6 0.4 1.1
v 0.6 0.5 1.1
v 0.6 0.6 1.1
v 0.7 0.3 1.1
v 0.7 0.7 1.1
v 0.1 0.3 1
v 0.1 0.5 1
v 0.2 0.3 1
v 0.2 0.4 1
v 0.2 0.5 1
v 0.2 0.6 1
v 0.3 0.2 1
v 0.3 0.3 1
v 0.3 0.4 1
v 0.4 0.2 1
v 0.4 0.3 1
v 0.4 0.4 1
v 0.4 0.5 1
v 0.4 0.6 1
v 0.5 0.3 1
v 0.5 0.4 1
v 0.5 0.6 1
v 0.5 0.7 1
v 0.6 0.4 1
v 0.6 0.5 1
v 0.6 0.6 1
v 0.7 0.3 1
v 0.7 0.7 1
v 0.3 0.2 1.1
v 0.4 0.2 1.1
v 0.3 0.2 1
v 0.4 0.2 1
v 0.1 0.3 1.1
v 0.2 0.3 1.1
v 0.5 0.3 1.1
v 0.7 0.3 1.1
v 0.1 0.3 1
v 0.2 0.3 1
v 0.5 0.3 1
v 0.7 0.3 1
v 0.2 0.4 1.1
v 0.3 0.4 1.1
v 0.4 0.4 1.1
v 0.5 0.4 1.1
v 0.2 0.4 1
v 0.3 0.4 1
v 0.4 0.4 1
v 0.5 0.4 1
v 0.1 0.5 1.1
v 0.2 0.5 1.1
v 0.1 0.5 1
v 0.2 0.5 1
v 0.2 0.6 1.1
v 0.4 0.6 1.1
v 0.5 0.6 1.1
v 0.2 0.6 1
v 0.4 0.6 1
v 0.5 0.6 1
v 0.5 0.7 1.1
v 0.7 0.7 1.1
v 0.5 0.7 1
v 0.7 0.7 1

# faces
f 3/1/1 2/1/1 1/1/1
f 4/1/1 2/1/1 3/1/1
f 7/3/1 6/3/1 5/3/1
f 8/3/1 6/3/1 7/3/1
f 11/4/1 10/4/1 9/4/1
f 12/4/1 10/4/1 11/4/1
f 13/1/1 12/1/1 11/1/1
f 14/1/1 12/1/1 13/1/1
f 17/1/1 16/1/1 15/1/1
f 18/1/1 16/1/1 17/1/1
f 21/1/1 20/1/1 19/1/1
f 22/1/1 20/1/1 21/1/1
f 23/1/2 24/1/2 25/1/2
f 25/1/2 24/1/2 26/1/2
f 27/4/2 28/4/2 29/4/2
f 29/4/2 28/4/2 30/4/2
f 29/1/2 30/1/2 31/1/2
f 31/1/2 30/1/2 32/1/2
f 33/1/2 34/1/2 35/1/2
f 35/1/2 34/1/2 36/1/2
f 39/1/3 38/1/3 37/1/3
f 40/1/3 38/1/3 39/1/3
f 41/1/3 38/1/3 40/1/3
f 45/2/3 41/2/3 40/2/3
f 46/4/3 44/4/3 43/4/3
f 47/1/3 45/1/3 44/1/3
f 47/4/3 44/4/3 46/4/3
f 48/2/3 41/2/3 45/2/3
f 48/1/3 45/1/3 47/1/3
f 49/3/3 42/3/3 41/3/3
f 49/2/3 41/2/3 48/2/3
f 50/3/3 42/3/3 49/3/3
f 52/3/3 49/3/3 48/3/3
f 53/2/3 50/2/3 49/2/3
f 55/1/3 52/1/3 51/1/3
f 55/3/3 49/3/3 52/3/3
f 56/2/3 53/2/3 49/2/3
f 56/3/3 49/3/3 55/3/3
f 57/1/3 54/1/3 53/1/3
f 57/2/3 53/2/3 56/2/3
f 58/1/3 55/1/3 51/1/3
f 58/1/3 56/1/3 55/1/3
f 58/1/3 57/1/3 56/1/3
f 59/1/3 54/1/3 57/1/3
f 59/1/3 57/1/3 58/1/3
f 60/1/4 61/1/4 62/1/4
f 62/1/4 61/1/4 63/1/4
f 63/1/4 61/1/4 64/1/4
f 63/2/4 64/2/4 68/2/4
f 66/4/4 67/4/4 69/4/4
f 67/1/4 68/1/4 70/1/4
f 69/4/4 67/4/4 70/4/4
f 68/2/4 64/2/4 71/2/4
f 70/1/4 68/1/4 71/1/4
f 64/3/4 65/3/4 72/3/4
f 71/2/4 64/2/4 72/2/4
f 72/3/4 65/3/4 73/3/4
f 71/3/4 72/3/4 75/3/4
f 72/2/4 73/2/4 76/2/4
f 74/1/4 75/1/4 78/1/4
f 75/3/4 72/3/4 78/3/4
f 72/2/4 76/2/4 79/2/4
f 78/3/4 72/3/4 79/3/4
f 76/1/4 77/1/4 80/1/4
f 79/2/4 76/2/4 80/2/4
f 74/1/4 78/1/4 81/1/4
f 78/1/4 79/1/4 81/1/4
f 79/1/4 80/1/4 81/1/4
f 80/1/4 77/1/4 82/1/4
f 81/1/4 80/1/4 82/1/4
f 85/4/5 84/4/5 83/4/5
f 86/4/5 84/4/5 85/4/5
f 91/1/5 88/1/5 87/1/5
f 92/1/5 88/1/5 91/1/5
f 93/1/5 90/1/5 89/1/5
f 94/1/5 90/1/5 93/1/5
f 99/2/5 96/2/5 95/2/5
f 100/2/5 96/2/5 99/2/5
f 101/3/5 98/3/5 97/3/5
f 102/3/5 98/3/5 101/3/5
f 103/1/6 104/1/6 105/1/6
f 105/1/6 104/1/6 106/1/6
f 107/3/6 108/3/6 110/3/6
f 108/2/6 109/2/6 111/2/6
f 110/3/6 108/3/6 111/3/6
f 111/2/6 109/2/6 112/2/6
f 113/1/6 114/1/6 115/1/6
f 115/1/6 114/1/6 116/1/6
