# MagicaVoxel @ Ephtracy

# group
o 

# material
mtllib YellowHouseParts-15.mtl
usemtl palette

# normals
vn -1 0 0
vn 1 0 0
vn 0 0 1
vn 0 0 -1
vn 0 -1 0
vn 0 1 0

# texcoords
vt 0.259766 0.5
vt 0.791016 0.5

# verts
v 0.8 1.5 0.1
v 0.8 1.5 0
v 0.8 1.6 0.3
v 0.8 1.6 0.1
v 0.8 1.6 0
v 0.8 1.7 0.4
v 0.8 1.7 0.3
v 0.8 1.7 0
v 0.8 1.8 0.4
v 0.8 1.8 0.2
v 0.8 1.8 0
v 0.8 1.8 -0.1
v 0.8 1.9 0.2
v 0.8 1.9 -0.1
v 0.8 2 0.2
v 0.8 2 0.1
v 0.8 2 -0.1
v 0.8 2 -0.2
v 0.8 2.1 0.2
v 0.8 2.1 0.1
v 0.8 2.1 -0.1
v 0.8 2.1 -0.2
v 0.8 2.2 0.2
v 0.8 2.2 -0.1
v 0.9 1.5 0.1
v 0.9 1.5 0
v 0.9 1.6 0.3
v 0.9 1.6 0.1
v 0.9 1.6 0
v 0.9 1.7 0.4
v 0.9 1.7 0.3
v 0.9 1.7 0
v 0.9 1.8 0.4
v 0.9 1.8 0.2
v 0.9 1.8 0
v 0.9 1.8 -0.1
v 0.9 1.9 0.2
v 0.9 1.9 -0.1
v 0.9 2 0.2
v 0.9 2 0.1
v 0.9 2 -0.1
v 0.9 2 -0.2
v 0.9 2.1 0.2
v 0.9 2.1 0.1
v 0.9 2.1 -0.1
v 0.9 2.1 -0.2
v 0.9 2.2 0.2
v 0.9 2.2 -0.1
v 0.8 1.7 0.4
v 0.8 1.8 0.4
v 0.9 1.7 0.4
v 0.9 1.8 0.4
v 0.8 1.6 0.3
v 0.8 1.7 0.3
v 0.9 1.6 0.3
v 0.9 1.7 0.3
v 0.8 1.8 0.2
v 0.8 1.9 0.2
v 0.8 2 0.2
v 0.8 2.1 0.2
v 0.8 2.2 0.2
v 0.9 1.8 0.2
v 0.9 1.9 0.2
v 0.9 2 0.2
v 0.9 2.1 0.2
v 0.9 2.2 0.2
v 0.8 1.5 0.1
v 0.8 1.6 0.1
v 0.8 2 0.1
v 0.8 2.1 0.1
v 0.9 1.5 0.1
v 0.9 1.6 0.1
v 0.9 2 0.1
v 0.9 2.1 0.1
v 0.8 1.5 0
v 0.8 1.6 0
v 0.8 1.7 0
v 0.8 1.8 0
v 0.9 1.5 0
v 0.9 1.6 0
v 0.9 1.7 0
v 0.9 1.8 0
v 0.8 1.8 -0.1
v 0.8 1.9 -0.1
v 0.8 2 -0.1
v 0.8 2.1 -0.1
v 0.8 2.2 -0.1
v 0.9 1.8 -0.1
v 0.9 1.9 -0.1
v 0.9 2 -0.1
v 0.9 2.1 -0.1
v 0.9 2.2 -0.1
v 0.8 2 -0.2
v 0.8 2.1 -0.2
v 0.9 2 -0.2
v 0.9 2.1 -0.2
v 0.8 1.5 0.1
v 0.9 1.5 0.1
v 0.8 1.5 0
v 0.9 1.5 0
v 0.8 1.6 0.3
v 0.9 1.6 0.3
v 0.8 1.6 0.1
v 0.9 1.6 0.1
v 0.8 1.7 0.4
v 0.9 1.7 0.4
v 0.8 1.7 0.3
v 0.9 1.7 0.3
v 0.8 1.8 0
v 0.9 1.8 0
v 0.8 1.8 -0.1
v 0.9 1.8 -0.1
v 0.8 2 -0.1
v 0.9 2 -0.1
v 0.8 2 -0.2
v 0.9 2 -0.2
v 0.8 2.1 0.2
v 0.9 2.1 0.2
v 0.8 2.1 0.1
v 0.9 2.1 0.1
v 0.8 1.8 0.4
v 0.9 1.8 0.4
v 0.8 1.8 0.2
v 0.9 1.8 0.2
v 0.8 2 0.2
v 0.9 2 0.2
v 0.8 2 0.1
v 0.9 2 0.1
v 0.8 2.1 -0.1
v 0.9 2.1 -0.1
v 0.8 2.1 -0.2
v 0.9 2.1 -0.2
v 0.8 2.2 0.2
v 0.9 2.2 0.2
v 0.8 2.2 -0.1
v 0.9 2.2 -0.1

# faces
f 4/1/1 2/1/1 1/1/1
f 5/1/1 2/1/1 4/1/1
f 7/2/1 4/2/1 3/2/1
f 7/2/1 5/2/1 4/2/1
f 8/2/1 5/2/1 7/2/1
f 9/1/1 7/1/1 6/1/1
f 9/1/1 8/1/1 7/1/1
f 10/1/1 8/1/1 9/1/1
f 11/1/1 8/1/1 10/1/1
f 13/2/1 11/2/1 10/2/1
f 13/2/1 12/2/1 11/2/1
f 14/2/1 12/2/1 13/2/1
f 15/1/1 14/1/1 13/1/1
f 16/1/1 14/1/1 15/1/1
f 17/1/1 14/1/1 16/1/1
f 20/2/1 17/2/1 16/2/1
f 20/2/1 18/2/1 17/2/1
f 21/2/1 18/2/1 20/2/1
f 22/2/1 18/2/1 21/2/1
f 23/1/1 20/1/1 19/1/1
f 23/1/1 21/1/1 20/1/1
f 24/1/1 21/1/1 23/1/1
f 25/1/2 26/1/2 28/1/2
f 28/1/2 26/1/2 29/1/2
f 27/2/2 28/2/2 31/2/2
f 28/2/2 29/2/2 31/2/2
f 31/2/2 29/2/2 32/2/2
f 30/1/2 31/1/2 33/1/2
f 31/1/2 32/1/2 33/1/2
f 33/1/2 32/1/2 34/1/2
f 34/1/2 32/1/2 35/1/2
f 34/2/2 35/2/2 37/2/2
f 35/2/2 36/2/2 37/2/2
f 37/2/2 36/2/2 38/2/2
f 37/1/2 38/1/2 39/1/2
f 39/1/2 38/1/2 40/1/2
f 40/1/2 38/1/2 41/1/2
f 40/2/2 41/2/2 44/2/2
f 41/2/2 42/2/2 44/2/2
f 44/2/2 42/2/2 45/2/2
f 45/2/2 42/2/2 46/2/2
f 43/1/2 44/1/2 47/1/2
f 44/1/2 45/1/2 47/1/2
f 47/1/2 45/1/2 48/1/2
f 51/1/3 50/1/3 49/1/3
f 52/1/3 50/1/3 51/1/3
f 55/2/3 54/2/3 53/2/3
f 56/2/3 54/2/3 55/2/3
f 62/2/3 58/2/3 57/2/3
f 63/1/3 59/1/3 58/1/3
f 63/2/3 58/2/3 62/2/3
f 64/1/3 59/1/3 63/1/3
f 65/1/3 61/1/3 60/1/3
f 66/1/3 61/1/3 65/1/3
f 71/1/3 68/1/3 67/1/3
f 72/1/3 68/1/3 71/1/3
f 73/2/3 70/2/3 69/2/3
f 74/2/3 70/2/3 73/2/3
f 75/1/4 76/1/4 79/1/4
f 76/2/4 77/2/4 80/2/4
f 79/1/4 76/1/4 80/1/4
f 77/1/4 78/1/4 81/1/4
f 80/2/4 77/2/4 81/2/4
f 81/1/4 78/1/4 82/1/4
f 83/2/4 84/2/4 88/2/4
f 84/1/4 85/1/4 89/1/4
f 88/2/4 84/2/4 89/2/4
f 89/1/4 85/1/4 90/1/4
f 86/1/4 87/1/4 91/1/4
f 91/1/4 87/1/4 92/1/4
f 93/2/4 94/2/4 95/2/4
f 95/2/4 94/2/4 96/2/4
f 99/1/5 98/1/5 97/1/5
f 100/1/5 98/1/5 99/1/5
f 103/2/5 102/2/5 101/2/5
f 104/2/5 102/2/5 103/2/5
f 107/1/5 106/1/5 105/1/5
f 108/1/5 106/1/5 107/1/5
f 111/2/5 110/2/5 109/2/5
f 112/2/5 110/2/5 111/2/5
f 115/2/5 114/2/5 113/2/5
f 116/2/5 114/2/5 115/2/5
f 119/1/5 118/1/5 117/1/5
f 120/1/5 118/1/5 119/1/5
f 121/1/6 122/1/6 123/1/6
f 123/1/6 122/1/6 124/1/6
f 125/1/6 126/1/6 127/1/6
f 127/1/6 126/1/6 128/1/6
f 129/2/6 130/2/6 131/2/6
f 131/2/6 130/2/6 132/2/6
f 133/1/6 134/1/6 135/1/6
f 135/1/6 134/1/6 136/1/6
