# MagicaVoxel @ Ephtracy

# group
o 

# material
mtllib YellowHouseParts-1.mtl
usemtl palette

# normals
vn -1 0 0
vn 1 0 0
vn 0 0 1
vn 0 0 -1
vn 0 -1 0
vn 0 1 0

# texcoords
vt 0.259766 0.5
vt 0.791016 0.5

# verts
v 0.8 0 0.0999999
v 0.8 0 -0.3
v 0.8 0.1 0.0999999
v 0.8 0.1 -0.3
v 0.8 0.1 -0.5
v 0.8 0.2 0.0999999
v 0.8 0.2 -0.1
v 0.8 0.2 -0.3
v 0.8 0.2 -0.5
v 0.8 0.3 0.0999999
v 0.8 0.3 -0.1
v 0.8 0.3 -0.3
v 0.8 0.3 -0.5
v 0.9 0 0.0999999
v 0.9 0 -0.3
v 0.9 0.1 0.0999999
v 0.9 0.1 -0.3
v 0.9 0.1 -0.5
v 0.9 0.2 0.0999999
v 0.9 0.2 -0.1
v 0.9 0.2 -0.3
v 0.9 0.2 -0.5
v 0.9 0.3 0.0999999
v 0.9 0.3 -0.1
v 0.9 0.3 -0.3
v 0.9 0.3 -0.5
v 0.8 0 0.0999999
v 0.8 0.1 0.0999999
v 0.8 0.2 0.0999999
v 0.8 0.3 0.0999999
v 0.9 0 0.0999999
v 0.9 0.1 0.0999999
v 0.9 0.2 0.0999999
v 0.9 0.3 0.0999999
v 0.8 0.2 -0.3
v 0.8 0.3 -0.3
v 0.9 0.2 -0.3
v 0.9 0.3 -0.3
v 0.8 0.2 -0.1
v 0.8 0.3 -0.1
v 0.9 0.2 -0.1
v 0.9 0.3 -0.1
v 0.8 0 -0.3
v 0.8 0.1 -0.3
v 0.9 0 -0.3
v 0.9 0.1 -0.3
v 0.8 0.1 -0.5
v 0.8 0.2 -0.5
v 0.8 0.3 -0.5
v 0.9 0.1 -0.5
v 0.9 0.2 -0.5
v 0.9 0.3 -0.5
v 0.8 0 0.0999999
v 0.9 0 0.0999999
v 0.8 0 -0.3
v 0.9 0 -0.3
v 0.8 0.1 -0.3
v 0.9 0.1 -0.3
v 0.8 0.1 -0.5
v 0.9 0.1 -0.5
v 0.8 0.2 -0.1
v 0.9 0.2 -0.1
v 0.8 0.2 -0.3
v 0.9 0.2 -0.3
v 0.8 0.3 0.0999999
v 0.9 0.3 0.0999999
v 0.8 0.3 -0.1
v 0.9 0.3 -0.1
v 0.8 0.3 -0.3
v 0.9 0.3 -0.3
v 0.8 0.3 -0.5
v 0.9 0.3 -0.5

# faces
f 3/2/1 2/2/1 1/2/1
f 4/2/1 2/2/1 3/2/1
f 6/1/1 4/1/1 3/1/1
f 6/1/1 5/1/1 4/1/1
f 7/1/1 5/1/1 6/1/1
f 8/1/1 5/1/1 7/1/1
f 9/1/1 5/1/1 8/1/1
f 10/2/1 7/2/1 6/2/1
f 11/2/1 7/2/1 10/2/1
f 12/2/1 9/2/1 8/2/1
f 13/2/1 9/2/1 12/2/1
f 14/2/2 15/2/2 16/2/2
f 16/2/2 15/2/2 17/2/2
f 16/1/2 17/1/2 19/1/2
f 17/1/2 18/1/2 19/1/2
f 19/1/2 18/1/2 20/1/2
f 20/1/2 18/1/2 21/1/2
f 21/1/2 18/1/2 22/1/2
f 19/2/2 20/2/2 23/2/2
f 23/2/2 20/2/2 24/2/2
f 21/2/2 22/2/2 25/2/2
f 25/2/2 22/2/2 26/2/2
f 31/2/3 28/2/3 27/2/3
f 32/1/3 29/1/3 28/1/3
f 32/2/3 28/2/3 31/2/3
f 33/2/3 30/2/3 29/2/3
f 33/1/3 29/1/3 32/1/3
f 34/2/3 30/2/3 33/2/3
f 37/2/3 36/2/3 35/2/3
f 38/2/3 36/2/3 37/2/3
f 39/2/4 40/2/4 41/2/4
f 41/2/4 40/2/4 42/2/4
f 43/2/4 44/2/4 45/2/4
f 45/2/4 44/2/4 46/2/4
f 47/1/4 48/1/4 50/1/4
f 48/2/4 49/2/4 51/2/4
f 50/1/4 48/1/4 51/1/4
f 51/2/4 49/2/4 52/2/4
f 55/2/5 54/2/5 53/2/5
f 56/2/5 54/2/5 55/2/5
f 59/1/5 58/1/5 57/1/5
f 60/1/5 58/1/5 59/1/5
f 61/1/6 62/1/6 63/1/6
f 63/1/6 62/1/6 64/1/6
f 65/2/6 66/2/6 67/2/6
f 67/2/6 66/2/6 68/2/6
f 69/2/6 70/2/6 71/2/6
f 71/2/6 70/2/6 72/2/6
