# MagicaVoxel @ Ephtracy

# group
o 

# material
mtllib YellowHouseParts-98.mtl
usemtl palette

# normals
vn -1 0 0
vn 1 0 0
vn 0 0 1
vn 0 0 -1
vn 0 -1 0
vn 0 1 0

# texcoords
vt 0.189453 0.5
vt 0.193359 0.5
vt 0.541016 0.5

# verts
v -1 2.2 -0.4
v -1 2.2 -1.2
v -1 2.3 -0.4
v -1 2.3 -1.2
v -0.9 2.3 -0.5
v -0.9 2.3 -0.6
v -0.9 2.3 -0.7
v -0.9 2.3 -0.8
v -0.9 2.3 -0.9
v -0.9 2.3 -1
v -0.9 2.4 -0.5
v -0.9 2.4 -0.6
v -0.9 2.4 -0.7
v -0.9 2.4 -0.8
v -0.9 2.4 -0.9
v -0.9 2.4 -1
v -0.8 2.4 -0.6
v -0.8 2.4 -0.7
v -0.8 2.4 -0.8
v -0.8 2.4 -0.9
v -0.8 2.5 -0.6
v -0.8 2.5 -0.7
v -0.8 2.5 -0.8
v -0.8 2.5 -0.9
v -0.7 2.5 -0.5
v -0.7 2.5 -0.6
v -0.7 2.5 -0.7
v -0.7 2.5 -0.8
v -0.7 2.6 -0.5
v -0.7 2.6 -0.6
v -0.7 2.6 -0.7
v -0.7 2.6 -0.8
v -0.6 2.6 -0.5
v -0.6 2.6 -0.6
v -0.6 2.6 -0.7
v -0.6 2.6 -0.8
v -0.6 2.7 -0.5
v -0.6 2.7 -0.6
v -0.6 2.7 -0.7
v -0.6 2.7 -0.8
v -0.9 2.2 -0.4
v -0.9 2.2 -1.2
v -0.9 2.3 -0.4
v -0.9 2.3 -0.5
v -0.9 2.3 -0.6
v -0.9 2.3 -0.7
v -0.9 2.3 -0.8
v -0.9 2.3 -0.9
v -0.9 2.3 -1
v -0.9 2.3 -1.2
v -0.8 2.3 -0.5
v -0.8 2.3 -0.6
v -0.8 2.3 -0.7
v -0.8 2.3 -0.8
v -0.8 2.3 -0.9
v -0.8 2.3 -1
v -0.8 2.4 -0.5
v -0.8 2.4 -0.6
v -0.8 2.4 -0.7
v -0.8 2.4 -0.8
v -0.8 2.4 -0.9
v -0.8 2.4 -1
v -0.7 2.4 -0.6
v -0.7 2.4 -0.7
v -0.7 2.4 -0.8
v -0.7 2.4 -0.9
v -0.7 2.5 -0.6
v -0.7 2.5 -0.7
v -0.7 2.5 -0.8
v -0.7 2.5 -0.9
v -0.6 2.5 -0.5
v -0.6 2.5 -0.6
v -0.6 2.5 -0.7
v -0.6 2.5 -0.8
v -0.6 2.6 -0.5
v -0.6 2.6 -0.6
v -0.6 2.6 -0.7
v -0.6 2.6 -0.8
v -0.5 2.6 -0.5
v -0.5 2.6 -0.6
v -0.5 2.6 -0.7
v -0.5 2.6 -0.8
v -0.5 2.7 -0.5
v -0.5 2.7 -0.6
v -0.5 2.7 -0.7
v -0.5 2.7 -0.8
v -1 2.2 -0.4
v -1 2.3 -0.4
v -0.9 2.2 -0.4
v -0.9 2.3 -0.4
v -0.9 2.3 -0.5
v -0.9 2.4 -0.5
v -0.8 2.3 -0.5
v -0.8 2.4 -0.5
v -0.7 2.5 -0.5
v -0.7 2.6 -0.5
v -0.6 2.5 -0.5
v -0.6 2.6 -0.5
v -0.6 2.7 -0.5
v -0.5 2.6 -0.5
v -0.5 2.7 -0.5
v -0.8 2.4 -0.6
v -0.8 2.5 -0.6
v -0.7 2.4 -0.6
v -0.7 2.5 -0.6
v -0.7 2.5 -0.8
v -0.7 2.6 -0.8
v -0.6 2.5 -0.8
v -0.6 2.6 -0.8
v -0.6 2.7 -0.8
v -0.5 2.6 -0.8
v -0.5 2.7 -0.8
v -0.8 2.4 -0.9
v -0.8 2.5 -0.9
v -0.7 2.4 -0.9
v -0.7 2.5 -0.9
v -0.9 2.3 -1
v -0.9 2.4 -1
v -0.8 2.3 -1
v -0.8 2.4 -1
v -1 2.2 -1.2
v -1 2.3 -1.2
v -0.9 2.2 -1.2
v -0.9 2.3 -1.2
v -1 2.2 -0.4
v -0.9 2.2 -0.4
v -1 2.2 -1.2
v -0.9 2.2 -1.2
v -0.9 2.3 -0.5
v -0.8 2.3 -0.5
v -0.9 2.3 -0.6
v -0.8 2.3 -0.6
v -0.9 2.3 -0.7
v -0.8 2.3 -0.7
v -0.9 2.3 -0.8
v -0.8 2.3 -0.8
v -0.9 2.3 -0.9
v -0.8 2.3 -0.9
v -0.9 2.3 -1
v -0.8 2.3 -1
v -0.8 2.4 -0.6
v -0.7 2.4 -0.6
v -0.8 2.4 -0.7
v -0.7 2.4 -0.7
v -0.8 2.4 -0.8
v -0.7 2.4 -0.8
v -0.8 2.4 -0.9
v -0.7 2.4 -0.9
v -0.7 2.5 -0.5
v -0.6 2.5 -0.5
v -0.7 2.5 -0.6
v -0.6 2.5 -0.6
v -0.7 2.5 -0.7
v -0.6 2.5 -0.7
v -0.7 2.5 -0.8
v -0.6 2.5 -0.8
v -0.6 2.6 -0.5
v -0.5 2.6 -0.5
v -0.6 2.6 -0.6
v -0.5 2.6 -0.6
v -0.6 2.6 -0.7
v -0.5 2.6 -0.7
v -0.6 2.6 -0.8
v -0.5 2.6 -0.8
v -1 2.3 -0.4
v -0.9 2.3 -0.4
v -0.9 2.3 -0.5
v -0.9 2.3 -0.6
v -0.9 2.3 -0.7
v -0.9 2.3 -0.8
v -0.9 2.3 -0.9
v -0.9 2.3 -1
v -1 2.3 -1.2
v -0.9 2.3 -1.2
v -0.9 2.4 -0.5
v -0.8 2.4 -0.5
v -0.9 2.4 -0.6
v -0.8 2.4 -0.6
v -0.9 2.4 -0.7
v -0.8 2.4 -0.7
v -0.9 2.4 -0.8
v -0.8 2.4 -0.8
v -0.9 2.4 -0.9
v -0.8 2.4 -0.9
v -0.9 2.4 -1
v -0.8 2.4 -1
v -0.8 2.5 -0.6
v -0.7 2.5 -0.6
v -0.8 2.5 -0.7
v -0.7 2.5 -0.7
v -0.8 2.5 -0.8
v -0.7 2.5 -0.8
v -0.8 2.5 -0.9
v -0.7 2.5 -0.9
v -0.7 2.6 -0.5
v -0.6 2.6 -0.5
v -0.7 2.6 -0.6
v -0.6 2.6 -0.6
v -0.7 2.6 -0.7
v -0.6 2.6 -0.7
v -0.7 2.6 -0.8
v -0.6 2.6 -0.8
v -0.6 2.7 -0.5
v -0.5 2.7 -0.5
v -0.6 2.7 -0.6
v -0.5 2.7 -0.6
v -0.6 2.7 -0.7
v -0.5 2.7 -0.7
v -0.6 2.7 -0.8
v -0.5 2.7 -0.8

# faces
f 3/3/1 2/3/1 1/3/1
f 4/3/1 2/3/1 3/3/1
f 11/1/1 6/1/1 5/1/1
f 12/2/1 7/2/1 6/2/1
f 12/1/1 6/1/1 11/1/1
f 13/1/1 8/1/1 7/1/1
f 13/2/1 7/2/1 12/2/1
f 14/2/1 9/2/1 8/2/1
f 14/1/1 8/1/1 13/1/1
f 15/1/1 10/1/1 9/1/1
f 15/2/1 9/2/1 14/2/1
f 16/1/1 10/1/1 15/1/1
f 21/1/1 18/1/1 17/1/1
f 22/2/1 19/2/1 18/2/1
f 22/1/1 18/1/1 21/1/1
f 23/1/1 20/1/1 19/1/1
f 23/2/1 19/2/1 22/2/1
f 24/1/1 20/1/1 23/1/1
f 29/1/1 26/1/1 25/1/1
f 30/2/1 27/2/1 26/2/1
f 30/1/1 26/1/1 29/1/1
f 31/1/1 28/1/1 27/1/1
f 31/2/1 27/2/1 30/2/1
f 32/1/1 28/1/1 31/1/1
f 37/2/1 34/2/1 33/2/1
f 38/1/1 35/1/1 34/1/1
f 38/2/1 34/2/1 37/2/1
f 39/2/1 36/2/1 35/2/1
f 39/1/1 35/1/1 38/1/1
f 40/2/1 36/2/1 39/2/1
f 41/3/2 42/3/2 43/3/2
f 43/3/2 42/3/2 44/3/2
f 44/3/2 42/3/2 45/3/2
f 45/3/2 42/3/2 46/3/2
f 46/3/2 42/3/2 47/3/2
f 47/3/2 42/3/2 48/3/2
f 48/3/2 42/3/2 49/3/2
f 49/3/2 42/3/2 50/3/2
f 51/1/2 52/1/2 57/1/2
f 52/2/2 53/2/2 58/2/2
f 57/1/2 52/1/2 58/1/2
f 53/1/2 54/1/2 59/1/2
f 58/2/2 53/2/2 59/2/2
f 54/2/2 55/2/2 60/2/2
f 59/1/2 54/1/2 60/1/2
f 55/1/2 56/1/2 61/1/2
f 60/2/2 55/2/2 61/2/2
f 61/1/2 56/1/2 62/1/2
f 63/1/2 64/1/2 67/1/2
f 64/2/2 65/2/2 68/2/2
f 67/1/2 64/1/2 68/1/2
f 65/1/2 66/1/2 69/1/2
f 68/2/2 65/2/2 69/2/2
f 69/1/2 66/1/2 70/1/2
f 71/1/2 72/1/2 75/1/2
f 72/2/2 73/2/2 76/2/2
f 75/1/2 72/1/2 76/1/2
f 73/1/2 74/1/2 77/1/2
f 76/2/2 73/2/2 77/2/2
f 77/1/2 74/1/2 78/1/2
f 79/2/2 80/2/2 83/2/2
f 80/1/2 81/1/2 84/1/2
f 83/2/2 80/2/2 84/2/2
f 81/2/2 82/2/2 85/2/2
f 84/1/2 81/1/2 85/1/2
f 85/2/2 82/2/2 86/2/2
f 89/3/3 88/3/3 87/3/3
f 90/3/3 88/3/3 89/3/3
f 93/1/3 92/1/3 91/1/3
f 94/1/3 92/1/3 93/1/3
f 97/1/3 96/1/3 95/1/3
f 98/1/3 96/1/3 97/1/3
f 100/2/3 99/2/3 98/2/3
f 101/2/3 99/2/3 100/2/3
f 104/1/3 103/1/3 102/1/3
f 105/1/3 103/1/3 104/1/3
f 106/1/4 107/1/4 108/1/4
f 108/1/4 107/1/4 109/1/4
f 109/2/4 110/2/4 111/2/4
f 111/2/4 110/2/4 112/2/4
f 113/1/4 114/1/4 115/1/4
f 115/1/4 114/1/4 116/1/4
f 117/1/4 118/1/4 119/1/4
f 119/1/4 118/1/4 120/1/4
f 121/3/4 122/3/4 123/3/4
f 123/3/4 122/3/4 124/3/4
f 127/3/5 126/3/5 125/3/5
f 128/3/5 126/3/5 127/3/5
f 131/1/5 130/1/5 129/1/5
f 132/1/5 130/1/5 131/1/5
f 133/2/5 132/2/5 131/2/5
f 134/2/5 132/2/5 133/2/5
f 135/1/5 134/1/5 133/1/5
f 136/1/5 134/1/5 135/1/5
f 137/2/5 136/2/5 135/2/5
f 138/2/5 136/2/5 137/2/5
f 139/1/5 138/1/5 137/1/5
f 140/1/5 138/1/5 139/1/5
f 143/1/5 142/1/5 141/1/5
f 144/1/5 142/1/5 143/1/5
f 145/2/5 144/2/5 143/2/5
f 146/2/5 144/2/5 145/2/5
f 147/1/5 146/1/5 145/1/5
f 148/1/5 146/1/5 147/1/5
f 151/1/5 150/1/5 149/1/5
f 152/1/5 150/1/5 151/1/5
f 153/2/5 152/2/5 151/2/5
f 154/2/5 152/2/5 153/2/5
f 155/1/5 154/1/5 153/1/5
f 156/1/5 154/1/5 155/1/5
f 159/2/5 158/2/5 157/2/5
f 160/2/5 158/2/5 159/2/5
f 161/1/5 160/1/5 159/1/5
f 162/1/5 160/1/5 161/1/5
f 163/2/5 162/2/5 161/2/5
f 164/2/5 162/2/5 163/2/5
f 165/3/6 166/3/6 167/3/6
f 165/3/6 167/3/6 168/3/6
f 165/3/6 168/3/6 169/3/6
f 165/3/6 169/3/6 170/3/6
f 165/3/6 170/3/6 171/3/6
f 165/3/6 171/3/6 172/3/6
f 165/3/6 172/3/6 173/3/6
f 173/3/6 172/3/6 174/3/6
f 175/1/6 176/1/6 177/1/6
f 177/1/6 176/1/6 178/1/6
f 177/2/6 178/2/6 179/2/6
f 179/2/6 178/2/6 180/2/6
f 179/1/6 180/1/6 181/1/6
f 181/1/6 180/1/6 182/1/6
f 181/2/6 182/2/6 183/2/6
f 183/2/6 182/2/6 184/2/6
f 183/1/6 184/1/6 185/1/6
f 185/1/6 184/1/6 186/1/6
f 187/1/6 188/1/6 189/1/6
f 189/1/6 188/1/6 190/1/6
f 189/2/6 190/2/6 191/2/6
f 191/2/6 190/2/6 192/2/6
f 191/1/6 192/1/6 193/1/6
f 193/1/6 192/1/6 194/1/6
f 195/1/6 196/1/6 197/1/6
f 197/1/6 196/1/6 198/1/6
f 197/2/6 198/2/6 199/2/6
f 199/2/6 198/2/6 200/2/6
f 199/1/6 200/1/6 201/1/6
f 201/1/6 200/1/6 202/1/6
f 203/2/6 204/2/6 205/2/6
f 205/2/6 204/2/6 206/2/6
f 205/1/6 206/1/6 207/1/6
f 207/1/6 206/1/6 208/1/6
f 207/2/6 208/2/6 209/2/6
f 209/2/6 208/2/6 210/2/6
