# MagicaVoxel @ Ephtracy

# group
o 

# material
mtllib YellowHouseParts-41.mtl
usemtl palette

# normals
vn -1 0 0
vn 1 0 0
vn 0 0 1
vn 0 0 -1
vn 0 -1 0
vn 0 1 0

# texcoords
vt 0.259766 0.5
vt 0.791016 0.5

# verts
v -0.2 1.3 1.1
v -0.2 1.3 1
v -0.2 1.4 1.1
v -0.2 1.4 1
v -0.0999999 1.1 1.1
v -0.0999999 1.1 1
v -0.0999999 1.2 1.1
v -0.0999999 1.2 1
v -0.0999999 1.3 1.1
v -0.0999999 1.3 1
v -0.0999999 1.4 1.1
v -0.0999999 1.4 1
v -0.0999999 1.5 1.1
v -0.0999999 1.5 1
v 5.96046e-008 1.5 1.1
v 5.96046e-008 1.5 1
v 5.96046e-008 1.6 1.1
v 5.96046e-008 1.6 1
v 5.96046e-008 1.7 1.1
v 5.96046e-008 1.7 1
v 0.1 1.7 1.1
v 0.1 1.7 1
v 0.1 1.8 1.1
v 0.1 1.8 1
v 5.96046e-008 1.1 1.1
v 5.96046e-008 1.1 1
v 5.96046e-008 1.2 1.1
v 5.96046e-008 1.2 1
v 0.1 1.2 1.1
v 0.1 1.2 1
v 0.1 1.3 1.1
v 0.1 1.3 1
v 0.2 1.3 1.1
v 0.2 1.3 1
v 0.2 1.4 1.1
v 0.2 1.4 1
v 0.2 1.5 1.1
v 0.2 1.5 1
v 0.2 1.6 1.1
v 0.2 1.6 1
v 0.2 1.7 1.1
v 0.2 1.7 1
v 0.2 1.8 1.1
v 0.2 1.8 1
v -0.2 1.3 1.1
v -0.2 1.4 1.1
v -0.0999999 1.1 1.1
v -0.0999999 1.2 1.1
v -0.0999999 1.3 1.1
v -0.0999999 1.4 1.1
v -0.0999999 1.5 1.1
v 5.96046e-008 1.1 1.1
v 5.96046e-008 1.2 1.1
v 5.96046e-008 1.5 1.1
v 5.96046e-008 1.6 1.1
v 5.96046e-008 1.7 1.1
v 0.1 1.2 1.1
v 0.1 1.3 1.1
v 0.1 1.7 1.1
v 0.1 1.8 1.1
v 0.2 1.3 1.1
v 0.2 1.4 1.1
v 0.2 1.5 1.1
v 0.2 1.6 1.1
v 0.2 1.7 1.1
v 0.2 1.8 1.1
v -0.2 1.3 1
v -0.2 1.4 1
v -0.0999999 1.1 1
v -0.0999999 1.2 1
v -0.0999999 1.3 1
v -0.0999999 1.4 1
v -0.0999999 1.5 1
v 5.96046e-008 1.1 1
v 5.96046e-008 1.2 1
v 5.96046e-008 1.5 1
v 5.96046e-008 1.6 1
v 5.96046e-008 1.7 1
v 0.1 1.2 1
v 0.1 1.3 1
v 0.1 1.7 1
v 0.1 1.8 1
v 0.2 1.3 1
v 0.2 1.4 1
v 0.2 1.5 1
v 0.2 1.6 1
v 0.2 1.7 1
v 0.2 1.8 1
v -0.0999999 1.1 1.1
v 5.96046e-008 1.1 1.1
v -0.0999999 1.1 1
v 5.96046e-008 1.1 1
v 5.96046e-008 1.2 1.1
v 0.1 1.2 1.1
v 5.96046e-008 1.2 1
v 0.1 1.2 1
v -0.2 1.3 1.1
v -0.0999999 1.3 1.1
v 0.1 1.3 1.1
v 0.2 1.3 1.1
v -0.2 1.3 1
v -0.0999999 1.3 1
v 0.1 1.3 1
v 0.2 1.3 1
v -0.2 1.4 1.1
v -0.0999999 1.4 1.1
v -0.2 1.4 1
v -0.0999999 1.4 1
v -0.0999999 1.5 1.1
v 5.96046e-008 1.5 1.1
v -0.0999999 1.5 1
v 5.96046e-008 1.5 1
v 5.96046e-008 1.7 1.1
v 0.1 1.7 1.1
v 5.96046e-008 1.7 1
v 0.1 1.7 1
v 0.1 1.8 1.1
v 0.2 1.8 1.1
v 0.1 1.8 1
v 0.2 1.8 1

# faces
f 3/1/1 2/1/1 1/1/1
f 4/1/1 2/1/1 3/1/1
f 7/1/1 6/1/1 5/1/1
f 8/1/1 6/1/1 7/1/1
f 9/2/1 8/2/1 7/2/1
f 10/2/1 8/2/1 9/2/1
f 13/2/1 12/2/1 11/2/1
f 14/2/1 12/2/1 13/2/1
f 17/1/1 16/1/1 15/1/1
f 18/1/1 16/1/1 17/1/1
f 19/2/1 18/2/1 17/2/1
f 20/2/1 18/2/1 19/2/1
f 23/1/1 22/1/1 21/1/1
f 24/1/1 22/1/1 23/1/1
f 25/1/2 26/1/2 27/1/2
f 27/1/2 26/1/2 28/1/2
f 29/2/2 30/2/2 31/2/2
f 31/2/2 30/2/2 32/2/2
f 33/1/2 34/1/2 35/1/2
f 35/1/2 34/1/2 36/1/2
f 35/2/2 36/2/2 37/2/2
f 37/2/2 36/2/2 38/2/2
f 37/1/2 38/1/2 39/1/2
f 39/1/2 38/1/2 40/1/2
f 39/2/2 40/2/2 41/2/2
f 41/2/2 40/2/2 42/2/2
f 41/1/2 42/1/2 43/1/2
f 43/1/2 42/1/2 44/1/2
f 49/1/3 46/1/3 45/1/3
f 50/1/3 46/1/3 49/1/3
f 52/1/3 48/1/3 47/1/3
f 53/2/3 49/2/3 48/2/3
f 53/1/3 48/1/3 52/1/3
f 54/2/3 51/2/3 50/2/3
f 57/2/3 49/2/3 53/2/3
f 58/1/3 50/1/3 49/1/3
f 58/2/3 49/2/3 57/2/3
f 59/2/3 56/2/3 55/2/3
f 61/1/3 50/1/3 58/1/3
f 62/2/3 54/2/3 50/2/3
f 62/1/3 50/1/3 61/1/3
f 63/1/3 55/1/3 54/1/3
f 63/2/3 54/2/3 62/2/3
f 64/2/3 59/2/3 55/2/3
f 64/1/3 55/1/3 63/1/3
f 65/1/3 60/1/3 59/1/3
f 65/2/3 59/2/3 64/2/3
f 66/1/3 60/1/3 65/1/3
f 67/1/4 68/1/4 71/1/4
f 71/1/4 68/1/4 72/1/4
f 69/1/4 70/1/4 74/1/4
f 70/2/4 71/2/4 75/2/4
f 74/1/4 70/1/4 75/1/4
f 72/2/4 73/2/4 76/2/4
f 75/2/4 71/2/4 79/2/4
f 71/1/4 72/1/4 80/1/4
f 79/2/4 71/2/4 80/2/4
f 77/2/4 78/2/4 81/2/4
f 80/1/4 72/1/4 83/1/4
f 72/2/4 76/2/4 84/2/4
f 83/1/4 72/1/4 84/1/4
f 76/1/4 77/1/4 85/1/4
f 84/2/4 76/2/4 85/2/4
f 77/2/4 81/2/4 86/2/4
f 85/1/4 77/1/4 86/1/4
f 81/1/4 82/1/4 87/1/4
f 86/2/4 81/2/4 87/2/4
f 87/1/4 82/1/4 88/1/4
f 91/1/5 90/1/5 89/1/5
f 92/1/5 90/1/5 91/1/5
f 95/2/5 94/2/5 93/2/5
f 96/2/5 94/2/5 95/2/5
f 101/1/5 98/1/5 97/1/5
f 102/1/5 98/1/5 101/1/5
f 103/1/5 100/1/5 99/1/5
f 104/1/5 100/1/5 103/1/5
f 105/1/6 106/1/6 107/1/6
f 107/1/6 106/1/6 108/1/6
f 109/2/6 110/2/6 111/2/6
f 111/2/6 110/2/6 112/2/6
f 113/2/6 114/2/6 115/2/6
f 115/2/6 114/2/6 116/2/6
f 117/1/6 118/1/6 119/1/6
f 119/1/6 118/1/6 120/1/6
