# MagicaVoxel @ Ephtracy

# group
o 

# material
mtllib YellowHouseParts-101.mtl
usemtl palette

# normals
vn -1 0 0
vn 1 0 0
vn 0 0 1
vn 0 0 -1
vn 0 -1 0
vn 0 1 0

# texcoords
vt 0.189453 0.5
vt 0.193359 0.5

# verts
v -0.4 2.8 -0.3
v -0.4 2.8 -0.4
v -0.4 2.8 -0.5
v -0.4 2.9 -0.3
v -0.4 2.9 -0.4
v -0.4 2.9 -0.5
v -0.3 2.9 -0.2
v -0.3 2.9 -0.3
v -0.3 2.9 -0.4
v -0.3 2.9 -0.5
v -0.3 2.9 -0.6
v -0.3 3 -0.2
v -0.3 3 -0.3
v -0.3 3 -0.4
v -0.3 3 -0.5
v -0.3 3 -0.6
v -0.2 3 -0.2
v -0.2 3 -0.3
v -0.2 3 -0.4
v -0.2 3 -0.5
v -0.2 3 -0.6
v -0.2 3 -0.7
v -0.2 3 -0.8
v -0.2 3 -0.9
v -0.2 3.1 -0.2
v -0.2 3.1 -0.3
v -0.2 3.1 -0.4
v -0.2 3.1 -0.5
v -0.2 3.1 -0.6
v -0.2 3.1 -0.7
v -0.2 3.1 -0.8
v -0.2 3.1 -0.9
v -0.1 3.1 -0.2
v -0.1 3.1 -0.3
v -0.1 3.1 -0.4
v -0.1 3.1 -0.5
v -0.1 3.1 -0.6
v -0.1 3.1 -0.7
v -0.1 3.1 -0.8
v -0.1 3.1 -0.9
v -0.1 3.2 -0.2
v -0.1 3.2 -0.3
v -0.1 3.2 -0.4
v -0.1 3.2 -0.5
v -0.1 3.2 -0.6
v -0.1 3.2 -0.7
v -0.1 3.2 -0.8
v -0.1 3.2 -0.9
v -0.3 2.8 -0.3
v -0.3 2.8 -0.4
v -0.3 2.8 -0.5
v -0.3 2.9 -0.3
v -0.3 2.9 -0.4
v -0.3 2.9 -0.5
v -0.2 2.9 -0.2
v -0.2 2.9 -0.3
v -0.2 2.9 -0.4
v -0.2 2.9 -0.5
v -0.2 2.9 -0.6
v -0.2 3 -0.2
v -0.2 3 -0.3
v -0.2 3 -0.4
v -0.2 3 -0.5
v -0.2 3 -0.6
v -0.1 3 -0.2
v -0.1 3 -0.3
v -0.1 3 -0.4
v -0.1 3 -0.5
v -0.1 3 -0.6
v -0.1 3 -0.7
v -0.1 3 -0.8
v -0.1 3 -0.9
v -0.1 3.1 -0.2
v -0.1 3.1 -0.3
v -0.1 3.1 -0.4
v -0.1 3.1 -0.5
v -0.1 3.1 -0.6
v -0.1 3.1 -0.7
v -0.1 3.1 -0.8
v -0.1 3.1 -0.9
v 0 3.1 -0.2
v 0 3.1 -0.3
v 0 3.1 -0.4
v 0 3.1 -0.5
v 0 3.1 -0.6
v 0 3.1 -0.7
v 0 3.1 -0.8
v 0 3.1 -0.9
v 0 3.2 -0.2
v 0 3.2 -0.3
v 0 3.2 -0.4
v 0 3.2 -0.5
v 0 3.2 -0.6
v 0 3.2 -0.7
v 0 3.2 -0.8
v 0 3.2 -0.9
v -0.3 2.9 -0.2
v -0.3 3 -0.2
v -0.2 2.9 -0.2
v -0.2 3 -0.2
v -0.2 3.1 -0.2
v -0.1 3 -0.2
v -0.1 3.1 -0.2
v -0.1 3.2 -0.2
v 0 3.1 -0.2
v 0 3.2 -0.2
v -0.4 2.8 -0.3
v -0.4 2.9 -0.3
v -0.3 2.8 -0.3
v -0.3 2.9 -0.3
v -0.4 2.8 -0.5
v -0.4 2.9 -0.5
v -0.3 2.8 -0.5
v -0.3 2.9 -0.5
v -0.3 2.9 -0.6
v -0.3 3 -0.6
v -0.2 2.9 -0.6
v -0.2 3 -0.6
v -0.2 3 -0.9
v -0.2 3.1 -0.9
v -0.1 3 -0.9
v -0.1 3.1 -0.9
v -0.1 3.2 -0.9
v 0 3.1 -0.9
v 0 3.2 -0.9
v -0.4 2.8 -0.3
v -0.3 2.8 -0.3
v -0.4 2.8 -0.4
v -0.3 2.8 -0.4
v -0.4 2.8 -0.5
v -0.3 2.8 -0.5
v -0.3 2.9 -0.2
v -0.2 2.9 -0.2
v -0.3 2.9 -0.3
v -0.2 2.9 -0.3
v -0.3 2.9 -0.4
v -0.2 2.9 -0.4
v -0.3 2.9 -0.5
v -0.2 2.9 -0.5
v -0.3 2.9 -0.6
v -0.2 2.9 -0.6
v -0.2 3 -0.2
v -0.1 3 -0.2
v -0.2 3 -0.3
v -0.1 3 -0.3
v -0.2 3 -0.4
v -0.1 3 -0.4
v -0.2 3 -0.5
v -0.1 3 -0.5
v -0.2 3 -0.6
v -0.1 3 -0.6
v -0.2 3 -0.7
v -0.1 3 -0.7
v -0.2 3 -0.8
v -0.1 3 -0.8
v -0.2 3 -0.9
v -0.1 3 -0.9
v -0.1 3.1 -0.2
v 0 3.1 -0.2
v -0.1 3.1 -0.3
v 0 3.1 -0.3
v -0.1 3.1 -0.4
v 0 3.1 -0.4
v -0.1 3.1 -0.5
v 0 3.1 -0.5
v -0.1 3.1 -0.6
v 0 3.1 -0.6
v -0.1 3.1 -0.7
v 0 3.1 -0.7
v -0.1 3.1 -0.8
v 0 3.1 -0.8
v -0.1 3.1 -0.9
v 0 3.1 -0.9
v -0.4 2.9 -0.3
v -0.3 2.9 -0.3
v -0.4 2.9 -0.4
v -0.3 2.9 -0.4
v -0.4 2.9 -0.5
v -0.3 2.9 -0.5
v -0.3 3 -0.2
v -0.2 3 -0.2
v -0.3 3 -0.3
v -0.2 3 -0.3
v -0.3 3 -0.4
v -0.2 3 -0.4
v -0.3 3 -0.5
v -0.2 3 -0.5
v -0.3 3 -0.6
v -0.2 3 -0.6
v -0.2 3.1 -0.2
v -0.1 3.1 -0.2
v -0.2 3.1 -0.3
v -0.1 3.1 -0.3
v -0.2 3.1 -0.4
v -0.1 3.1 -0.4
v -0.2 3.1 -0.5
v -0.1 3.1 -0.5
v -0.2 3.1 -0.6
v -0.1 3.1 -0.6
v -0.2 3.1 -0.7
v -0.1 3.1 -0.7
v -0.2 3.1 -0.8
v -0.1 3.1 -0.8
v -0.2 3.1 -0.9
v -0.1 3.1 -0.9
v -0.1 3.2 -0.2
v 0 3.2 -0.2
v -0.1 3.2 -0.3
v 0 3.2 -0.3
v -0.1 3.2 -0.4
v 0 3.2 -0.4
v -0.1 3.2 -0.5
v 0 3.2 -0.5
v -0.1 3.2 -0.6
v 0 3.2 -0.6
v -0.1 3.2 -0.7
v 0 3.2 -0.7
v -0.1 3.2 -0.8
v 0 3.2 -0.8
v -0.1 3.2 -0.9
v 0 3.2 -0.9

# faces
f 4/2/1 2/2/1 1/2/1
f 5/1/1 3/1/1 2/1/1
f 5/2/1 2/2/1 4/2/1
f 6/1/1 3/1/1 5/1/1
f 12/2/1 8/2/1 7/2/1
f 13/1/1 9/1/1 8/1/1
f 13/2/1 8/2/1 12/2/1
f 14/2/1 10/2/1 9/2/1
f 14/1/1 9/1/1 13/1/1
f 15/1/1 11/1/1 10/1/1
f 15/2/1 10/2/1 14/2/1
f 16/1/1 11/1/1 15/1/1
f 25/1/1 18/1/1 17/1/1
f 26/2/1 19/2/1 18/2/1
f 26/1/1 18/1/1 25/1/1
f 27/1/1 20/1/1 19/1/1
f 27/2/1 19/2/1 26/2/1
f 28/2/1 21/2/1 20/2/1
f 28/1/1 20/1/1 27/1/1
f 29/1/1 22/1/1 21/1/1
f 29/2/1 21/2/1 28/2/1
f 30/2/1 23/2/1 22/2/1
f 30/1/1 22/1/1 29/1/1
f 31/1/1 24/1/1 23/1/1
f 31/2/1 23/2/1 30/2/1
f 32/1/1 24/1/1 31/1/1
f 41/2/1 34/2/1 33/2/1
f 42/1/1 35/1/1 34/1/1
f 42/2/1 34/2/1 41/2/1
f 43/2/1 36/2/1 35/2/1
f 43/1/1 35/1/1 42/1/1
f 44/1/1 37/1/1 36/1/1
f 44/2/1 36/2/1 43/2/1
f 45/2/1 38/2/1 37/2/1
f 45/1/1 37/1/1 44/1/1
f 46/1/1 39/1/1 38/1/1
f 46/2/1 38/2/1 45/2/1
f 47/2/1 40/2/1 39/2/1
f 47/1/1 39/1/1 46/1/1
f 48/2/1 40/2/1 47/2/1
f 49/2/2 50/2/2 52/2/2
f 50/1/2 51/1/2 53/1/2
f 52/2/2 50/2/2 53/2/2
f 53/1/2 51/1/2 54/1/2
f 55/2/2 56/2/2 60/2/2
f 56/1/2 57/1/2 61/1/2
f 60/2/2 56/2/2 61/2/2
f 57/2/2 58/2/2 62/2/2
f 61/1/2 57/1/2 62/1/2
f 58/1/2 59/1/2 63/1/2
f 62/2/2 58/2/2 63/2/2
f 63/1/2 59/1/2 64/1/2
f 65/1/2 66/1/2 73/1/2
f 66/2/2 67/2/2 74/2/2
f 73/1/2 66/1/2 74/1/2
f 67/1/2 68/1/2 75/1/2
f 74/2/2 67/2/2 75/2/2
f 68/2/2 69/2/2 76/2/2
f 75/1/2 68/1/2 76/1/2
f 69/1/2 70/1/2 77/1/2
f 76/2/2 69/2/2 77/2/2
f 70/2/2 71/2/2 78/2/2
f 77/1/2 70/1/2 78/1/2
f 71/1/2 72/1/2 79/1/2
f 78/2/2 71/2/2 79/2/2
f 79/1/2 72/1/2 80/1/2
f 81/2/2 82/2/2 89/2/2
f 82/1/2 83/1/2 90/1/2
f 89/2/2 82/2/2 90/2/2
f 83/2/2 84/2/2 91/2/2
f 90/1/2 83/1/2 91/1/2
f 84/1/2 85/1/2 92/1/2
f 91/2/2 84/2/2 92/2/2
f 85/2/2 86/2/2 93/2/2
f 92/1/2 85/1/2 93/1/2
f 86/1/2 87/1/2 94/1/2
f 93/2/2 86/2/2 94/2/2
f 87/2/2 88/2/2 95/2/2
f 94/1/2 87/1/2 95/1/2
f 95/2/2 88/2/2 96/2/2
f 99/2/3 98/2/3 97/2/3
f 100/2/3 98/2/3 99/2/3
f 102/1/3 101/1/3 100/1/3
f 103/1/3 101/1/3 102/1/3
f 105/2/3 104/2/3 103/2/3
f 106/2/3 104/2/3 105/2/3
f 109/2/3 108/2/3 107/2/3
f 110/2/3 108/2/3 109/2/3
f 111/1/4 112/1/4 113/1/4
f 113/1/4 112/1/4 114/1/4
f 115/1/4 116/1/4 117/1/4
f 117/1/4 116/1/4 118/1/4
f 119/1/4 120/1/4 121/1/4
f 121/1/4 120/1/4 122/1/4
f 122/2/4 123/2/4 124/2/4
f 124/2/4 123/2/4 125/2/4
f 128/2/5 127/2/5 126/2/5
f 129/2/5 127/2/5 128/2/5
f 130/1/5 129/1/5 128/1/5
f 131/1/5 129/1/5 130/1/5
f 134/2/5 133/2/5 132/2/5
f 135/2/5 133/2/5 134/2/5
f 136/1/5 135/1/5 134/1/5
f 137/1/5 135/1/5 136/1/5
f 138/2/5 137/2/5 136/2/5
f 139/2/5 137/2/5 138/2/5
f 140/1/5 139/1/5 138/1/5
f 141/1/5 139/1/5 140/1/5
f 144/1/5 143/1/5 142/1/5
f 145/1/5 143/1/5 144/1/5
f 146/2/5 145/2/5 144/2/5
f 147/2/5 145/2/5 146/2/5
f 148/1/5 147/1/5 146/1/5
f 149/1/5 147/1/5 148/1/5
f 150/2/5 149/2/5 148/2/5
f 151/2/5 149/2/5 150/2/5
f 152/1/5 151/1/5 150/1/5
f 153/1/5 151/1/5 152/1/5
f 154/2/5 153/2/5 152/2/5
f 155/2/5 153/2/5 154/2/5
f 156/1/5 155/1/5 154/1/5
f 157/1/5 155/1/5 156/1/5
f 160/2/5 159/2/5 158/2/5
f 161/2/5 159/2/5 160/2/5
f 162/1/5 161/1/5 160/1/5
f 163/1/5 161/1/5 162/1/5
f 164/2/5 163/2/5 162/2/5
f 165/2/5 163/2/5 164/2/5
f 166/1/5 165/1/5 164/1/5
f 167/1/5 165/1/5 166/1/5
f 168/2/5 167/2/5 166/2/5
f 169/2/5 167/2/5 168/2/5
f 170/1/5 169/1/5 168/1/5
f 171/1/5 169/1/5 170/1/5
f 172/2/5 171/2/5 170/2/5
f 173/2/5 171/2/5 172/2/5
f 174/2/6 175/2/6 176/2/6
f 176/2/6 175/2/6 177/2/6
f 176/1/6 177/1/6 178/1/6
f 178/1/6 177/1/6 179/1/6
f 180/2/6 181/2/6 182/2/6
f 182/2/6 181/2/6 183/2/6
f 182/1/6 183/1/6 184/1/6
f 184/1/6 183/1/6 185/1/6
f 184/2/6 185/2/6 186/2/6
f 186/2/6 185/2/6 187/2/6
f 186/1/6 187/1/6 188/1/6
f 188/1/6 187/1/6 189/1/6
f 190/1/6 191/1/6 192/1/6
f 192/1/6 191/1/6 193/1/6
f 192/2/6 193/2/6 194/2/6
f 194/2/6 193/2/6 195/2/6
f 194/1/6 195/1/6 196/1/6
f 196/1/6 195/1/6 197/1/6
f 196/2/6 197/2/6 198/2/6
f 198/2/6 197/2/6 199/2/6
f 198/1/6 199/1/6 200/1/6
f 200/1/6 199/1/6 201/1/6
f 200/2/6 201/2/6 202/2/6
f 202/2/6 201/2/6 203/2/6
f 202/1/6 203/1/6 204/1/6
f 204/1/6 203/1/6 205/1/6
f 206/2/6 207/2/6 208/2/6
f 208/2/6 207/2/6 209/2/6
f 208/1/6 209/1/6 210/1/6
f 210/1/6 209/1/6 211/1/6
f 210/2/6 211/2/6 212/2/6
f 212/2/6 211/2/6 213/2/6
f 212/1/6 213/1/6 214/1/6
f 214/1/6 213/1/6 215/1/6
f 214/2/6 215/2/6 216/2/6
f 216/2/6 215/2/6 217/2/6
f 216/1/6 217/1/6 218/1/6
f 218/1/6 217/1/6 219/1/6
f 218/2/6 219/2/6 220/2/6
f 220/2/6 219/2/6 221/2/6
