# MagicaVoxel @ Ephtracy

# group
o 

# material
mtllib YellowHouseParts-57.mtl
usemtl palette

# normals
vn -1 0 0
vn 1 0 0
vn 0 0 1
vn 0 0 -1
vn 0 -1 0
vn 0 1 0

# texcoords
vt 0.439453 0.5
vt 0.509766 0.5
vt 0.513672 0.5
vt 0.544922 0.5
vt 0.791016 0.5

# verts
v -0.2 0.2 -1.2
v -0.2 0.2 -1.3
v -0.2 0.3 -1.2
v -0.2 0.3 -1.3
v -0.0999999 0.2 -1.1
v -0.0999999 0.2 -1.2
v -0.0999999 0.3 -1.1
v -0.0999999 0.3 -1.2
v -0.0999999 0.3 -1.3
v -0.0999999 0.3 -1.4
v -0.0999999 0.4 -1.1
v -0.0999999 0.4 -1.2
v -0.0999999 0.4 -1.4
v -0.0999999 0.5 -1.1
v -0.0999999 0.5 -1.2
v -0.0999999 0.6 -1.1
v -0.0999999 0.6 -1.2
v -0.0999999 0.7 -1.1
v -0.0999999 0.7 -1.2
v -0.0999999 0.8 -1.1
v -0.0999999 0.8 -1.2
v -0.0999999 0.9 -1.1
v -0.0999999 0.9 -1.2
v -0.0999999 1 -1.1
v -0.0999999 1 -1.2
v -0.0999999 1.1 -1.1
v -0.0999999 1.1 -1.2
v -0.0999999 1.2 -1.1
v -0.0999999 1.2 -1.2
v 5.96046e-008 0.2 -1
v 5.96046e-008 0.2 -1.1
v 5.96046e-008 0.3 -1
v 5.96046e-008 0.3 -1.1
v -0.0999999 0.2 -1.2
v -0.0999999 0.2 -1.3
v -0.0999999 0.3 -1.2
v -0.0999999 0.3 -1.3
v 5.96046e-008 0.2 -1.1
v 5.96046e-008 0.2 -1.2
v 5.96046e-008 0.3 -1.1
v 5.96046e-008 0.3 -1.2
v 5.96046e-008 0.3 -1.3
v 5.96046e-008 0.3 -1.4
v 5.96046e-008 0.4 -1.1
v 5.96046e-008 0.4 -1.2
v 5.96046e-008 0.4 -1.3
v 5.96046e-008 0.4 -1.4
v 5.96046e-008 0.5 -1.1
v 5.96046e-008 0.5 -1.2
v 5.96046e-008 0.6 -1.1
v 5.96046e-008 0.6 -1.2
v 5.96046e-008 0.7 -1.1
v 5.96046e-008 0.7 -1.2
v 5.96046e-008 0.8 -1.1
v 5.96046e-008 0.8 -1.2
v 5.96046e-008 0.9 -1.1
v 5.96046e-008 0.9 -1.2
v 5.96046e-008 1 -1.1
v 5.96046e-008 1 -1.2
v 5.96046e-008 1.1 -1.1
v 5.96046e-008 1.1 -1.2
v 5.96046e-008 1.2 -1.1
v 5.96046e-008 1.2 -1.2
v 0.1 0.2 -1
v 0.1 0.2 -1.1
v 0.1 0.3 -1
v 0.1 0.3 -1.1
v 0.1 0.3 -1.2
v 0.1 0.3 -1.3
v 0.1 0.4 -1.2
v 0.1 0.4 -1.3
v 5.96046e-008 0.2 -1
v 5.96046e-008 0.3 -1
v 0.1 0.2 -1
v 0.1 0.3 -1
v -0.0999999 0.2 -1.1
v -0.0999999 0.3 -1.1
v -0.0999999 0.4 -1.1
v -0.0999999 0.5 -1.1
v -0.0999999 0.6 -1.1
v -0.0999999 0.7 -1.1
v -0.0999999 0.8 -1.1
v -0.0999999 0.9 -1.1
v -0.0999999 1 -1.1
v -0.0999999 1.1 -1.1
v -0.0999999 1.2 -1.1
v 5.96046e-008 0.2 -1.1
v 5.96046e-008 0.3 -1.1
v 5.96046e-008 0.4 -1.1
v 5.96046e-008 0.5 -1.1
v 5.96046e-008 0.6 -1.1
v 5.96046e-008 0.7 -1.1
v 5.96046e-008 0.8 -1.1
v 5.96046e-008 0.9 -1.1
v 5.96046e-008 1 -1.1
v 5.96046e-008 1.1 -1.1
v 5.96046e-008 1.2 -1.1
v -0.2 0.2 -1.2
v -0.2 0.3 -1.2
v -0.0999999 0.2 -1.2
v -0.0999999 0.3 -1.2
v -0.0999999 0.4 -1.2
v 5.96046e-008 0.3 -1.2
v 5.96046e-008 0.4 -1.2
v 0.1 0.3 -1.2
v 0.1 0.4 -1.2
v 5.96046e-008 0.2 -1.1
v 5.96046e-008 0.3 -1.1
v 0.1 0.2 -1.1
v 0.1 0.3 -1.1
v -0.0999999 0.2 -1.2
v -0.0999999 0.3 -1.2
v -0.0999999 0.4 -1.2
v -0.0999999 0.5 -1.2
v -0.0999999 0.6 -1.2
v -0.0999999 0.7 -1.2
v -0.0999999 0.8 -1.2
v -0.0999999 0.9 -1.2
v -0.0999999 1 -1.2
v -0.0999999 1.1 -1.2
v -0.0999999 1.2 -1.2
v 5.96046e-008 0.2 -1.2
v 5.96046e-008 0.3 -1.2
v 5.96046e-008 0.4 -1.2
v 5.96046e-008 0.5 -1.2
v 5.96046e-008 0.6 -1.2
v 5.96046e-008 0.7 -1.2
v 5.96046e-008 0.8 -1.2
v 5.96046e-008 0.9 -1.2
v 5.96046e-008 1 -1.2
v 5.96046e-008 1.1 -1.2
v 5.96046e-008 1.2 -1.2
v -0.2 0.2 -1.3
v -0.2 0.3 -1.3
v -0.0999999 0.2 -1.3
v -0.0999999 0.3 -1.3
v 5.96046e-008 0.3 -1.3
v 5.96046e-008 0.4 -1.3
v 0.1 0.3 -1.3
v 0.1 0.4 -1.3
v -0.0999999 0.3 -1.4
v -0.0999999 0.4 -1.4
v 5.96046e-008 0.3 -1.4
v 5.96046e-008 0.4 -1.4
v 5.96046e-008 0.2 -1
v 0.1 0.2 -1
v -0.0999999 0.2 -1.1
v 5.96046e-008 0.2 -1.1
v 0.1 0.2 -1.1
v -0.2 0.2 -1.2
v -0.0999999 0.2 -1.2
v 5.96046e-008 0.2 -1.2
v -0.2 0.2 -1.3
v -0.0999999 0.2 -1.3
v -0.0999999 0.3 -1.2
v 5.96046e-008 0.3 -1.2
v 0.1 0.3 -1.2
v -0.0999999 0.3 -1.3
v 5.96046e-008 0.3 -1.3
v 0.1 0.3 -1.3
v -0.0999999 0.3 -1.4
v 5.96046e-008 0.3 -1.4
v -0.0999999 0.4 -1.1
v 5.96046e-008 0.4 -1.1
v -0.0999999 0.4 -1.2
v 5.96046e-008 0.4 -1.2
v 5.96046e-008 0.3 -1
v 0.1 0.3 -1
v -0.0999999 0.3 -1.1
v 5.96046e-008 0.3 -1.1
v 0.1 0.3 -1.1
v -0.2 0.3 -1.2
v -0.0999999 0.3 -1.2
v 5.96046e-008 0.3 -1.2
v -0.2 0.3 -1.3
v -0.0999999 0.3 -1.3
v -0.0999999 0.4 -1.2
v 5.96046e-008 0.4 -1.2
v 0.1 0.4 -1.2
v 5.96046e-008 0.4 -1.3
v 0.1 0.4 -1.3
v -0.0999999 0.4 -1.4
v 5.96046e-008 0.4 -1.4
v -0.0999999 1.2 -1.1
v 5.96046e-008 1.2 -1.1
v -0.0999999 1.2 -1.2
v 5.96046e-008 1.2 -1.2

# faces
f 3/1/1 2/1/1 1/1/1
f 4/1/1 2/1/1 3/1/1
f 7/1/1 6/1/1 5/1/1
f 8/1/1 6/1/1 7/1/1
f 12/4/1 10/4/1 9/4/1
f 12/4/1 9/4/1 8/4/1
f 13/4/1 10/4/1 12/4/1
f 14/5/1 12/5/1 11/5/1
f 15/5/1 12/5/1 14/5/1
f 16/1/1 15/1/1 14/1/1
f 17/1/1 15/1/1 16/1/1
f 18/3/1 17/3/1 16/3/1
f 19/3/1 17/3/1 18/3/1
f 20/2/1 19/2/1 18/2/1
f 21/2/1 19/2/1 20/2/1
f 22/3/1 21/3/1 20/3/1
f 23/3/1 21/3/1 22/3/1
f 24/2/1 23/2/1 22/2/1
f 25/2/1 23/2/1 24/2/1
f 26/3/1 25/3/1 24/3/1
f 27/3/1 25/3/1 26/3/1
f 28/2/1 27/2/1 26/2/1
f 29/2/1 27/2/1 28/2/1
f 32/1/1 31/1/1 30/1/1
f 33/1/1 31/1/1 32/1/1
f 34/1/2 35/1/2 36/1/2
f 36/1/2 35/1/2 37/1/2
f 38/1/2 39/1/2 40/1/2
f 40/1/2 39/1/2 41/1/2
f 42/4/2 43/4/2 46/4/2
f 46/4/2 43/4/2 47/4/2
f 44/5/2 45/5/2 48/5/2
f 48/5/2 45/5/2 49/5/2
f 48/1/2 49/1/2 50/1/2
f 50/1/2 49/1/2 51/1/2
f 50/3/2 51/3/2 52/3/2
f 52/3/2 51/3/2 53/3/2
f 52/2/2 53/2/2 54/2/2
f 54/2/2 53/2/2 55/2/2
f 54/3/2 55/3/2 56/3/2
f 56/3/2 55/3/2 57/3/2
f 56/2/2 57/2/2 58/2/2
f 58/2/2 57/2/2 59/2/2
f 58/3/2 59/3/2 60/3/2
f 60/3/2 59/3/2 61/3/2
f 60/2/2 61/2/2 62/2/2
f 62/2/2 61/2/2 63/2/2
f 64/1/2 65/1/2 66/1/2
f 66/1/2 65/1/2 67/1/2
f 68/4/2 69/4/2 70/4/2
f 70/4/2 69/4/2 71/4/2
f 74/1/3 73/1/3 72/1/3
f 75/1/3 73/1/3 74/1/3
f 87/1/3 77/1/3 76/1/3
f 88/1/3 77/1/3 87/1/3
f 89/5/3 79/5/3 78/5/3
f 90/1/3 80/1/3 79/1/3
f 90/5/3 79/5/3 89/5/3
f 91/3/3 81/3/3 80/3/3
f 91/1/3 80/1/3 90/1/3
f 92/2/3 82/2/3 81/2/3
f 92/3/3 81/3/3 91/3/3
f 93/3/3 83/3/3 82/3/3
f 93/2/3 82/2/3 92/2/3
f 94/2/3 84/2/3 83/2/3
f 94/3/3 83/3/3 93/3/3
f 95/3/3 85/3/3 84/3/3
f 95/2/3 84/2/3 94/2/3
f 96/2/3 86/2/3 85/2/3
f 96/3/3 85/3/3 95/3/3
f 97/2/3 86/2/3 96/2/3
f 100/1/3 99/1/3 98/1/3
f 101/1/3 99/1/3 100/1/3
f 103/4/3 102/4/3 101/4/3
f 104/4/3 102/4/3 103/4/3
f 105/4/3 104/4/3 103/4/3
f 106/4/3 104/4/3 105/4/3
f 107/1/4 108/1/4 109/1/4
f 109/1/4 108/1/4 110/1/4
f 111/1/4 112/1/4 122/1/4
f 122/1/4 112/1/4 123/1/4
f 113/5/4 114/5/4 124/5/4
f 114/1/4 115/1/4 125/1/4
f 124/5/4 114/5/4 125/5/4
f 115/3/4 116/3/4 126/3/4
f 125/1/4 115/1/4 126/1/4
f 116/2/4 117/2/4 127/2/4
f 126/3/4 116/3/4 127/3/4
f 117/3/4 118/3/4 128/3/4
f 127/2/4 117/2/4 128/2/4
f 118/2/4 119/2/4 129/2/4
f 128/3/4 118/3/4 129/3/4
f 119/3/4 120/3/4 130/3/4
f 129/2/4 119/2/4 130/2/4
f 120/2/4 121/2/4 131/2/4
f 130/3/4 120/3/4 131/3/4
f 131/2/4 121/2/4 132/2/4
f 133/1/4 134/1/4 135/1/4
f 135/1/4 134/1/4 136/1/4
f 137/4/4 138/4/4 139/4/4
f 139/4/4 138/4/4 140/4/4
f 141/4/4 142/4/4 143/4/4
f 143/4/4 142/4/4 144/4/4
f 148/1/5 146/1/5 145/1/5
f 149/1/5 146/1/5 148/1/5
f 151/1/5 148/1/5 147/1/5
f 152/1/5 148/1/5 151/1/5
f 153/1/5 151/1/5 150/1/5
f 154/1/5 151/1/5 153/1/5
f 158/4/5 156/4/5 155/4/5
f 158/4/5 157/4/5 156/4/5
f 159/4/5 157/4/5 158/4/5
f 160/4/5 157/4/5 159/4/5
f 161/4/5 159/4/5 158/4/5
f 162/4/5 159/4/5 161/4/5
f 165/5/5 164/5/5 163/5/5
f 166/5/5 164/5/5 165/5/5
f 167/1/6 168/1/6 170/1/6
f 170/1/6 168/1/6 171/1/6
f 169/1/6 170/1/6 173/1/6
f 173/1/6 170/1/6 174/1/6
f 172/1/6 173/1/6 175/1/6
f 175/1/6 173/1/6 176/1/6
f 177/4/6 178/4/6 180/4/6
f 178/4/6 179/4/6 180/4/6
f 180/4/6 179/4/6 181/4/6
f 177/4/6 180/4/6 182/4/6
f 182/4/6 180/4/6 183/4/6
f 184/2/6 185/2/6 186/2/6
f 186/2/6 185/2/6 187/2/6
