# MagicaVoxel @ Ephtracy

# group
o 

# material
mtllib YellowHouseParts-20.mtl
usemtl palette

# normals
vn -1 0 0
vn 1 0 0
vn 0 0 1
vn 0 0 -1
vn 0 -1 0
vn 0 1 0

# texcoords
vt 0.259766 0.5
vt 0.791016 0.5

# verts
v 0.8 0 -0.3
v 0.8 0 -1
v 0.8 0.1 -0.3
v 0.8 0.1 -0.5
v 0.8 0.1 -1
v 0.8 0.2 -0.5
v 0.8 0.2 -0.6
v 0.8 0.2 -1
v 0.8 0.3 -0.6
v 0.8 0.3 -0.8
v 0.8 0.3 -1
v 0.8 0.4 -0.6
v 0.8 0.4 -0.7
v 0.8 0.4 -0.8
v 0.8 0.5 -0.6
v 0.8 0.5 -0.7
v 0.9 0 -0.3
v 0.9 0 -1
v 0.9 0.1 -0.3
v 0.9 0.1 -0.5
v 0.9 0.1 -1
v 0.9 0.2 -0.5
v 0.9 0.2 -0.6
v 0.9 0.2 -1
v 0.9 0.3 -0.6
v 0.9 0.3 -0.8
v 0.9 0.3 -1
v 0.9 0.4 -0.6
v 0.9 0.4 -0.7
v 0.9 0.4 -0.8
v 0.9 0.5 -0.6
v 0.9 0.5 -0.7
v 0.8 0 -0.3
v 0.8 0.1 -0.3
v 0.9 0 -0.3
v 0.9 0.1 -0.3
v 0.8 0.1 -0.5
v 0.8 0.2 -0.5
v 0.9 0.1 -0.5
v 0.9 0.2 -0.5
v 0.8 0.2 -0.6
v 0.8 0.3 -0.6
v 0.8 0.4 -0.6
v 0.8 0.5 -0.6
v 0.9 0.2 -0.6
v 0.9 0.3 -0.6
v 0.9 0.4 -0.6
v 0.9 0.5 -0.6
v 0.8 0.4 -0.7
v 0.8 0.5 -0.7
v 0.9 0.4 -0.7
v 0.9 0.5 -0.7
v 0.8 0.3 -0.8
v 0.8 0.4 -0.8
v 0.9 0.3 -0.8
v 0.9 0.4 -0.8
v 0.8 0 -1
v 0.8 0.1 -1
v 0.8 0.2 -1
v 0.8 0.3 -1
v 0.9 0 -1
v 0.9 0.1 -1
v 0.9 0.2 -1
v 0.9 0.3 -1
v 0.8 0 -0.3
v 0.9 0 -0.3
v 0.8 0 -1
v 0.9 0 -1
v 0.8 0.1 -0.3
v 0.9 0.1 -0.3
v 0.8 0.1 -0.5
v 0.9 0.1 -0.5
v 0.8 0.2 -0.5
v 0.9 0.2 -0.5
v 0.8 0.2 -0.6
v 0.9 0.2 -0.6
v 0.8 0.3 -0.8
v 0.9 0.3 -0.8
v 0.8 0.3 -1
v 0.9 0.3 -1
v 0.8 0.4 -0.7
v 0.9 0.4 -0.7
v 0.8 0.4 -0.8
v 0.9 0.4 -0.8
v 0.8 0.5 -0.6
v 0.9 0.5 -0.6
v 0.8 0.5 -0.7
v 0.9 0.5 -0.7

# faces
f 3/2/1 2/2/1 1/2/1
f 4/2/1 2/2/1 3/2/1
f 5/2/1 2/2/1 4/2/1
f 6/1/1 5/1/1 4/1/1
f 7/1/1 5/1/1 6/1/1
f 8/1/1 5/1/1 7/1/1
f 9/2/1 8/2/1 7/2/1
f 10/2/1 8/2/1 9/2/1
f 11/2/1 8/2/1 10/2/1
f 12/1/1 10/1/1 9/1/1
f 13/1/1 10/1/1 12/1/1
f 14/1/1 10/1/1 13/1/1
f 15/2/1 13/2/1 12/2/1
f 16/2/1 13/2/1 15/2/1
f 17/2/2 18/2/2 19/2/2
f 19/2/2 18/2/2 20/2/2
f 20/2/2 18/2/2 21/2/2
f 20/1/2 21/1/2 22/1/2
f 22/1/2 21/1/2 23/1/2
f 23/1/2 21/1/2 24/1/2
f 23/2/2 24/2/2 25/2/2
f 25/2/2 24/2/2 26/2/2
f 26/2/2 24/2/2 27/2/2
f 25/1/2 26/1/2 28/1/2
f 28/1/2 26/1/2 29/1/2
f 29/1/2 26/1/2 30/1/2
f 28/2/2 29/2/2 31/2/2
f 31/2/2 29/2/2 32/2/2
f 35/2/3 34/2/3 33/2/3
f 36/2/3 34/2/3 35/2/3
f 39/1/3 38/1/3 37/1/3
f 40/1/3 38/1/3 39/1/3
f 45/2/3 42/2/3 41/2/3
f 46/1/3 43/1/3 42/1/3
f 46/2/3 42/2/3 45/2/3
f 47/2/3 44/2/3 43/2/3
f 47/1/3 43/1/3 46/1/3
f 48/2/3 44/2/3 47/2/3
f 49/2/4 50/2/4 51/2/4
f 51/2/4 50/2/4 52/2/4
f 53/1/4 54/1/4 55/1/4
f 55/1/4 54/1/4 56/1/4
f 57/2/4 58/2/4 61/2/4
f 58/1/4 59/1/4 62/1/4
f 61/2/4 58/2/4 62/2/4
f 59/2/4 60/2/4 63/2/4
f 62/1/4 59/1/4 63/1/4
f 63/2/4 60/2/4 64/2/4
f 67/2/5 66/2/5 65/2/5
f 68/2/5 66/2/5 67/2/5
f 69/2/6 70/2/6 71/2/6
f 71/2/6 70/2/6 72/2/6
f 73/1/6 74/1/6 75/1/6
f 75/1/6 74/1/6 76/1/6
f 77/2/6 78/2/6 79/2/6
f 79/2/6 78/2/6 80/2/6
f 81/1/6 82/1/6 83/1/6
f 83/1/6 82/1/6 84/1/6
f 85/2/6 86/2/6 87/2/6
f 87/2/6 86/2/6 88/2/6
