# MagicaVoxel @ Ephtracy

# group
o 

# material
mtllib YellowHouseParts-71.mtl
usemtl palette

# normals
vn -1 0 0
vn 1 0 0
vn 0 0 1
vn 0 0 -1
vn 0 -1 0
vn 0 1 0

# texcoords
vt 0.439453 0.5
vt 0.509766 0.5
vt 0.513672 0.5

# verts
v -0.9 1.7 -1
v -0.9 1.7 -1.1
v -0.9 2.1 -1.1
v -0.9 2.1 -1.3
v -0.9 2.2 -1
v -0.9 2.2 -1.3
v -0.8 1.6 -1.1
v -0.8 1.6 -1.2
v -0.8 1.7 -1.1
v -0.8 1.7 -1.2
v -0.8 1.8 -1.1
v -0.8 1.8 -1.2
v -0.8 1.9 -1.1
v -0.8 1.9 -1.2
v -0.8 2 -1.1
v -0.8 2 -1.2
v -0.8 2.1 -1.1
v -0.8 2.1 -1.2
v -0.8 1.7 -1
v -0.8 1.7 -1.1
v -0.8 1.8 -1.1
v -0.8 1.9 -1.1
v -0.8 2 -1.1
v -0.8 2.1 -1.1
v -0.8 2.1 -1.2
v -0.8 2.1 -1.3
v -0.8 2.2 -1
v -0.8 2.2 -1.3
v -0.7 1.6 -1.1
v -0.7 1.6 -1.2
v -0.7 1.7 -1.1
v -0.7 1.7 -1.2
v -0.7 1.8 -1.1
v -0.7 1.8 -1.2
v -0.7 1.9 -1.1
v -0.7 1.9 -1.2
v -0.7 2 -1.1
v -0.7 2 -1.2
v -0.7 2.1 -1.1
v -0.7 2.1 -1.2
v -0.9 1.7 -1
v -0.9 2.2 -1
v -0.8 1.7 -1
v -0.8 2.2 -1
v -0.8 1.6 -1.1
v -0.8 1.7 -1.1
v -0.8 1.8 -1.1
v -0.8 1.9 -1.1
v -0.8 2 -1.1
v -0.8 2.1 -1.1
v -0.7 1.6 -1.1
v -0.7 1.7 -1.1
v -0.7 1.8 -1.1
v -0.7 1.9 -1.1
v -0.7 2 -1.1
v -0.7 2.1 -1.1
v -0.9 1.7 -1.1
v -0.9 2.1 -1.1
v -0.8 1.7 -1.1
v -0.8 1.8 -1.1
v -0.8 1.9 -1.1
v -0.8 2 -1.1
v -0.8 2.1 -1.1
v -0.8 1.6 -1.2
v -0.8 1.7 -1.2
v -0.8 1.8 -1.2
v -0.8 1.9 -1.2
v -0.8 2 -1.2
v -0.8 2.1 -1.2
v -0.7 1.6 -1.2
v -0.7 1.7 -1.2
v -0.7 1.8 -1.2
v -0.7 1.9 -1.2
v -0.7 2 -1.2
v -0.7 2.1 -1.2
v -0.9 2.1 -1.3
v -0.9 2.2 -1.3
v -0.8 2.1 -1.3
v -0.8 2.2 -1.3
v -0.8 1.6 -1.1
v -0.7 1.6 -1.1
v -0.8 1.6 -1.2
v -0.7 1.6 -1.2
v -0.9 1.7 -1
v -0.8 1.7 -1
v -0.9 1.7 -1.1
v -0.8 1.7 -1.1
v -0.9 2.1 -1.1
v -0.8 2.1 -1.1
v -0.8 2.1 -1.2
v -0.9 2.1 -1.3
v -0.8 2.1 -1.3
v -0.8 2.1 -1.1
v -0.7 2.1 -1.1
v -0.8 2.1 -1.2
v -0.7 2.1 -1.2
v -0.9 2.2 -1
v -0.8 2.2 -1
v -0.9 2.2 -1.3
v -0.8 2.2 -1.3

# faces
f 3/1/1 2/1/1 1/1/1
f 5/1/1 3/1/1 1/1/1
f 5/1/1 4/1/1 3/1/1
f 6/1/1 4/1/1 5/1/1
f 9/2/1 8/2/1 7/2/1
f 10/2/1 8/2/1 9/2/1
f 11/3/1 10/3/1 9/3/1
f 12/3/1 10/3/1 11/3/1
f 13/2/1 12/2/1 11/2/1
f 14/2/1 12/2/1 13/2/1
f 15/3/1 14/3/1 13/3/1
f 16/3/1 14/3/1 15/3/1
f 17/2/1 16/2/1 15/2/1
f 18/2/1 16/2/1 17/2/1
f 19/1/2 20/1/2 21/1/2
f 19/1/2 21/1/2 22/1/2
f 19/1/2 22/1/2 23/1/2
f 19/1/2 23/1/2 24/1/2
f 19/1/2 24/1/2 27/1/2
f 25/1/2 26/1/2 27/1/2
f 24/1/2 25/1/2 27/1/2
f 27/1/2 26/1/2 28/1/2
f 29/2/2 30/2/2 31/2/2
f 31/2/2 30/2/2 32/2/2
f 31/3/2 32/3/2 33/3/2
f 33/3/2 32/3/2 34/3/2
f 33/2/2 34/2/2 35/2/2
f 35/2/2 34/2/2 36/2/2
f 35/3/2 36/3/2 37/3/2
f 37/3/2 36/3/2 38/3/2
f 37/2/2 38/2/2 39/2/2
f 39/2/2 38/2/2 40/2/2
f 43/1/3 42/1/3 41/1/3
f 44/1/3 42/1/3 43/1/3
f 51/2/3 46/2/3 45/2/3
f 52/3/3 47/3/3 46/3/3
f 52/2/3 46/2/3 51/2/3
f 53/2/3 48/2/3 47/2/3
f 53/3/3 47/3/3 52/3/3
f 54/3/3 49/3/3 48/3/3
f 54/2/3 48/2/3 53/2/3
f 55/2/3 50/2/3 49/2/3
f 55/3/3 49/3/3 54/3/3
f 56/2/3 50/2/3 55/2/3
f 57/1/4 58/1/4 59/1/4
f 59/1/4 58/1/4 60/1/4
f 60/1/4 58/1/4 61/1/4
f 61/1/4 58/1/4 62/1/4
f 62/1/4 58/1/4 63/1/4
f 64/2/4 65/2/4 70/2/4
f 65/3/4 66/3/4 71/3/4
f 70/2/4 65/2/4 71/2/4
f 66/2/4 67/2/4 72/2/4
f 71/3/4 66/3/4 72/3/4
f 67/3/4 68/3/4 73/3/4
f 72/2/4 67/2/4 73/2/4
f 68/2/4 69/2/4 74/2/4
f 73/3/4 68/3/4 74/3/4
f 74/2/4 69/2/4 75/2/4
f 76/1/4 77/1/4 78/1/4
f 78/1/4 77/1/4 79/1/4
f 82/2/5 81/2/5 80/2/5
f 83/2/5 81/2/5 82/2/5
f 86/1/5 85/1/5 84/1/5
f 87/1/5 85/1/5 86/1/5
f 90/1/5 89/1/5 88/1/5
f 91/1/5 90/1/5 88/1/5
f 92/1/5 90/1/5 91/1/5
f 93/2/6 94/2/6 95/2/6
f 95/2/6 94/2/6 96/2/6
f 97/1/6 98/1/6 99/1/6
f 99/1/6 98/1/6 100/1/6
