# MagicaVoxel @ Ephtracy

# group
o 

# material
mtllib YellowHouseParts-90.mtl
usemtl palette

# normals
vn -1 0 0
vn 1 0 0
vn 0 0 1
vn 0 0 -1
vn 0 -1 0
vn 0 1 0

# texcoords
vt 0.189453 0.5
vt 0.193359 0.5

# verts
v 0.1 3 -0.4
v 0.1 3 -0.5
v 0.1 3 -0.6
v 0.1 3 -0.7
v 0.1 3 -0.8
v 0.1 3 -0.9
v 0.1 3.1 -0.4
v 0.1 3.1 -0.5
v 0.1 3.1 -0.6
v 0.1 3.1 -0.7
v 0.1 3.1 -0.8
v 0.1 3.1 -0.9
v 0.2 2.9 -0.6
v 0.2 2.9 -0.7
v 0.2 2.9 -0.8
v 0.2 2.9 -0.9
v 0.2 2.9 -1
v 0.2 3 -0.6
v 0.2 3 -0.7
v 0.2 3 -0.8
v 0.2 3 -0.9
v 0.2 3 -1
v 0.3 2.8 -0.5
v 0.3 2.8 -0.6
v 0.3 2.8 -0.7
v 0.3 2.8 -0.8
v 0.3 2.8 -0.9
v 0.3 2.8 -1
v 0.3 2.8 -1.1
v 0.3 2.9 -0.5
v 0.3 2.9 -0.6
v 0.3 2.9 -0.7
v 0.3 2.9 -0.8
v 0.3 2.9 -0.9
v 0.3 2.9 -1
v 0.3 2.9 -1.1
v 0.4 2.7 -0.4
v 0.4 2.7 -0.5
v 0.4 2.7 -0.6
v 0.4 2.7 -0.7
v 0.4 2.7 -0.8
v 0.4 2.7 -0.9
v 0.4 2.7 -1
v 0.4 2.7 -1.1
v 0.4 2.7 -1.2
v 0.4 2.8 -0.4
v 0.4 2.8 -0.5
v 0.4 2.8 -0.6
v 0.4 2.8 -0.7
v 0.4 2.8 -0.8
v 0.4 2.8 -0.9
v 0.4 2.8 -1
v 0.4 2.8 -1.1
v 0.4 2.8 -1.2
v 0.5 2.6 -0.4
v 0.5 2.6 -0.5
v 0.5 2.6 -0.6
v 0.5 2.7 -0.4
v 0.5 2.7 -0.5
v 0.5 2.7 -0.6
v 0.2 3 -0.4
v 0.2 3 -0.5
v 0.2 3 -0.6
v 0.2 3 -0.7
v 0.2 3 -0.8
v 0.2 3 -0.9
v 0.2 3.1 -0.4
v 0.2 3.1 -0.5
v 0.2 3.1 -0.6
v 0.2 3.1 -0.7
v 0.2 3.1 -0.8
v 0.2 3.1 -0.9
v 0.3 2.9 -0.6
v 0.3 2.9 -0.7
v 0.3 2.9 -0.8
v 0.3 2.9 -0.9
v 0.3 2.9 -1
v 0.3 3 -0.6
v 0.3 3 -0.7
v 0.3 3 -0.8
v 0.3 3 -0.9
v 0.3 3 -1
v 0.4 2.8 -0.5
v 0.4 2.8 -0.6
v 0.4 2.8 -0.7
v 0.4 2.8 -0.8
v 0.4 2.8 -0.9
v 0.4 2.8 -1
v 0.4 2.8 -1.1
v 0.4 2.9 -0.5
v 0.4 2.9 -0.6
v 0.4 2.9 -0.7
v 0.4 2.9 -0.8
v 0.4 2.9 -0.9
v 0.4 2.9 -1
v 0.4 2.9 -1.1
v 0.5 2.7 -0.4
v 0.5 2.7 -0.5
v 0.5 2.7 -0.6
v 0.5 2.7 -0.7
v 0.5 2.7 -0.8
v 0.5 2.7 -0.9
v 0.5 2.7 -1
v 0.5 2.7 -1.1
v 0.5 2.7 -1.2
v 0.5 2.8 -0.4
v 0.5 2.8 -0.5
v 0.5 2.8 -0.6
v 0.5 2.8 -0.7
v 0.5 2.8 -0.8
v 0.5 2.8 -0.9
v 0.5 2.8 -1
v 0.5 2.8 -1.1
v 0.5 2.8 -1.2
v 0.6 2.6 -0.4
v 0.6 2.6 -0.5
v 0.6 2.6 -0.6
v 0.6 2.7 -0.4
v 0.6 2.7 -0.5
v 0.6 2.7 -0.6
v 0.1 3 -0.4
v 0.1 3.1 -0.4
v 0.2 3 -0.4
v 0.2 3.1 -0.4
v 0.4 2.7 -0.4
v 0.4 2.8 -0.4
v 0.5 2.6 -0.4
v 0.5 2.7 -0.4
v 0.5 2.8 -0.4
v 0.6 2.6 -0.4
v 0.6 2.7 -0.4
v 0.3 2.8 -0.5
v 0.3 2.9 -0.5
v 0.4 2.8 -0.5
v 0.4 2.9 -0.5
v 0.2 2.9 -0.6
v 0.2 3 -0.6
v 0.3 2.9 -0.6
v 0.3 3 -0.6
v 0.5 2.6 -0.6
v 0.5 2.7 -0.6
v 0.6 2.6 -0.6
v 0.6 2.7 -0.6
v 0.1 3 -0.9
v 0.1 3.1 -0.9
v 0.2 3 -0.9
v 0.2 3.1 -0.9
v 0.2 2.9 -1
v 0.2 3 -1
v 0.3 2.9 -1
v 0.3 3 -1
v 0.3 2.8 -1.1
v 0.3 2.9 -1.1
v 0.4 2.8 -1.1
v 0.4 2.9 -1.1
v 0.4 2.7 -1.2
v 0.4 2.8 -1.2
v 0.5 2.7 -1.2
v 0.5 2.8 -1.2
v 0.5 2.6 -0.4
v 0.6 2.6 -0.4
v 0.5 2.6 -0.5
v 0.6 2.6 -0.5
v 0.5 2.6 -0.6
v 0.6 2.6 -0.6
v 0.4 2.7 -0.4
v 0.5 2.7 -0.4
v 0.4 2.7 -0.5
v 0.5 2.7 -0.5
v 0.4 2.7 -0.6
v 0.5 2.7 -0.6
v 0.4 2.7 -0.7
v 0.5 2.7 -0.7
v 0.4 2.7 -0.8
v 0.5 2.7 -0.8
v 0.4 2.7 -0.9
v 0.5 2.7 -0.9
v 0.4 2.7 -1
v 0.5 2.7 -1
v 0.4 2.7 -1.1
v 0.5 2.7 -1.1
v 0.4 2.7 -1.2
v 0.5 2.7 -1.2
v 0.3 2.8 -0.5
v 0.4 2.8 -0.5
v 0.3 2.8 -0.6
v 0.4 2.8 -0.6
v 0.3 2.8 -0.7
v 0.4 2.8 -0.7
v 0.3 2.8 -0.8
v 0.4 2.8 -0.8
v 0.3 2.8 -0.9
v 0.4 2.8 -0.9
v 0.3 2.8 -1
v 0.4 2.8 -1
v 0.3 2.8 -1.1
v 0.4 2.8 -1.1
v 0.2 2.9 -0.6
v 0.3 2.9 -0.6
v 0.2 2.9 -0.7
v 0.3 2.9 -0.7
v 0.2 2.9 -0.8
v 0.3 2.9 -0.8
v 0.2 2.9 -0.9
v 0.3 2.9 -0.9
v 0.2 2.9 -1
v 0.3 2.9 -1
v 0.1 3 -0.4
v 0.2 3 -0.4
v 0.1 3 -0.5
v 0.2 3 -0.5
v 0.1 3 -0.6
v 0.2 3 -0.6
v 0.1 3 -0.7
v 0.2 3 -0.7
v 0.1 3 -0.8
v 0.2 3 -0.8
v 0.1 3 -0.9
v 0.2 3 -0.9
v 0.5 2.7 -0.4
v 0.6 2.7 -0.4
v 0.5 2.7 -0.5
v 0.6 2.7 -0.5
v 0.5 2.7 -0.6
v 0.6 2.7 -0.6
v 0.4 2.8 -0.4
v 0.5 2.8 -0.4
v 0.4 2.8 -0.5
v 0.5 2.8 -0.5
v 0.4 2.8 -0.6
v 0.5 2.8 -0.6
v 0.4 2.8 -0.7
v 0.5 2.8 -0.7
v 0.4 2.8 -0.8
v 0.5 2.8 -0.8
v 0.4 2.8 -0.9
v 0.5 2.8 -0.9
v 0.4 2.8 -1
v 0.5 2.8 -1
v 0.4 2.8 -1.1
v 0.5 2.8 -1.1
v 0.4 2.8 -1.2
v 0.5 2.8 -1.2
v 0.3 2.9 -0.5
v 0.4 2.9 -0.5
v 0.3 2.9 -0.6
v 0.4 2.9 -0.6
v 0.3 2.9 -0.7
v 0.4 2.9 -0.7
v 0.3 2.9 -0.8
v 0.4 2.9 -0.8
v 0.3 2.9 -0.9
v 0.4 2.9 -0.9
v 0.3 2.9 -1
v 0.4 2.9 -1
v 0.3 2.9 -1.1
v 0.4 2.9 -1.1
v 0.2 3 -0.6
v 0.3 3 -0.6
v 0.2 3 -0.7
v 0.3 3 -0.7
v 0.2 3 -0.8
v 0.3 3 -0.8
v 0.2 3 -0.9
v 0.3 3 -0.9
v 0.2 3 -1
v 0.3 3 -1
v 0.1 3.1 -0.4
v 0.2 3.1 -0.4
v 0.1 3.1 -0.5
v 0.2 3.1 -0.5
v 0.1 3.1 -0.6
v 0.2 3.1 -0.6
v 0.1 3.1 -0.7
v 0.2 3.1 -0.7
v 0.1 3.1 -0.8
v 0.2 3.1 -0.8
v 0.1 3.1 -0.9
v 0.2 3.1 -0.9

# faces
f 7/2/1 2/2/1 1/2/1
f 8/1/1 3/1/1 2/1/1
f 8/2/1 2/2/1 7/2/1
f 9/2/1 4/2/1 3/2/1
f 9/1/1 3/1/1 8/1/1
f 10/1/1 5/1/1 4/1/1
f 10/2/1 4/2/1 9/2/1
f 11/2/1 6/2/1 5/2/1
f 11/1/1 5/1/1 10/1/1
f 12/2/1 6/2/1 11/2/1
f 18/1/1 14/1/1 13/1/1
f 19/2/1 15/2/1 14/2/1
f 19/1/1 14/1/1 18/1/1
f 20/1/1 16/1/1 15/1/1
f 20/2/1 15/2/1 19/2/1
f 21/2/1 17/2/1 16/2/1
f 21/1/1 16/1/1 20/1/1
f 22/2/1 17/2/1 21/2/1
f 30/1/1 24/1/1 23/1/1
f 31/2/1 25/2/1 24/2/1
f 31/1/1 24/1/1 30/1/1
f 32/1/1 26/1/1 25/1/1
f 32/2/1 25/2/1 31/2/1
f 33/2/1 27/2/1 26/2/1
f 33/1/1 26/1/1 32/1/1
f 34/1/1 28/1/1 27/1/1
f 34/2/1 27/2/1 33/2/1
f 35/2/1 29/2/1 28/2/1
f 35/1/1 28/1/1 34/1/1
f 36/2/1 29/2/1 35/2/1
f 46/1/1 38/1/1 37/1/1
f 47/2/1 39/2/1 38/2/1
f 47/1/1 38/1/1 46/1/1
f 48/1/1 40/1/1 39/1/1
f 48/2/1 39/2/1 47/2/1
f 49/2/1 41/2/1 40/2/1
f 49/1/1 40/1/1 48/1/1
f 50/1/1 42/1/1 41/1/1
f 50/2/1 41/2/1 49/2/1
f 51/2/1 43/2/1 42/2/1
f 51/1/1 42/1/1 50/1/1
f 52/1/1 44/1/1 43/1/1
f 52/2/1 43/2/1 51/2/1
f 53/2/1 45/2/1 44/2/1
f 53/1/1 44/1/1 52/1/1
f 54/2/1 45/2/1 53/2/1
f 58/2/1 56/2/1 55/2/1
f 59/1/1 57/1/1 56/1/1
f 59/2/1 56/2/1 58/2/1
f 60/1/1 57/1/1 59/1/1
f 61/2/2 62/2/2 67/2/2
f 62/1/2 63/1/2 68/1/2
f 67/2/2 62/2/2 68/2/2
f 63/2/2 64/2/2 69/2/2
f 68/1/2 63/1/2 69/1/2
f 64/1/2 65/1/2 70/1/2
f 69/2/2 64/2/2 70/2/2
f 65/2/2 66/2/2 71/2/2
f 70/1/2 65/1/2 71/1/2
f 71/2/2 66/2/2 72/2/2
f 73/1/2 74/1/2 78/1/2
f 74/2/2 75/2/2 79/2/2
f 78/1/2 74/1/2 79/1/2
f 75/1/2 76/1/2 80/1/2
f 79/2/2 75/2/2 80/2/2
f 76/2/2 77/2/2 81/2/2
f 80/1/2 76/1/2 81/1/2
f 81/2/2 77/2/2 82/2/2
f 83/1/2 84/1/2 90/1/2
f 84/2/2 85/2/2 91/2/2
f 90/1/2 84/1/2 91/1/2
f 85/1/2 86/1/2 92/1/2
f 91/2/2 85/2/2 92/2/2
f 86/2/2 87/2/2 93/2/2
f 92/1/2 86/1/2 93/1/2
f 87/1/2 88/1/2 94/1/2
f 93/2/2 87/2/2 94/2/2
f 88/2/2 89/2/2 95/2/2
f 94/1/2 88/1/2 95/1/2
f 95/2/2 89/2/2 96/2/2
f 97/1/2 98/1/2 106/1/2
f 98/2/2 99/2/2 107/2/2
f 106/1/2 98/1/2 107/1/2
f 99/1/2 100/1/2 108/1/2
f 107/2/2 99/2/2 108/2/2
f 100/2/2 101/2/2 109/2/2
f 108/1/2 100/1/2 109/1/2
f 101/1/2 102/1/2 110/1/2
f 109/2/2 101/2/2 110/2/2
f 102/2/2 103/2/2 111/2/2
f 110/1/2 102/1/2 111/1/2
f 103/1/2 104/1/2 112/1/2
f 111/2/2 103/2/2 112/2/2
f 104/2/2 105/2/2 113/2/2
f 112/1/2 104/1/2 113/1/2
f 113/2/2 105/2/2 114/2/2
f 115/2/2 116/2/2 118/2/2
f 116/1/2 117/1/2 119/1/2
f 118/2/2 116/2/2 119/2/2
f 119/1/2 117/1/2 120/1/2
f 123/2/3 122/2/3 121/2/3
f 124/2/3 122/2/3 123/2/3
f 128/1/3 126/1/3 125/1/3
f 129/1/3 126/1/3 128/1/3
f 130/2/3 128/2/3 127/2/3
f 131/2/3 128/2/3 130/2/3
f 134/1/3 133/1/3 132/1/3
f 135/1/3 133/1/3 134/1/3
f 138/1/3 137/1/3 136/1/3
f 139/1/3 137/1/3 138/1/3
f 140/1/4 141/1/4 142/1/4
f 142/1/4 141/1/4 143/1/4
f 144/2/4 145/2/4 146/2/4
f 146/2/4 145/2/4 147/2/4
f 148/2/4 149/2/4 150/2/4
f 150/2/4 149/2/4 151/2/4
f 152/2/4 153/2/4 154/2/4
f 154/2/4 153/2/4 155/2/4
f 156/2/4 157/2/4 158/2/4
f 158/2/4 157/2/4 159/2/4
f 162/2/5 161/2/5 160/2/5
f 163/2/5 161/2/5 162/2/5
f 164/1/5 163/1/5 162/1/5
f 165/1/5 163/1/5 164/1/5
f 168/1/5 167/1/5 166/1/5
f 169/1/5 167/1/5 168/1/5
f 170/2/5 169/2/5 168/2/5
f 171/2/5 169/2/5 170/2/5
f 172/1/5 171/1/5 170/1/5
f 173/1/5 171/1/5 172/1/5
f 174/2/5 173/2/5 172/2/5
f 175/2/5 173/2/5 174/2/5
f 176/1/5 175/1/5 174/1/5
f 177/1/5 175/1/5 176/1/5
f 178/2/5 177/2/5 176/2/5
f 179/2/5 177/2/5 178/2/5
f 180/1/5 179/1/5 178/1/5
f 181/1/5 179/1/5 180/1/5
f 182/2/5 181/2/5 180/2/5
f 183/2/5 181/2/5 182/2/5
f 186/1/5 185/1/5 184/1/5
f 187/1/5 185/1/5 186/1/5
f 188/2/5 187/2/5 186/2/5
f 189/2/5 187/2/5 188/2/5
f 190/1/5 189/1/5 188/1/5
f 191/1/5 189/1/5 190/1/5
f 192/2/5 191/2/5 190/2/5
f 193/2/5 191/2/5 192/2/5
f 194/1/5 193/1/5 192/1/5
f 195/1/5 193/1/5 194/1/5
f 196/2/5 195/2/5 194/2/5
f 197/2/5 195/2/5 196/2/5
f 200/1/5 199/1/5 198/1/5
f 201/1/5 199/1/5 200/1/5
f 202/2/5 201/2/5 200/2/5
f 203/2/5 201/2/5 202/2/5
f 204/1/5 203/1/5 202/1/5
f 205/1/5 203/1/5 204/1/5
f 206/2/5 205/2/5 204/2/5
f 207/2/5 205/2/5 206/2/5
f 210/2/5 209/2/5 208/2/5
f 211/2/5 209/2/5 210/2/5
f 212/1/5 211/1/5 210/1/5
f 213/1/5 211/1/5 212/1/5
f 214/2/5 213/2/5 212/2/5
f 215/2/5 213/2/5 214/2/5
f 216/1/5 215/1/5 214/1/5
f 217/1/5 215/1/5 216/1/5
f 218/2/5 217/2/5 216/2/5
f 219/2/5 217/2/5 218/2/5
f 220/2/6 221/2/6 222/2/6
f 222/2/6 221/2/6 223/2/6
f 222/1/6 223/1/6 224/1/6
f 224/1/6 223/1/6 225/1/6
f 226/1/6 227/1/6 228/1/6
f 228/1/6 227/1/6 229/1/6
f 228/2/6 229/2/6 230/2/6
f 230/2/6 229/2/6 231/2/6
f 230/1/6 231/1/6 232/1/6
f 232/1/6 231/1/6 233/1/6
f 232/2/6 233/2/6 234/2/6
f 234/2/6 233/2/6 235/2/6
f 234/1/6 235/1/6 236/1/6
f 236/1/6 235/1/6 237/1/6
f 236/2/6 237/2/6 238/2/6
f 238/2/6 237/2/6 239/2/6
f 238/1/6 239/1/6 240/1/6
f 240/1/6 239/1/6 241/1/6
f 240/2/6 241/2/6 242/2/6
f 242/2/6 241/2/6 243/2/6
f 244/1/6 245/1/6 246/1/6
f 246/1/6 245/1/6 247/1/6
f 246/2/6 247/2/6 248/2/6
f 248/2/6 247/2/6 249/2/6
f 248/1/6 249/1/6 250/1/6
f 250/1/6 249/1/6 251/1/6
f 250/2/6 251/2/6 252/2/6
f 252/2/6 251/2/6 253/2/6
f 252/1/6 253/1/6 254/1/6
f 254/1/6 253/1/6 255/1/6
f 254/2/6 255/2/6 256/2/6
f 256/2/6 255/2/6 257/2/6
f 258/1/6 259/1/6 260/1/6
f 260/1/6 259/1/6 261/1/6
f 260/2/6 261/2/6 262/2/6
f 262/2/6 261/2/6 263/2/6
f 262/1/6 263/1/6 264/1/6
f 264/1/6 263/1/6 265/1/6
f 264/2/6 265/2/6 266/2/6
f 266/2/6 265/2/6 267/2/6
f 268/2/6 269/2/6 270/2/6
f 270/2/6 269/2/6 271/2/6
f 270/1/6 271/1/6 272/1/6
f 272/1/6 271/1/6 273/1/6
f 272/2/6 273/2/6 274/2/6
f 274/2/6 273/2/6 275/2/6
f 274/1/6 275/1/6 276/1/6
f 276/1/6 275/1/6 277/1/6
f 276/2/6 277/2/6 278/2/6
f 278/2/6 277/2/6 279/2/6
