# MagicaVoxel @ Ephtracy

# group
o 

# material
mtllib YellowHouseParts-70.mtl
usemtl palette

# normals
vn -1 0 0
vn 1 0 0
vn 0 0 1
vn 0 0 -1
vn 0 -1 0
vn 0 1 0

# texcoords
vt 0.439453 0.5
vt 0.513672 0.5
vt 0.845703 0.5

# verts
v -0.9 1.1 -1
v -0.9 1.1 -1.1
v -0.9 1.2 -1.1
v -0.9 1.2 -1.3
v -0.9 1.3 -1.1
v -0.9 1.3 -1.3
v -0.9 1.7 -1
v -0.9 1.7 -1.1
v -0.8 1.3 -1.1
v -0.8 1.3 -1.2
v -0.8 1.4 -1.1
v -0.8 1.4 -1.2
v -0.8 1.5 -1.1
v -0.8 1.5 -1.2
v -0.8 1.6 -1.1
v -0.8 1.6 -1.2
v -0.8 1.1 -1
v -0.8 1.1 -1.1
v -0.8 1.2 -1.1
v -0.8 1.2 -1.2
v -0.8 1.3 -1.1
v -0.8 1.3 -1.2
v -0.8 1.4 -1.1
v -0.8 1.5 -1.1
v -0.8 1.6 -1.1
v -0.8 1.7 -1
v -0.8 1.7 -1.1
v -0.7 1.3 -1.1
v -0.7 1.3 -1.2
v -0.7 1.4 -1.1
v -0.7 1.4 -1.2
v -0.7 1.5 -1.1
v -0.7 1.5 -1.2
v -0.7 1.6 -1.1
v -0.7 1.6 -1.2
v -0.5 1.2 -1.2
v -0.5 1.2 -1.3
v -0.5 1.3 -1.2
v -0.5 1.3 -1.3
v -0.9 1.1 -1
v -0.9 1.7 -1
v -0.8 1.1 -1
v -0.8 1.7 -1
v -0.8 1.3 -1.1
v -0.8 1.4 -1.1
v -0.8 1.5 -1.1
v -0.8 1.6 -1.1
v -0.7 1.3 -1.1
v -0.7 1.4 -1.1
v -0.7 1.5 -1.1
v -0.7 1.6 -1.1
v -0.8 1.2 -1.2
v -0.8 1.3 -1.2
v -0.7 1.3 -1.2
v -0.5 1.2 -1.2
v -0.5 1.3 -1.2
v -0.9 1.1 -1.1
v -0.9 1.2 -1.1
v -0.9 1.3 -1.1
v -0.9 1.7 -1.1
v -0.8 1.1 -1.1
v -0.8 1.2 -1.1
v -0.8 1.3 -1.1
v -0.8 1.4 -1.1
v -0.8 1.5 -1.1
v -0.8 1.6 -1.1
v -0.8 1.7 -1.1
v -0.8 1.3 -1.2
v -0.8 1.4 -1.2
v -0.8 1.5 -1.2
v -0.8 1.6 -1.2
v -0.7 1.3 -1.2
v -0.7 1.4 -1.2
v -0.7 1.5 -1.2
v -0.7 1.6 -1.2
v -0.9 1.2 -1.3
v -0.9 1.3 -1.3
v -0.5 1.2 -1.3
v -0.5 1.3 -1.3
v -0.9 1.1 -1
v -0.8 1.1 -1
v -0.9 1.1 -1.1
v -0.8 1.1 -1.1
v -0.9 1.2 -1.1
v -0.8 1.2 -1.1
v -0.8 1.2 -1.2
v -0.5 1.2 -1.2
v -0.9 1.2 -1.3
v -0.5 1.2 -1.3
v -0.8 1.3 -1.1
v -0.7 1.3 -1.1
v -0.8 1.3 -1.2
v -0.7 1.3 -1.2
v -0.9 1.3 -1.1
v -0.8 1.3 -1.1
v -0.8 1.3 -1.2
v -0.7 1.3 -1.2
v -0.5 1.3 -1.2
v -0.9 1.3 -1.3
v -0.5 1.3 -1.3
v -0.8 1.6 -1.1
v -0.7 1.6 -1.1
v -0.8 1.6 -1.2
v -0.7 1.6 -1.2
v -0.9 1.7 -1
v -0.8 1.7 -1
v -0.9 1.7 -1.1
v -0.8 1.7 -1.1

# faces
f 3/1/1 2/1/1 1/1/1
f 5/1/1 3/1/1 1/1/1
f 5/1/1 4/1/1 3/1/1
f 6/1/1 4/1/1 5/1/1
f 7/1/1 5/1/1 1/1/1
f 8/1/1 5/1/1 7/1/1
f 11/3/1 10/3/1 9/3/1
f 12/3/1 10/3/1 11/3/1
f 13/1/1 12/1/1 11/1/1
f 14/1/1 12/1/1 13/1/1
f 15/2/1 14/2/1 13/2/1
f 16/2/1 14/2/1 15/2/1
f 17/1/2 18/1/2 19/1/2
f 17/1/2 19/1/2 21/1/2
f 19/1/2 20/1/2 21/1/2
f 21/1/2 20/1/2 22/1/2
f 17/1/2 21/1/2 23/1/2
f 17/1/2 23/1/2 24/1/2
f 17/1/2 24/1/2 25/1/2
f 17/1/2 25/1/2 26/1/2
f 26/1/2 25/1/2 27/1/2
f 28/3/2 29/3/2 30/3/2
f 30/3/2 29/3/2 31/3/2
f 30/1/2 31/1/2 32/1/2
f 32/1/2 31/1/2 33/1/2
f 32/2/2 33/2/2 34/2/2
f 34/2/2 33/2/2 35/2/2
f 36/1/2 37/1/2 38/1/2
f 38/1/2 37/1/2 39/1/2
f 42/1/3 41/1/3 40/1/3
f 43/1/3 41/1/3 42/1/3
f 48/3/3 45/3/3 44/3/3
f 49/1/3 46/1/3 45/1/3
f 49/3/3 45/3/3 48/3/3
f 50/2/3 47/2/3 46/2/3
f 50/1/3 46/1/3 49/1/3
f 51/2/3 47/2/3 50/2/3
f 54/1/3 53/1/3 52/1/3
f 55/1/3 54/1/3 52/1/3
f 56/1/3 54/1/3 55/1/3
f 57/1/4 58/1/4 61/1/4
f 61/1/4 58/1/4 62/1/4
f 59/1/4 60/1/4 63/1/4
f 63/1/4 60/1/4 64/1/4
f 64/1/4 60/1/4 65/1/4
f 65/1/4 60/1/4 66/1/4
f 66/1/4 60/1/4 67/1/4
f 68/3/4 69/3/4 72/3/4
f 69/1/4 70/1/4 73/1/4
f 72/3/4 69/3/4 73/3/4
f 70/2/4 71/2/4 74/2/4
f 73/1/4 70/1/4 74/1/4
f 74/2/4 71/2/4 75/2/4
f 76/1/4 77/1/4 78/1/4
f 78/1/4 77/1/4 79/1/4
f 82/1/5 81/1/5 80/1/5
f 83/1/5 81/1/5 82/1/5
f 86/1/5 85/1/5 84/1/5
f 88/1/5 86/1/5 84/1/5
f 88/1/5 87/1/5 86/1/5
f 89/1/5 87/1/5 88/1/5
f 92/3/5 91/3/5 90/3/5
f 93/3/5 91/3/5 92/3/5
f 94/1/6 95/1/6 96/1/6
f 94/1/6 96/1/6 99/1/6
f 97/1/6 98/1/6 99/1/6
f 96/1/6 97/1/6 99/1/6
f 99/1/6 98/1/6 100/1/6
f 101/2/6 102/2/6 103/2/6
f 103/2/6 102/2/6 104/2/6
f 105/1/6 106/1/6 107/1/6
f 107/1/6 106/1/6 108/1/6
