# MagicaVoxel @ Ephtracy

# group
o 

# material
mtllib YellowHouseParts-14.mtl
usemtl palette

# normals
vn -1 0 0
vn 1 0 0
vn 0 0 1
vn 0 0 -1
vn 0 -1 0
vn 0 1 0

# texcoords
vt 0.259766 0.5
vt 0.791016 0.5

# verts
v 0.8 1.7 -0.4
v 0.8 1.7 -0.5
v 0.8 1.8 -0.4
v 0.8 1.8 -0.5
v 0.8 1.8 -0.6
v 0.8 1.9 -0.3
v 0.8 1.9 -0.4
v 0.8 1.9 -0.6
v 0.8 1.9 -0.7
v 0.8 2 -0.2
v 0.8 2 -0.3
v 0.8 2 -0.7
v 0.8 2 -0.8
v 0.8 2.1 -0.1
v 0.8 2.1 -0.2
v 0.8 2.1 -0.8
v 0.8 2.1 -1
v 0.8 2.2 -0.1
v 0.8 2.2 -1
v 0.9 1.7 -0.4
v 0.9 1.7 -0.5
v 0.9 1.8 -0.4
v 0.9 1.8 -0.5
v 0.9 1.8 -0.6
v 0.9 1.9 -0.3
v 0.9 1.9 -0.4
v 0.9 1.9 -0.6
v 0.9 1.9 -0.7
v 0.9 2 -0.2
v 0.9 2 -0.3
v 0.9 2 -0.7
v 0.9 2 -0.8
v 0.9 2.1 -0.1
v 0.9 2.1 -0.2
v 0.9 2.1 -0.8
v 0.9 2.1 -1
v 0.9 2.2 -0.1
v 0.9 2.2 -1
v 0.8 2.1 -0.1
v 0.8 2.2 -0.1
v 0.9 2.1 -0.1
v 0.9 2.2 -0.1
v 0.8 2 -0.2
v 0.8 2.1 -0.2
v 0.9 2 -0.2
v 0.9 2.1 -0.2
v 0.8 1.9 -0.3
v 0.8 2 -0.3
v 0.9 1.9 -0.3
v 0.9 2 -0.3
v 0.8 1.7 -0.4
v 0.8 1.8 -0.4
v 0.8 1.9 -0.4
v 0.9 1.7 -0.4
v 0.9 1.8 -0.4
v 0.9 1.9 -0.4
v 0.8 1.7 -0.5
v 0.8 1.8 -0.5
v 0.9 1.7 -0.5
v 0.9 1.8 -0.5
v 0.8 1.8 -0.6
v 0.8 1.9 -0.6
v 0.9 1.8 -0.6
v 0.9 1.9 -0.6
v 0.8 1.9 -0.7
v 0.8 2 -0.7
v 0.9 1.9 -0.7
v 0.9 2 -0.7
v 0.8 2 -0.8
v 0.8 2.1 -0.8
v 0.9 2 -0.8
v 0.9 2.1 -0.8
v 0.8 2.1 -1
v 0.8 2.2 -1
v 0.9 2.1 -1
v 0.9 2.2 -1
v 0.8 1.7 -0.4
v 0.9 1.7 -0.4
v 0.8 1.7 -0.5
v 0.9 1.7 -0.5
v 0.8 1.8 -0.5
v 0.9 1.8 -0.5
v 0.8 1.8 -0.6
v 0.9 1.8 -0.6
v 0.8 1.9 -0.3
v 0.9 1.9 -0.3
v 0.8 1.9 -0.4
v 0.9 1.9 -0.4
v 0.8 1.9 -0.6
v 0.9 1.9 -0.6
v 0.8 1.9 -0.7
v 0.9 1.9 -0.7
v 0.8 2 -0.2
v 0.9 2 -0.2
v 0.8 2 -0.3
v 0.9 2 -0.3
v 0.8 2 -0.7
v 0.9 2 -0.7
v 0.8 2 -0.8
v 0.9 2 -0.8
v 0.8 2.1 -0.1
v 0.9 2.1 -0.1
v 0.8 2.1 -0.2
v 0.9 2.1 -0.2
v 0.8 2.1 -0.8
v 0.9 2.1 -0.8
v 0.8 2.1 -1
v 0.9 2.1 -1
v 0.8 2.2 -0.1
v 0.9 2.2 -0.1
v 0.8 2.2 -1
v 0.9 2.2 -1

# faces
f 3/1/1 2/1/1 1/1/1
f 4/1/1 2/1/1 3/1/1
f 7/2/1 4/2/1 3/2/1
f 7/2/1 5/2/1 4/2/1
f 8/2/1 5/2/1 7/2/1
f 11/1/1 7/1/1 6/1/1
f 11/1/1 9/1/1 8/1/1
f 11/1/1 8/1/1 7/1/1
f 12/1/1 9/1/1 11/1/1
f 15/2/1 11/2/1 10/2/1
f 15/2/1 13/2/1 12/2/1
f 15/2/1 12/2/1 11/2/1
f 16/2/1 13/2/1 15/2/1
f 18/1/1 15/1/1 14/1/1
f 18/1/1 17/1/1 16/1/1
f 18/1/1 16/1/1 15/1/1
f 19/1/1 17/1/1 18/1/1
f 20/1/2 21/1/2 22/1/2
f 22/1/2 21/1/2 23/1/2
f 22/2/2 23/2/2 26/2/2
f 23/2/2 24/2/2 26/2/2
f 26/2/2 24/2/2 27/2/2
f 25/1/2 26/1/2 30/1/2
f 27/1/2 28/1/2 30/1/2
f 26/1/2 27/1/2 30/1/2
f 30/1/2 28/1/2 31/1/2
f 29/2/2 30/2/2 34/2/2
f 31/2/2 32/2/2 34/2/2
f 30/2/2 31/2/2 34/2/2
f 34/2/2 32/2/2 35/2/2
f 33/1/2 34/1/2 37/1/2
f 35/1/2 36/1/2 37/1/2
f 34/1/2 35/1/2 37/1/2
f 37/1/2 36/1/2 38/1/2
f 41/1/3 40/1/3 39/1/3
f 42/1/3 40/1/3 41/1/3
f 45/2/3 44/2/3 43/2/3
f 46/2/3 44/2/3 45/2/3
f 49/1/3 48/1/3 47/1/3
f 50/1/3 48/1/3 49/1/3
f 54/1/3 52/1/3 51/1/3
f 55/2/3 53/2/3 52/2/3
f 55/1/3 52/1/3 54/1/3
f 56/2/3 53/2/3 55/2/3
f 57/1/4 58/1/4 59/1/4
f 59/1/4 58/1/4 60/1/4
f 61/2/4 62/2/4 63/2/4
f 63/2/4 62/2/4 64/2/4
f 65/1/4 66/1/4 67/1/4
f 67/1/4 66/1/4 68/1/4
f 69/2/4 70/2/4 71/2/4
f 71/2/4 70/2/4 72/2/4
f 73/1/4 74/1/4 75/1/4
f 75/1/4 74/1/4 76/1/4
f 79/1/5 78/1/5 77/1/5
f 80/1/5 78/1/5 79/1/5
f 83/2/5 82/2/5 81/2/5
f 84/2/5 82/2/5 83/2/5
f 87/1/5 86/1/5 85/1/5
f 88/1/5 86/1/5 87/1/5
f 91/1/5 90/1/5 89/1/5
f 92/1/5 90/1/5 91/1/5
f 95/2/5 94/2/5 93/2/5
f 96/2/5 94/2/5 95/2/5
f 99/2/5 98/2/5 97/2/5
f 100/2/5 98/2/5 99/2/5
f 103/1/5 102/1/5 101/1/5
f 104/1/5 102/1/5 103/1/5
f 107/1/5 106/1/5 105/1/5
f 108/1/5 106/1/5 107/1/5
f 109/1/6 110/1/6 111/1/6
f 111/1/6 110/1/6 112/1/6
