# MagicaVoxel @ Ephtracy

# group
o 

# material
mtllib YellowHouseParts-17.mtl
usemtl palette

# normals
vn -1 0 0
vn 1 0 0
vn 0 0 1
vn 0 0 -1
vn 0 -1 0
vn 0 1 0

# texcoords
vt 0.259766 0.5
vt 0.791016 0.5

# verts
v 0.8 0.6 0.3
v 0.8 0.6 0
v 0.8 0.7 0.3
v 0.8 0.7 0.2
v 0.8 0.7 0
v 0.8 0.7 -0.1
v 0.8 0.8 0.2
v 0.8 0.8 -0.1
v 0.8 0.9 0.2
v 0.8 0.9 -0.1
v 0.8 0.9 -0.2
v 0.8 1 0.2
v 0.8 1 -0.2
v 0.8 1.1 0.2
v 0.8 1.1 -0.2
v 0.8 1.2 0.4
v 0.8 1.2 0.2
v 0.8 1.2 -0.1
v 0.8 1.2 -0.2
v 0.8 1.3 0.4
v 0.8 1.3 0.2
v 0.8 1.3 -0.1
v 0.8 1.4 0.2
v 0.8 1.4 0
v 0.8 1.4 -0.1
v 0.8 1.5 0.3
v 0.8 1.5 0.2
v 0.8 1.5 0.1
v 0.8 1.5 0
v 0.8 1.6 0.3
v 0.8 1.6 0.1
v 0.9 0.6 0.3
v 0.9 0.6 0
v 0.9 0.7 0.3
v 0.9 0.7 0.2
v 0.9 0.7 0
v 0.9 0.7 -0.1
v 0.9 0.8 0.2
v 0.9 0.8 -0.1
v 0.9 0.9 0.2
v 0.9 0.9 -0.1
v 0.9 0.9 -0.2
v 0.9 1 0.2
v 0.9 1 -0.2
v 0.9 1.1 0.2
v 0.9 1.1 -0.2
v 0.9 1.2 0.4
v 0.9 1.2 0.2
v 0.9 1.2 -0.1
v 0.9 1.2 -0.2
v 0.9 1.3 0.4
v 0.9 1.3 0.2
v 0.9 1.3 -0.1
v 0.9 1.4 0.2
v 0.9 1.4 0
v 0.9 1.4 -0.1
v 0.9 1.5 0.3
v 0.9 1.5 0.2
v 0.9 1.5 0.1
v 0.9 1.5 0
v 0.9 1.6 0.3
v 0.9 1.6 0.1
v 0.8 1.2 0.4
v 0.8 1.3 0.4
v 0.9 1.2 0.4
v 0.9 1.3 0.4
v 0.8 0.6 0.3
v 0.8 0.7 0.3
v 0.8 1.5 0.3
v 0.8 1.6 0.3
v 0.9 0.6 0.3
v 0.9 0.7 0.3
v 0.9 1.5 0.3
v 0.9 1.6 0.3
v 0.8 0.7 0.2
v 0.8 0.8 0.2
v 0.8 0.9 0.2
v 0.8 1 0.2
v 0.8 1.1 0.2
v 0.8 1.2 0.2
v 0.8 1.3 0.2
v 0.8 1.4 0.2
v 0.8 1.5 0.2
v 0.9 0.7 0.2
v 0.9 0.8 0.2
v 0.9 0.9 0.2
v 0.9 1 0.2
v 0.9 1.1 0.2
v 0.9 1.2 0.2
v 0.9 1.3 0.2
v 0.9 1.4 0.2
v 0.9 1.5 0.2
v 0.8 1.5 0.1
v 0.8 1.6 0.1
v 0.9 1.5 0.1
v 0.9 1.6 0.1
v 0.8 0.6 0
v 0.8 0.7 0
v 0.8 1.4 0
v 0.8 1.5 0
v 0.9 0.6 0
v 0.9 0.7 0
v 0.9 1.4 0
v 0.9 1.5 0
v 0.8 0.7 -0.1
v 0.8 0.8 -0.1
v 0.8 0.9 -0.1
v 0.8 1.2 -0.1
v 0.8 1.3 -0.1
v 0.8 1.4 -0.1
v 0.9 0.7 -0.1
v 0.9 0.8 -0.1
v 0.9 0.9 -0.1
v 0.9 1.2 -0.1
v 0.9 1.3 -0.1
v 0.9 1.4 -0.1
v 0.8 0.9 -0.2
v 0.8 1 -0.2
v 0.8 1.1 -0.2
v 0.8 1.2 -0.2
v 0.9 0.9 -0.2
v 0.9 1 -0.2
v 0.9 1.1 -0.2
v 0.9 1.2 -0.2
v 0.8 0.6 0.3
v 0.9 0.6 0.3
v 0.8 0.6 0
v 0.9 0.6 0
v 0.8 0.7 0
v 0.9 0.7 0
v 0.8 0.7 -0.1
v 0.9 0.7 -0.1
v 0.8 0.9 -0.1
v 0.9 0.9 -0.1
v 0.8 0.9 -0.2
v 0.9 0.9 -0.2
v 0.8 1.2 0.4
v 0.9 1.2 0.4
v 0.8 1.2 0.2
v 0.9 1.2 0.2
v 0.8 1.5 0.3
v 0.9 1.5 0.3
v 0.8 1.5 0.2
v 0.9 1.5 0.2
v 0.8 0.7 0.3
v 0.9 0.7 0.3
v 0.8 0.7 0.2
v 0.9 0.7 0.2
v 0.8 1.2 -0.1
v 0.9 1.2 -0.1
v 0.8 1.2 -0.2
v 0.9 1.2 -0.2
v 0.8 1.3 0.4
v 0.9 1.3 0.4
v 0.8 1.3 0.2
v 0.9 1.3 0.2
v 0.8 1.4 0
v 0.9 1.4 0
v 0.8 1.4 -0.1
v 0.9 1.4 -0.1
v 0.8 1.5 0.1
v 0.9 1.5 0.1
v 0.8 1.5 0
v 0.9 1.5 0
v 0.8 1.6 0.3
v 0.9 1.6 0.3
v 0.8 1.6 0.1
v 0.9 1.6 0.1

# faces
f 3/2/1 2/2/1 1/2/1
f 4/2/1 2/2/1 3/2/1
f 5/2/1 2/2/1 4/2/1
f 7/1/1 6/1/1 5/1/1
f 7/1/1 5/1/1 4/1/1
f 8/1/1 6/1/1 7/1/1
f 9/2/1 8/2/1 7/2/1
f 10/2/1 8/2/1 9/2/1
f 12/1/1 10/1/1 9/1/1
f 12/1/1 11/1/1 10/1/1
f 13/1/1 11/1/1 12/1/1
f 14/2/1 13/2/1 12/2/1
f 15/2/1 13/2/1 14/2/1
f 17/1/1 15/1/1 14/1/1
f 18/1/1 15/1/1 17/1/1
f 19/1/1 15/1/1 18/1/1
f 20/2/1 17/2/1 16/2/1
f 20/2/1 18/2/1 17/2/1
f 21/2/1 18/2/1 20/2/1
f 22/2/1 18/2/1 21/2/1
f 23/1/1 22/1/1 21/1/1
f 24/1/1 22/1/1 23/1/1
f 25/1/1 22/1/1 24/1/1
f 27/2/1 24/2/1 23/2/1
f 28/2/1 24/2/1 27/2/1
f 29/2/1 24/2/1 28/2/1
f 30/1/1 27/1/1 26/1/1
f 30/1/1 28/1/1 27/1/1
f 31/1/1 28/1/1 30/1/1
f 32/2/2 33/2/2 34/2/2
f 34/2/2 33/2/2 35/2/2
f 35/2/2 33/2/2 36/2/2
f 36/1/2 37/1/2 38/1/2
f 35/1/2 36/1/2 38/1/2
f 38/1/2 37/1/2 39/1/2
f 38/2/2 39/2/2 40/2/2
f 40/2/2 39/2/2 41/2/2
f 40/1/2 41/1/2 43/1/2
f 41/1/2 42/1/2 43/1/2
f 43/1/2 42/1/2 44/1/2
f 43/2/2 44/2/2 45/2/2
f 45/2/2 44/2/2 46/2/2
f 45/1/2 46/1/2 48/1/2
f 48/1/2 46/1/2 49/1/2
f 49/1/2 46/1/2 50/1/2
f 47/2/2 48/2/2 51/2/2
f 48/2/2 49/2/2 51/2/2
f 51/2/2 49/2/2 52/2/2
f 52/2/2 49/2/2 53/2/2
f 52/1/2 53/1/2 54/1/2
f 54/1/2 53/1/2 55/1/2
f 55/1/2 53/1/2 56/1/2
f 54/2/2 55/2/2 58/2/2
f 58/2/2 55/2/2 59/2/2
f 59/2/2 55/2/2 60/2/2
f 57/1/2 58/1/2 61/1/2
f 58/1/2 59/1/2 61/1/2
f 61/1/2 59/1/2 62/1/2
f 65/2/3 64/2/3 63/2/3
f 66/2/3 64/2/3 65/2/3
f 71/2/3 68/2/3 67/2/3
f 72/2/3 68/2/3 71/2/3
f 73/1/3 70/1/3 69/1/3
f 74/1/3 70/1/3 73/1/3
f 84/1/3 76/1/3 75/1/3
f 85/2/3 77/2/3 76/2/3
f 85/1/3 76/1/3 84/1/3
f 86/1/3 78/1/3 77/1/3
f 86/2/3 77/2/3 85/2/3
f 87/2/3 79/2/3 78/2/3
f 87/1/3 78/1/3 86/1/3
f 88/1/3 80/1/3 79/1/3
f 88/2/3 79/2/3 87/2/3
f 89/1/3 80/1/3 88/1/3
f 90/1/3 82/1/3 81/1/3
f 91/2/3 83/2/3 82/2/3
f 91/1/3 82/1/3 90/1/3
f 92/2/3 83/2/3 91/2/3
f 93/1/4 94/1/4 95/1/4
f 95/1/4 94/1/4 96/1/4
f 97/2/4 98/2/4 101/2/4
f 101/2/4 98/2/4 102/2/4
f 99/2/4 100/2/4 103/2/4
f 103/2/4 100/2/4 104/2/4
f 105/1/4 106/1/4 111/1/4
f 106/2/4 107/2/4 112/2/4
f 111/1/4 106/1/4 112/1/4
f 112/2/4 107/2/4 113/2/4
f 108/2/4 109/2/4 114/2/4
f 109/1/4 110/1/4 115/1/4
f 114/2/4 109/2/4 115/2/4
f 115/1/4 110/1/4 116/1/4
f 117/1/4 118/1/4 121/1/4
f 118/2/4 119/2/4 122/2/4
f 121/1/4 118/1/4 122/1/4
f 119/1/4 120/1/4 123/1/4
f 122/2/4 119/2/4 123/2/4
f 123/1/4 120/1/4 124/1/4
f 127/2/5 126/2/5 125/2/5
f 128/2/5 126/2/5 127/2/5
f 131/1/5 130/1/5 129/1/5
f 132/1/5 130/1/5 131/1/5
f 135/1/5 134/1/5 133/1/5
f 136/1/5 134/1/5 135/1/5
f 139/2/5 138/2/5 137/2/5
f 140/2/5 138/2/5 139/2/5
f 143/1/5 142/1/5 141/1/5
f 144/1/5 142/1/5 143/1/5
f 145/2/6 146/2/6 147/2/6
f 147/2/6 146/2/6 148/2/6
f 149/1/6 150/1/6 151/1/6
f 151/1/6 150/1/6 152/1/6
f 153/2/6 154/2/6 155/2/6
f 155/2/6 154/2/6 156/2/6
f 157/1/6 158/1/6 159/1/6
f 159/1/6 158/1/6 160/1/6
f 161/2/6 162/2/6 163/2/6
f 163/2/6 162/2/6 164/2/6
f 165/1/6 166/1/6 167/1/6
f 167/1/6 166/1/6 168/1/6
