# MagicaVoxel @ Ephtracy

# group
o 

# material
mtllib YellowHouseParts-82.mtl
usemtl palette

# normals
vn -1 0 0
vn 1 0 0
vn 0 0 1
vn 0 0 -1
vn 0 -1 0
vn 0 1 0

# texcoords
vt 0.439453 0.5
vt 0.541016 0.5
vt 0.791016 0.5

# verts
v 0.1 2.2 -1.2
v 0.1 2.2 -1.3
v 0.1 2.3 -1.2
v 0.1 2.3 -1.3
v 0.2 2.3 -1.3
v 0.2 2.3 -1.4
v 0.2 2.4 -1.3
v 0.2 2.4 -1.4
v 0.3 2.3 -1.2
v 0.3 2.3 -1.3
v 0.3 2.4 -1.2
v 0.3 2.4 -1.3
v 0.3 2.4 -1.4
v 0.3 2.5 -1.3
v 0.3 2.5 -1.4
v 0.4 2.3 -1.3
v 0.4 2.3 -1.4
v 0.4 2.4 -1.3
v 0.4 2.4 -1.4
v 0.5 2.3 -1.2
v 0.5 2.3 -1.3
v 0.5 2.4 -1.2
v 0.5 2.4 -1.3
v 0.6 2.1 -1.1
v 0.6 2.1 -1.2
v 0.6 2.1 -1.3
v 0.6 2.2 -1.1
v 0.6 2.2 -1.2
v 0.6 2.2 -1.3
v 0.6 2.3 -1.3
v 0.6 2.3 -1.4
v 0.6 2.4 -1.3
v 0.6 2.4 -1.4
v 0.7 2.1 -1
v 0.7 2.1 -1.1
v 0.7 2.2 -1
v 0.7 2.2 -1.1
v 0.7 2.3 -1.2
v 0.7 2.3 -1.3
v 0.7 2.4 -1.2
v 0.7 2.4 -1.3
v 0.3 2.3 -1.3
v 0.3 2.3 -1.4
v 0.3 2.4 -1.3
v 0.3 2.4 -1.4
v 0.4 2.3 -1.2
v 0.4 2.3 -1.3
v 0.4 2.4 -1.2
v 0.4 2.4 -1.3
v 0.5 2.3 -1.3
v 0.5 2.3 -1.4
v 0.5 2.4 -1.3
v 0.5 2.4 -1.4
v 0.6 2.3 -1.2
v 0.6 2.3 -1.3
v 0.6 2.4 -1.2
v 0.6 2.4 -1.3
v 0.6 2.4 -1.4
v 0.6 2.5 -1.3
v 0.6 2.5 -1.4
v 0.7 2.3 -1.3
v 0.7 2.3 -1.4
v 0.7 2.4 -1.3
v 0.7 2.4 -1.4
v 0.9 2.1 -1
v 0.9 2.1 -1.3
v 0.9 2.2 -1
v 0.9 2.2 -1.2
v 0.9 2.4 -1.2
v 0.9 2.4 -1.3
v 0.7 2.1 -1
v 0.7 2.2 -1
v 0.8 2.1 -1
v 0.8 2.2 -1
v 0.9 2.1 -1
v 0.9 2.2 -1
v 0.6 2.1 -1.1
v 0.6 2.2 -1.1
v 0.7 2.1 -1.1
v 0.7 2.2 -1.1
v 0.1 2.2 -1.2
v 0.1 2.3 -1.2
v 0.3 2.3 -1.2
v 0.3 2.4 -1.2
v 0.4 2.3 -1.2
v 0.4 2.4 -1.2
v 0.5 2.3 -1.2
v 0.5 2.4 -1.2
v 0.6 2.2 -1.2
v 0.6 2.3 -1.2
v 0.6 2.4 -1.2
v 0.7 2.3 -1.2
v 0.7 2.4 -1.2
v 0.8 2.2 -1.2
v 0.8 2.4 -1.2
v 0.9 2.2 -1.2
v 0.9 2.4 -1.2
v 0.2 2.3 -1.3
v 0.2 2.4 -1.3
v 0.3 2.3 -1.3
v 0.3 2.4 -1.3
v 0.3 2.5 -1.3
v 0.4 2.3 -1.3
v 0.4 2.4 -1.3
v 0.5 2.3 -1.3
v 0.5 2.4 -1.3
v 0.6 2.3 -1.3
v 0.6 2.4 -1.3
v 0.6 2.5 -1.3
v 0.7 2.3 -1.3
v 0.7 2.4 -1.3
v 0.1 2.2 -1.3
v 0.1 2.3 -1.3
v 0.2 2.3 -1.3
v 0.3 2.3 -1.3
v 0.3 2.4 -1.3
v 0.4 2.3 -1.3
v 0.4 2.4 -1.3
v 0.5 2.3 -1.3
v 0.5 2.4 -1.3
v 0.6 2.1 -1.3
v 0.6 2.2 -1.3
v 0.6 2.3 -1.3
v 0.6 2.4 -1.3
v 0.7 2.3 -1.3
v 0.7 2.4 -1.3
v 0.8 2.2 -1.3
v 0.8 2.4 -1.3
v 0.9 2.1 -1.3
v 0.9 2.4 -1.3
v 0.2 2.3 -1.4
v 0.2 2.4 -1.4
v 0.3 2.3 -1.4
v 0.3 2.4 -1.4
v 0.3 2.5 -1.4
v 0.4 2.3 -1.4
v 0.4 2.4 -1.4
v 0.5 2.3 -1.4
v 0.5 2.4 -1.4
v 0.6 2.3 -1.4
v 0.6 2.4 -1.4
v 0.6 2.5 -1.4
v 0.7 2.3 -1.4
v 0.7 2.4 -1.4
v 0.7 2.1 -1
v 0.8 2.1 -1
v 0.9 2.1 -1
v 0.6 2.1 -1.1
v 0.7 2.1 -1.1
v 0.6 2.1 -1.2
v 0.8 2.1 -1.2
v 0.6 2.1 -1.3
v 0.9 2.1 -1.3
v 0.1 2.2 -1.2
v 0.6 2.2 -1.2
v 0.1 2.2 -1.3
v 0.6 2.2 -1.3
v 0.2 2.3 -1.3
v 0.3 2.3 -1.3
v 0.4 2.3 -1.3
v 0.5 2.3 -1.3
v 0.6 2.3 -1.3
v 0.7 2.3 -1.3
v 0.2 2.3 -1.4
v 0.3 2.3 -1.4
v 0.4 2.3 -1.4
v 0.5 2.3 -1.4
v 0.6 2.3 -1.4
v 0.7 2.3 -1.4
v 0.3 2.4 -1.3
v 0.4 2.4 -1.3
v 0.5 2.4 -1.3
v 0.6 2.4 -1.3
v 0.3 2.4 -1.4
v 0.4 2.4 -1.4
v 0.5 2.4 -1.4
v 0.6 2.4 -1.4
v 0.7 2.2 -1
v 0.8 2.2 -1
v 0.9 2.2 -1
v 0.6 2.2 -1.1
v 0.7 2.2 -1.1
v 0.6 2.2 -1.2
v 0.8 2.2 -1.2
v 0.9 2.2 -1.2
v 0.1 2.3 -1.2
v 0.3 2.3 -1.2
v 0.4 2.3 -1.2
v 0.5 2.3 -1.2
v 0.6 2.3 -1.2
v 0.7 2.3 -1.2
v 0.1 2.3 -1.3
v 0.2 2.3 -1.3
v 0.3 2.3 -1.3
v 0.4 2.3 -1.3
v 0.5 2.3 -1.3
v 0.6 2.3 -1.3
v 0.7 2.3 -1.3
v 0.3 2.4 -1.2
v 0.4 2.4 -1.2
v 0.5 2.4 -1.2
v 0.6 2.4 -1.2
v 0.7 2.4 -1.2
v 0.8 2.4 -1.2
v 0.9 2.4 -1.2
v 0.2 2.4 -1.3
v 0.3 2.4 -1.3
v 0.4 2.4 -1.3
v 0.5 2.4 -1.3
v 0.6 2.4 -1.3
v 0.7 2.4 -1.3
v 0.8 2.4 -1.3
v 0.9 2.4 -1.3
v 0.2 2.4 -1.4
v 0.3 2.4 -1.4
v 0.6 2.4 -1.4
v 0.7 2.4 -1.4
v 0.3 2.5 -1.3
v 0.6 2.5 -1.3
v 0.3 2.5 -1.4
v 0.6 2.5 -1.4

# faces
f 3/3/1 2/3/1 1/3/1
f 4/3/1 2/3/1 3/3/1
f 7/1/1 6/1/1 5/1/1
f 8/1/1 6/1/1 7/1/1
f 11/3/1 10/3/1 9/3/1
f 12/3/1 10/3/1 11/3/1
f 14/1/1 13/1/1 12/1/1
f 15/1/1 13/1/1 14/1/1
f 18/1/1 17/1/1 16/1/1
f 19/1/1 17/1/1 18/1/1
f 22/3/1 21/3/1 20/3/1
f 23/3/1 21/3/1 22/3/1
f 27/2/1 25/2/1 24/2/1
f 28/1/1 26/1/1 25/1/1
f 28/2/1 25/2/1 27/2/1
f 29/1/1 26/1/1 28/1/1
f 32/1/1 31/1/1 30/1/1
f 33/1/1 31/1/1 32/1/1
f 36/2/1 35/2/1 34/2/1
f 37/2/1 35/2/1 36/2/1
f 40/3/1 39/3/1 38/3/1
f 41/3/1 39/3/1 40/3/1
f 42/1/2 43/1/2 44/1/2
f 44/1/2 43/1/2 45/1/2
f 46/3/2 47/3/2 48/3/2
f 48/3/2 47/3/2 49/3/2
f 50/1/2 51/1/2 52/1/2
f 52/1/2 51/1/2 53/1/2
f 54/3/2 55/3/2 56/3/2
f 56/3/2 55/3/2 57/3/2
f 57/1/2 58/1/2 59/1/2
f 59/1/2 58/1/2 60/1/2
f 61/1/2 62/1/2 63/1/2
f 63/1/2 62/1/2 64/1/2
f 65/1/2 66/1/2 67/1/2
f 67/1/2 66/1/2 68/1/2
f 68/1/2 66/1/2 69/1/2
f 69/1/2 66/1/2 70/1/2
f 73/2/3 72/2/3 71/2/3
f 74/2/3 72/2/3 73/2/3
f 75/1/3 74/1/3 73/1/3
f 76/1/3 74/1/3 75/1/3
f 79/2/3 78/2/3 77/2/3
f 80/2/3 78/2/3 79/2/3
f 83/3/3 82/3/3 81/3/3
f 85/3/3 83/3/3 81/3/3
f 85/3/3 84/3/3 83/3/3
f 86/3/3 84/3/3 85/3/3
f 87/3/3 85/3/3 81/3/3
f 89/3/3 87/3/3 81/3/3
f 89/3/3 88/3/3 87/3/3
f 90/3/3 88/3/3 89/3/3
f 91/3/3 88/3/3 90/3/3
f 92/3/3 90/3/3 89/3/3
f 94/3/3 92/3/3 89/3/3
f 94/3/3 93/3/3 92/3/3
f 95/3/3 93/3/3 94/3/3
f 96/1/3 95/1/3 94/1/3
f 97/1/3 95/1/3 96/1/3
f 100/1/3 99/1/3 98/1/3
f 101/1/3 99/1/3 100/1/3
f 104/1/3 102/1/3 101/1/3
f 105/1/3 104/1/3 103/1/3
f 106/1/3 102/1/3 104/1/3
f 106/1/3 104/1/3 105/1/3
f 108/1/3 102/1/3 106/1/3
f 109/1/3 102/1/3 108/1/3
f 110/1/3 108/1/3 107/1/3
f 111/1/3 108/1/3 110/1/3
f 112/3/4 113/3/4 114/3/4
f 112/3/4 114/3/4 115/3/4
f 112/3/4 115/3/4 117/3/4
f 115/3/4 116/3/4 117/3/4
f 117/3/4 116/3/4 118/3/4
f 112/3/4 117/3/4 119/3/4
f 112/3/4 119/3/4 122/3/4
f 119/3/4 120/3/4 122/3/4
f 122/3/4 120/3/4 123/3/4
f 123/3/4 120/3/4 124/3/4
f 122/3/4 123/3/4 125/3/4
f 121/1/4 122/1/4 127/1/4
f 125/3/4 126/3/4 127/3/4
f 122/3/4 125/3/4 127/3/4
f 127/3/4 126/3/4 128/3/4
f 121/1/4 127/1/4 129/1/4
f 127/1/4 128/1/4 129/1/4
f 129/1/4 128/1/4 130/1/4
f 131/1/4 132/1/4 133/1/4
f 133/1/4 132/1/4 134/1/4
f 134/1/4 135/1/4 137/1/4
f 136/1/4 137/1/4 138/1/4
f 137/1/4 135/1/4 139/1/4
f 138/1/4 137/1/4 139/1/4
f 139/1/4 135/1/4 141/1/4
f 141/1/4 135/1/4 142/1/4
f 140/1/4 141/1/4 143/1/4
f 143/1/4 141/1/4 144/1/4
f 149/2/5 146/2/5 145/2/5
f 150/2/5 149/2/5 148/2/5
f 151/1/5 147/1/5 146/1/5
f 151/2/5 149/2/5 150/2/5
f 151/2/5 146/2/5 149/2/5
f 152/1/5 151/1/5 150/1/5
f 153/1/5 147/1/5 151/1/5
f 153/1/5 151/1/5 152/1/5
f 156/3/5 155/3/5 154/3/5
f 157/3/5 155/3/5 156/3/5
f 164/1/5 159/1/5 158/1/5
f 165/1/5 159/1/5 164/1/5
f 166/1/5 161/1/5 160/1/5
f 167/1/5 161/1/5 166/1/5
f 168/1/5 163/1/5 162/1/5
f 169/1/5 163/1/5 168/1/5
f 174/1/5 171/1/5 170/1/5
f 175/1/5 171/1/5 174/1/5
f 176/1/5 173/1/5 172/1/5
f 177/1/5 173/1/5 176/1/5
f 178/2/6 179/2/6 182/2/6
f 181/2/6 182/2/6 183/2/6
f 179/1/6 180/1/6 184/1/6
f 183/2/6 182/2/6 184/2/6
f 182/2/6 179/2/6 184/2/6
f 184/1/6 180/1/6 185/1/6
f 186/3/6 187/3/6 192/3/6
f 192/3/6 187/3/6 193/3/6
f 193/3/6 187/3/6 194/3/6
f 188/3/6 189/3/6 195/3/6
f 195/3/6 189/3/6 196/3/6
f 190/3/6 191/3/6 197/3/6
f 197/3/6 191/3/6 198/3/6
f 199/3/6 200/3/6 207/3/6
f 207/3/6 200/3/6 208/3/6
f 201/3/6 202/3/6 209/3/6
f 209/3/6 202/3/6 210/3/6
f 203/3/6 204/3/6 211/3/6
f 204/1/6 205/1/6 212/1/6
f 211/3/6 204/3/6 212/3/6
f 212/1/6 205/1/6 213/1/6
f 206/1/6 207/1/6 214/1/6
f 214/1/6 207/1/6 215/1/6
f 210/1/6 211/1/6 216/1/6
f 216/1/6 211/1/6 217/1/6
f 218/1/6 219/1/6 220/1/6
f 220/1/6 219/1/6 221/1/6
