# MagicaVoxel @ Ephtracy

# group
o 

# material
mtllib YellowHouseParts-91.mtl
usemtl palette

# normals
vn -1 0 0
vn 1 0 0
vn 0 0 1
vn 0 0 -1
vn 0 -1 0
vn 0 1 0

# texcoords
vt 0.189453 0.5
vt 0.193359 0.5
vt 0.541016 0.5

# verts
v 0.5 2.6 -0.6
v 0.5 2.6 -0.7
v 0.5 2.6 -0.8
v 0.5 2.6 -0.9
v 0.5 2.6 -1
v 0.5 2.6 -1.1
v 0.5 2.6 -1.2
v 0.5 2.7 -0.6
v 0.5 2.7 -0.7
v 0.5 2.7 -0.8
v 0.5 2.7 -0.9
v 0.5 2.7 -1
v 0.5 2.7 -1.1
v 0.5 2.7 -1.2
v 0.6 2.5 -0.8
v 0.6 2.5 -0.9
v 0.6 2.5 -1
v 0.6 2.5 -1.1
v 0.6 2.5 -1.2
v 0.6 2.6 -0.8
v 0.6 2.6 -0.9
v 0.6 2.6 -1
v 0.6 2.6 -1.1
v 0.6 2.6 -1.2
v 0.7 2.4 -0.7
v 0.7 2.4 -0.8
v 0.7 2.4 -0.9
v 0.7 2.4 -1
v 0.7 2.4 -1.1
v 0.7 2.4 -1.2
v 0.7 2.5 -0.7
v 0.7 2.5 -0.8
v 0.7 2.5 -0.9
v 0.7 2.5 -1
v 0.7 2.5 -1.1
v 0.7 2.5 -1.2
v 0.8 2.3 -0.8
v 0.8 2.3 -0.9
v 0.8 2.3 -1
v 0.8 2.3 -1.1
v 0.8 2.3 -1.2
v 0.8 2.4 -0.8
v 0.8 2.4 -0.9
v 0.8 2.4 -1
v 0.8 2.4 -1.1
v 0.8 2.4 -1.2
v 0.9 2.2 -0.6
v 0.9 2.2 -1.2
v 0.9 2.3 -0.6
v 0.9 2.3 -0.8
v 0.9 2.3 -0.9
v 0.9 2.3 -1
v 0.9 2.3 -1.1
v 0.9 2.3 -1.2
v 0.6 2.6 -0.6
v 0.6 2.6 -0.7
v 0.6 2.6 -0.8
v 0.6 2.6 -0.9
v 0.6 2.6 -1
v 0.6 2.6 -1.1
v 0.6 2.6 -1.2
v 0.6 2.7 -0.6
v 0.6 2.7 -0.7
v 0.6 2.7 -0.8
v 0.6 2.7 -0.9
v 0.6 2.7 -1
v 0.6 2.7 -1.1
v 0.6 2.7 -1.2
v 0.7 2.5 -0.8
v 0.7 2.5 -0.9
v 0.7 2.5 -1
v 0.7 2.5 -1.1
v 0.7 2.5 -1.2
v 0.7 2.6 -0.8
v 0.7 2.6 -0.9
v 0.7 2.6 -1
v 0.7 2.6 -1.1
v 0.7 2.6 -1.2
v 0.8 2.4 -0.7
v 0.8 2.4 -0.8
v 0.8 2.4 -0.9
v 0.8 2.4 -1
v 0.8 2.4 -1.1
v 0.8 2.4 -1.2
v 0.8 2.5 -0.7
v 0.8 2.5 -0.8
v 0.8 2.5 -0.9
v 0.8 2.5 -1
v 0.8 2.5 -1.1
v 0.8 2.5 -1.2
v 0.9 2.3 -0.8
v 0.9 2.3 -0.9
v 0.9 2.3 -1
v 0.9 2.3 -1.1
v 0.9 2.3 -1.2
v 0.9 2.4 -0.8
v 0.9 2.4 -0.9
v 0.9 2.4 -1
v 0.9 2.4 -1.1
v 0.9 2.4 -1.2
v 1 2.2 -0.6
v 1 2.2 -1.2
v 1 2.3 -0.6
v 1 2.3 -1.2
v 0.5 2.6 -0.6
v 0.5 2.7 -0.6
v 0.6 2.6 -0.6
v 0.6 2.7 -0.6
v 0.9 2.2 -0.6
v 0.9 2.3 -0.6
v 1 2.2 -0.6
v 1 2.3 -0.6
v 0.7 2.4 -0.7
v 0.7 2.5 -0.7
v 0.8 2.4 -0.7
v 0.8 2.5 -0.7
v 0.6 2.5 -0.8
v 0.6 2.6 -0.8
v 0.7 2.5 -0.8
v 0.7 2.6 -0.8
v 0.8 2.3 -0.8
v 0.8 2.4 -0.8
v 0.9 2.3 -0.8
v 0.9 2.4 -0.8
v 0.5 2.6 -1.2
v 0.5 2.7 -1.2
v 0.6 2.5 -1.2
v 0.6 2.6 -1.2
v 0.6 2.7 -1.2
v 0.7 2.4 -1.2
v 0.7 2.5 -1.2
v 0.7 2.6 -1.2
v 0.8 2.3 -1.2
v 0.8 2.4 -1.2
v 0.8 2.5 -1.2
v 0.9 2.2 -1.2
v 0.9 2.3 -1.2
v 0.9 2.4 -1.2
v 1 2.2 -1.2
v 1 2.3 -1.2
v 0.9 2.2 -0.6
v 1 2.2 -0.6
v 0.9 2.2 -1.2
v 1 2.2 -1.2
v 0.8 2.3 -0.8
v 0.9 2.3 -0.8
v 0.8 2.3 -0.9
v 0.9 2.3 -0.9
v 0.8 2.3 -1
v 0.9 2.3 -1
v 0.8 2.3 -1.1
v 0.9 2.3 -1.1
v 0.8 2.3 -1.2
v 0.9 2.3 -1.2
v 0.7 2.4 -0.7
v 0.8 2.4 -0.7
v 0.7 2.4 -0.8
v 0.8 2.4 -0.8
v 0.7 2.4 -0.9
v 0.8 2.4 -0.9
v 0.7 2.4 -1
v 0.8 2.4 -1
v 0.7 2.4 -1.1
v 0.8 2.4 -1.1
v 0.7 2.4 -1.2
v 0.8 2.4 -1.2
v 0.6 2.5 -0.8
v 0.7 2.5 -0.8
v 0.6 2.5 -0.9
v 0.7 2.5 -0.9
v 0.6 2.5 -1
v 0.7 2.5 -1
v 0.6 2.5 -1.1
v 0.7 2.5 -1.1
v 0.6 2.5 -1.2
v 0.7 2.5 -1.2
v 0.5 2.6 -0.6
v 0.6 2.6 -0.6
v 0.5 2.6 -0.7
v 0.6 2.6 -0.7
v 0.5 2.6 -0.8
v 0.6 2.6 -0.8
v 0.5 2.6 -0.9
v 0.6 2.6 -0.9
v 0.5 2.6 -1
v 0.6 2.6 -1
v 0.5 2.6 -1.1
v 0.6 2.6 -1.1
v 0.5 2.6 -1.2
v 0.6 2.6 -1.2
v 0.9 2.3 -0.6
v 1 2.3 -0.6
v 0.9 2.3 -0.8
v 0.9 2.3 -0.9
v 0.9 2.3 -1
v 0.9 2.3 -1.1
v 0.9 2.3 -1.2
v 1 2.3 -1.2
v 0.8 2.4 -0.8
v 0.9 2.4 -0.8
v 0.8 2.4 -0.9
v 0.9 2.4 -0.9
v 0.8 2.4 -1
v 0.9 2.4 -1
v 0.8 2.4 -1.1
v 0.9 2.4 -1.1
v 0.8 2.4 -1.2
v 0.9 2.4 -1.2
v 0.7 2.5 -0.7
v 0.8 2.5 -0.7
v 0.7 2.5 -0.8
v 0.8 2.5 -0.8
v 0.7 2.5 -0.9
v 0.8 2.5 -0.9
v 0.7 2.5 -1
v 0.8 2.5 -1
v 0.7 2.5 -1.1
v 0.8 2.5 -1.1
v 0.7 2.5 -1.2
v 0.8 2.5 -1.2
v 0.6 2.6 -0.8
v 0.7 2.6 -0.8
v 0.6 2.6 -0.9
v 0.7 2.6 -0.9
v 0.6 2.6 -1
v 0.7 2.6 -1
v 0.6 2.6 -1.1
v 0.7 2.6 -1.1
v 0.6 2.6 -1.2
v 0.7 2.6 -1.2
v 0.5 2.7 -0.6
v 0.6 2.7 -0.6
v 0.5 2.7 -0.7
v 0.6 2.7 -0.7
v 0.5 2.7 -0.8
v 0.6 2.7 -0.8
v 0.5 2.7 -0.9
v 0.6 2.7 -0.9
v 0.5 2.7 -1
v 0.6 2.7 -1
v 0.5 2.7 -1.1
v 0.6 2.7 -1.1
v 0.5 2.7 -1.2
v 0.6 2.7 -1.2

# faces
f 8/2/1 2/2/1 1/2/1
f 9/1/1 3/1/1 2/1/1
f 9/2/1 2/2/1 8/2/1
f 10/2/1 4/2/1 3/2/1
f 10/1/1 3/1/1 9/1/1
f 11/1/1 5/1/1 4/1/1
f 11/2/1 4/2/1 10/2/1
f 12/2/1 6/2/1 5/2/1
f 12/1/1 5/1/1 11/1/1
f 13/1/1 7/1/1 6/1/1
f 13/2/1 6/2/1 12/2/1
f 14/1/1 7/1/1 13/1/1
f 20/1/1 16/1/1 15/1/1
f 21/2/1 17/2/1 16/2/1
f 21/1/1 16/1/1 20/1/1
f 22/1/1 18/1/1 17/1/1
f 22/2/1 17/2/1 21/2/1
f 23/2/1 19/2/1 18/2/1
f 23/1/1 18/1/1 22/1/1
f 24/2/1 19/2/1 23/2/1
f 31/1/1 26/1/1 25/1/1
f 32/2/1 27/2/1 26/2/1
f 32/1/1 26/1/1 31/1/1
f 33/1/1 28/1/1 27/1/1
f 33/2/1 27/2/1 32/2/1
f 34/2/1 29/2/1 28/2/1
f 34/1/1 28/1/1 33/1/1
f 35/1/1 30/1/1 29/1/1
f 35/2/1 29/2/1 34/2/1
f 36/1/1 30/1/1 35/1/1
f 42/1/1 38/1/1 37/1/1
f 43/2/1 39/2/1 38/2/1
f 43/1/1 38/1/1 42/1/1
f 44/1/1 40/1/1 39/1/1
f 44/2/1 39/2/1 43/2/1
f 45/2/1 41/2/1 40/2/1
f 45/1/1 40/1/1 44/1/1
f 46/2/1 41/2/1 45/2/1
f 49/3/1 48/3/1 47/3/1
f 50/3/1 48/3/1 49/3/1
f 51/3/1 48/3/1 50/3/1
f 52/3/1 48/3/1 51/3/1
f 53/3/1 48/3/1 52/3/1
f 54/3/1 48/3/1 53/3/1
f 55/2/2 56/2/2 62/2/2
f 56/1/2 57/1/2 63/1/2
f 62/2/2 56/2/2 63/2/2
f 57/2/2 58/2/2 64/2/2
f 63/1/2 57/1/2 64/1/2
f 58/1/2 59/1/2 65/1/2
f 64/2/2 58/2/2 65/2/2
f 59/2/2 60/2/2 66/2/2
f 65/1/2 59/1/2 66/1/2
f 60/1/2 61/1/2 67/1/2
f 66/2/2 60/2/2 67/2/2
f 67/1/2 61/1/2 68/1/2
f 69/1/2 70/1/2 74/1/2
f 70/2/2 71/2/2 75/2/2
f 74/1/2 70/1/2 75/1/2
f 71/1/2 72/1/2 76/1/2
f 75/2/2 71/2/2 76/2/2
f 72/2/2 73/2/2 77/2/2
f 76/1/2 72/1/2 77/1/2
f 77/2/2 73/2/2 78/2/2
f 79/1/2 80/1/2 85/1/2
f 80/2/2 81/2/2 86/2/2
f 85/1/2 80/1/2 86/1/2
f 81/1/2 82/1/2 87/1/2
f 86/2/2 81/2/2 87/2/2
f 82/2/2 83/2/2 88/2/2
f 87/1/2 82/1/2 88/1/2
f 83/1/2 84/1/2 89/1/2
f 88/2/2 83/2/2 89/2/2
f 89/1/2 84/1/2 90/1/2
f 91/1/2 92/1/2 96/1/2
f 92/2/2 93/2/2 97/2/2
f 96/1/2 92/1/2 97/1/2
f 93/1/2 94/1/2 98/1/2
f 97/2/2 93/2/2 98/2/2
f 94/2/2 95/2/2 99/2/2
f 98/1/2 94/1/2 99/1/2
f 99/2/2 95/2/2 100/2/2
f 101/3/2 102/3/2 103/3/2
f 103/3/2 102/3/2 104/3/2
f 107/2/3 106/2/3 105/2/3
f 108/2/3 106/2/3 107/2/3
f 111/3/3 110/3/3 109/3/3
f 112/3/3 110/3/3 111/3/3
f 115/1/3 114/1/3 113/1/3
f 116/1/3 114/1/3 115/1/3
f 119/1/3 118/1/3 117/1/3
f 120/1/3 118/1/3 119/1/3
f 123/1/3 122/1/3 121/1/3
f 124/1/3 122/1/3 123/1/3
f 125/1/4 126/1/4 128/1/4
f 128/1/4 126/1/4 129/1/4
f 127/2/4 128/2/4 131/2/4
f 131/2/4 128/2/4 132/2/4
f 130/1/4 131/1/4 134/1/4
f 134/1/4 131/1/4 135/1/4
f 133/2/4 134/2/4 137/2/4
f 137/2/4 134/2/4 138/2/4
f 136/3/4 137/3/4 139/3/4
f 139/3/4 137/3/4 140/3/4
f 143/3/5 142/3/5 141/3/5
f 144/3/5 142/3/5 143/3/5
f 147/1/5 146/1/5 145/1/5
f 148/1/5 146/1/5 147/1/5
f 149/2/5 148/2/5 147/2/5
f 150/2/5 148/2/5 149/2/5
f 151/1/5 150/1/5 149/1/5
f 152/1/5 150/1/5 151/1/5
f 153/2/5 152/2/5 151/2/5
f 154/2/5 152/2/5 153/2/5
f 157/1/5 156/1/5 155/1/5
f 158/1/5 156/1/5 157/1/5
f 159/2/5 158/2/5 157/2/5
f 160/2/5 158/2/5 159/2/5
f 161/1/5 160/1/5 159/1/5
f 162/1/5 160/1/5 161/1/5
f 163/2/5 162/2/5 161/2/5
f 164/2/5 162/2/5 163/2/5
f 165/1/5 164/1/5 163/1/5
f 166/1/5 164/1/5 165/1/5
f 169/1/5 168/1/5 167/1/5
f 170/1/5 168/1/5 169/1/5
f 171/2/5 170/2/5 169/2/5
f 172/2/5 170/2/5 171/2/5
f 173/1/5 172/1/5 171/1/5
f 174/1/5 172/1/5 173/1/5
f 175/2/5 174/2/5 173/2/5
f 176/2/5 174/2/5 175/2/5
f 179/2/5 178/2/5 177/2/5
f 180/2/5 178/2/5 179/2/5
f 181/1/5 180/1/5 179/1/5
f 182/1/5 180/1/5 181/1/5
f 183/2/5 182/2/5 181/2/5
f 184/2/5 182/2/5 183/2/5
f 185/1/5 184/1/5 183/1/5
f 186/1/5 184/1/5 185/1/5
f 187/2/5 186/2/5 185/2/5
f 188/2/5 186/2/5 187/2/5
f 189/1/5 188/1/5 187/1/5
f 190/1/5 188/1/5 189/1/5
f 191/3/6 192/3/6 193/3/6
f 193/3/6 192/3/6 194/3/6
f 194/3/6 192/3/6 195/3/6
f 195/3/6 192/3/6 196/3/6
f 196/3/6 192/3/6 197/3/6
f 197/3/6 192/3/6 198/3/6
f 199/1/6 200/1/6 201/1/6
f 201/1/6 200/1/6 202/1/6
f 201/2/6 202/2/6 203/2/6
f 203/2/6 202/2/6 204/2/6
f 203/1/6 204/1/6 205/1/6
f 205/1/6 204/1/6 206/1/6
f 205/2/6 206/2/6 207/2/6
f 207/2/6 206/2/6 208/2/6
f 209/1/6 210/1/6 211/1/6
f 211/1/6 210/1/6 212/1/6
f 211/2/6 212/2/6 213/2/6
f 213/2/6 212/2/6 214/2/6
f 213/1/6 214/1/6 215/1/6
f 215/1/6 214/1/6 216/1/6
f 215/2/6 216/2/6 217/2/6
f 217/2/6 216/2/6 218/2/6
f 217/1/6 218/1/6 219/1/6
f 219/1/6 218/1/6 220/1/6
f 221/1/6 222/1/6 223/1/6
f 223/1/6 222/1/6 224/1/6
f 223/2/6 224/2/6 225/2/6
f 225/2/6 224/2/6 226/2/6
f 225/1/6 226/1/6 227/1/6
f 227/1/6 226/1/6 228/1/6
f 227/2/6 228/2/6 229/2/6
f 229/2/6 228/2/6 230/2/6
f 231/2/6 232/2/6 233/2/6
f 233/2/6 232/2/6 234/2/6
f 233/1/6 234/1/6 235/1/6
f 235/1/6 234/1/6 236/1/6
f 235/2/6 236/2/6 237/2/6
f 237/2/6 236/2/6 238/2/6
f 237/1/6 238/1/6 239/1/6
f 239/1/6 238/1/6 240/1/6
f 239/2/6 240/2/6 241/2/6
f 241/2/6 240/2/6 242/2/6
f 241/1/6 242/1/6 243/1/6
f 243/1/6 242/1/6 244/1/6
