# MagicaVoxel @ Ephtracy

# group
o 

# material
mtllib YellowHouseParts-22.mtl
usemtl palette

# normals
vn -1 0 0
vn 1 0 0
vn 0 0 1
vn 0 0 -1
vn 0 -1 0
vn 0 1 0

# texcoords
vt 0.259766 0.5
vt 0.439453 0.5
vt 0.791016 0.5

# verts
v -0.9 0 1.1
v -0.9 0 1
v -0.9 0.4 1.1
v -0.9 0.4 1
v -0.8 0.4 1.1
v -0.8 0.4 1
v -0.8 0.5 1.1
v -0.8 0.5 1
v -0.7 0.5 1.1
v -0.7 0.5 1
v -0.7 0.6 1.1
v -0.7 0.6 1
v -0.6 0 1.1
v -0.6 0 1
v -0.6 0.1 1.1
v -0.6 0.1 1
v -0.6 0.2 1.1
v -0.6 0.2 1
v -0.6 0.3 1.1
v -0.6 0.3 1
v -0.6 0.4 1.1
v -0.6 0.4 1
v -0.6 0.5 1.1
v -0.6 0.5 1
v -0.6 0.6 1.1
v -0.6 0.6 1
v -0.9 0 1.1
v -0.9 0.4 1.1
v -0.8 0 1.1
v -0.8 0.1 1.1
v -0.8 0.2 1.1
v -0.8 0.3 1.1
v -0.8 0.4 1.1
v -0.8 0.5 1.1
v -0.7 0.5 1.1
v -0.7 0.6 1.1
v -0.6 0 1.1
v -0.6 0.1 1.1
v -0.6 0.2 1.1
v -0.6 0.3 1.1
v -0.6 0.4 1.1
v -0.6 0.5 1.1
v -0.6 0.6 1.1
v -0.9 0 1
v -0.9 0.4 1
v -0.8 0 1
v -0.8 0.1 1
v -0.8 0.2 1
v -0.8 0.3 1
v -0.8 0.4 1
v -0.8 0.5 1
v -0.7 0.5 1
v -0.7 0.6 1
v -0.6 0 1
v -0.6 0.1 1
v -0.6 0.2 1
v -0.6 0.3 1
v -0.6 0.4 1
v -0.6 0.5 1
v -0.6 0.6 1
v -0.9 0 1.1
v -0.8 0 1.1
v -0.6 0 1.1
v -0.9 0 1
v -0.8 0 1
v -0.6 0 1
v -0.9 0.4 1.1
v -0.8 0.4 1.1
v -0.9 0.4 1
v -0.8 0.4 1
v -0.8 0.5 1.1
v -0.7 0.5 1.1
v -0.8 0.5 1
v -0.7 0.5 1
v -0.7 0.6 1.1
v -0.6 0.6 1.1
v -0.7 0.6 1
v -0.6 0.6 1

# faces
f 3/2/1 2/2/1 1/2/1
f 4/2/1 2/2/1 3/2/1
f 7/3/1 6/3/1 5/3/1
f 8/3/1 6/3/1 7/3/1
f 11/1/1 10/1/1 9/1/1
f 12/1/1 10/1/1 11/1/1
f 13/3/2 14/3/2 15/3/2
f 15/3/2 14/3/2 16/3/2
f 15/1/2 16/1/2 17/1/2
f 17/1/2 16/1/2 18/1/2
f 17/3/2 18/3/2 19/3/2
f 19/3/2 18/3/2 20/3/2
f 19/1/2 20/1/2 21/1/2
f 21/1/2 20/1/2 22/1/2
f 21/3/2 22/3/2 23/3/2
f 23/3/2 22/3/2 24/3/2
f 23/1/2 24/1/2 25/1/2
f 25/1/2 24/1/2 26/1/2
f 29/2/3 28/2/3 27/2/3
f 30/2/3 28/2/3 29/2/3
f 31/2/3 28/2/3 30/2/3
f 32/2/3 28/2/3 31/2/3
f 33/2/3 28/2/3 32/2/3
f 35/3/3 34/3/3 33/3/3
f 37/3/3 30/3/3 29/3/3
f 38/1/3 31/1/3 30/1/3
f 38/3/3 30/3/3 37/3/3
f 39/3/3 32/3/3 31/3/3
f 39/1/3 31/1/3 38/1/3
f 40/1/3 33/1/3 32/1/3
f 40/3/3 32/3/3 39/3/3
f 41/3/3 35/3/3 33/3/3
f 41/1/3 33/1/3 40/1/3
f 42/1/3 36/1/3 35/1/3
f 42/3/3 35/3/3 41/3/3
f 43/1/3 36/1/3 42/1/3
f 44/2/4 45/2/4 46/2/4
f 46/2/4 45/2/4 47/2/4
f 47/2/4 45/2/4 48/2/4
f 48/2/4 45/2/4 49/2/4
f 49/2/4 45/2/4 50/2/4
f 50/3/4 51/3/4 52/3/4
f 46/3/4 47/3/4 54/3/4
f 47/1/4 48/1/4 55/1/4
f 54/3/4 47/3/4 55/3/4
f 48/3/4 49/3/4 56/3/4
f 55/1/4 48/1/4 56/1/4
f 49/1/4 50/1/4 57/1/4
f 56/3/4 49/3/4 57/3/4
f 50/3/4 52/3/4 58/3/4
f 57/1/4 50/1/4 58/1/4
f 52/1/4 53/1/4 59/1/4
f 58/3/4 52/3/4 59/3/4
f 59/1/4 53/1/4 60/1/4
f 64/2/5 62/2/5 61/2/5
f 65/3/5 63/3/5 62/3/5
f 65/2/5 62/2/5 64/2/5
f 66/3/5 63/3/5 65/3/5
f 67/2/6 68/2/6 69/2/6
f 69/2/6 68/2/6 70/2/6
f 71/3/6 72/3/6 73/3/6
f 73/3/6 72/3/6 74/3/6
f 75/1/6 76/1/6 77/1/6
f 77/1/6 76/1/6 78/1/6
