# MagicaVoxel @ Ephtracy

# group
o 

# material
mtllib YellowHouseParts-67.mtl
usemtl palette

# normals
vn -1 0 0
vn 1 0 0
vn 0 0 1
vn 0 0 -1
vn 0 -1 0
vn 0 1 0

# texcoords
vt 0.189453 0.5
vt 0.509766 0.5
vt 0.513672 0.5
vt 0.541016 0.5

# verts
v 0.3 0.3 -0.8
v 0.3 0.3 -0.9
v 0.3 1.1 -0.8
v 0.3 1.1 -0.9
v 0.7 0.3 -0.8
v 0.7 0.3 -0.9
v 0.7 0.6 -0.8
v 0.7 0.6 -0.9
v 0.7 0.7 -0.8
v 0.7 0.7 -0.9
v 0.7 1.1 -0.8
v 0.7 1.1 -0.9
v 0.3 0.3 -0.8
v 0.3 1.1 -0.8
v 0.4 0.8 -0.8
v 0.4 0.9 -0.8
v 0.4 1 -0.8
v 0.5 0.6 -0.8
v 0.5 0.7 -0.8
v 0.5 0.8 -0.8
v 0.5 0.9 -0.8
v 0.5 1 -0.8
v 0.6 0.8 -0.8
v 0.6 0.9 -0.8
v 0.6 1 -0.8
v 0.7 0.3 -0.8
v 0.7 0.6 -0.8
v 0.7 0.7 -0.8
v 0.7 1.1 -0.8
v 0.3 0.3 -0.9
v 0.3 1.1 -0.9
v 0.4 0.8 -0.9
v 0.4 0.9 -0.9
v 0.4 1 -0.9
v 0.5 0.6 -0.9
v 0.5 0.7 -0.9
v 0.5 0.8 -0.9
v 0.5 0.9 -0.9
v 0.5 1 -0.9
v 0.6 0.8 -0.9
v 0.6 0.9 -0.9
v 0.6 1 -0.9
v 0.7 0.3 -0.9
v 0.7 0.6 -0.9
v 0.7 0.7 -0.9
v 0.7 1.1 -0.9
v 0.3 0.3 -0.8
v 0.7 0.3 -0.8
v 0.3 0.3 -0.9
v 0.7 0.3 -0.9
v 0.3 1.1 -0.8
v 0.7 1.1 -0.8
v 0.3 1.1 -0.9
v 0.7 1.1 -0.9

# faces
f 3/1/1 2/1/1 1/1/1
f 4/1/1 2/1/1 3/1/1
f 5/1/2 6/1/2 7/1/2
f 7/1/2 6/1/2 8/1/2
f 7/4/2 8/4/2 9/4/2
f 9/4/2 8/4/2 10/4/2
f 9/1/2 10/1/2 11/1/2
f 11/1/2 10/1/2 12/1/2
f 15/1/3 14/1/3 13/1/3
f 16/1/3 14/1/3 15/1/3
f 17/1/3 14/1/3 16/1/3
f 18/1/3 15/1/3 13/1/3
f 19/1/3 15/1/3 18/1/3
f 20/3/3 16/3/3 15/3/3
f 20/1/3 15/1/3 19/1/3
f 21/2/3 17/2/3 16/2/3
f 21/3/3 16/3/3 20/3/3
f 22/1/3 14/1/3 17/1/3
f 22/2/3 17/2/3 21/2/3
f 23/2/3 21/2/3 20/2/3
f 23/1/3 20/1/3 19/1/3
f 24/3/3 22/3/3 21/3/3
f 24/2/3 21/2/3 23/2/3
f 25/1/3 14/1/3 22/1/3
f 25/3/3 22/3/3 24/3/3
f 26/1/3 18/1/3 13/1/3
f 27/4/3 19/4/3 18/4/3
f 27/1/3 18/1/3 26/1/3
f 28/1/3 24/1/3 23/1/3
f 28/4/3 19/4/3 27/4/3
f 28/1/3 23/1/3 19/1/3
f 28/1/3 25/1/3 24/1/3
f 29/1/3 14/1/3 25/1/3
f 29/1/3 25/1/3 28/1/3
f 30/1/4 31/1/4 32/1/4
f 32/1/4 31/1/4 33/1/4
f 33/1/4 31/1/4 34/1/4
f 30/1/4 32/1/4 35/1/4
f 35/1/4 32/1/4 36/1/4
f 32/3/4 33/3/4 37/3/4
f 36/1/4 32/1/4 37/1/4
f 33/2/4 34/2/4 38/2/4
f 37/3/4 33/3/4 38/3/4
f 34/1/4 31/1/4 39/1/4
f 38/2/4 34/2/4 39/2/4
f 37/2/4 38/2/4 40/2/4
f 36/1/4 37/1/4 40/1/4
f 38/3/4 39/3/4 41/3/4
f 40/2/4 38/2/4 41/2/4
f 39/1/4 31/1/4 42/1/4
f 41/3/4 39/3/4 42/3/4
f 30/1/4 35/1/4 43/1/4
f 35/4/4 36/4/4 44/4/4
f 43/1/4 35/1/4 44/1/4
f 40/1/4 41/1/4 45/1/4
f 44/4/4 36/4/4 45/4/4
f 36/1/4 40/1/4 45/1/4
f 41/1/4 42/1/4 45/1/4
f 42/1/4 31/1/4 46/1/4
f 45/1/4 42/1/4 46/1/4
f 49/1/5 48/1/5 47/1/5
f 50/1/5 48/1/5 49/1/5
f 51/1/6 52/1/6 53/1/6
f 53/1/6 52/1/6 54/1/6
