# MagicaVoxel @ Ephtracy

# group
o 

# material
mtllib YellowHouseParts-108.mtl
usemtl palette

# normals
vn -1 0 0
vn 1 0 0
vn 0 0 1
vn 0 0 -1
vn 0 -1 0
vn 0 1 0

# texcoords
vt 0.439453 0.5
vt 0.509766 0.5
vt 0.544922 0.5
vt 0.791016 0.5

# verts
v -0.7 2.5 1.1
v -0.7 2.5 1
v -0.7 2.6 1.1
v -0.7 2.6 1
v -0.6 2.6 1.1
v -0.6 2.6 1
v -0.6 2.7 1.1
v -0.6 2.7 1
v -0.5 2.7 1.1
v -0.5 2.7 1
v -0.5 2.8 1.1
v -0.5 2.8 1
v -0.3 2.5 1.2
v -0.3 2.5 1.1
v -0.3 2.7 1.2
v -0.3 2.7 1.1
v -0.2 2.6 1.2
v -0.2 2.6 1.1
v -0.2 2.7 1.2
v -0.2 2.7 1.1
v 5.96046e-008 2.5 1.2
v 5.96046e-008 2.5 1.1
v 5.96046e-008 2.6 1.2
v 5.96046e-008 2.6 1.1
v 5.96046e-008 2.7 1.1
v 5.96046e-008 2.7 1
v 5.96046e-008 2.8 1.1
v 5.96046e-008 2.8 1
v 0.1 2.5 1.1
v 0.1 2.5 1
v 0.1 2.6 1.1
v 0.1 2.6 1
v 0.1 2.7 1.1
v 0.1 2.7 1
v -0.3 2.5 1.2
v -0.3 2.7 1.2
v -0.2 2.6 1.2
v -0.2 2.7 1.2
v 5.96046e-008 2.5 1.2
v 5.96046e-008 2.6 1.2
v -0.7 2.5 1.1
v -0.7 2.6 1.1
v -0.6 2.5 1.1
v -0.6 2.6 1.1
v -0.6 2.7 1.1
v -0.5 2.6 1.1
v -0.5 2.7 1.1
v -0.5 2.8 1.1
v -0.4 2.7 1.1
v -0.4 2.8 1.1
v -0.3 2.5 1.1
v -0.3 2.7 1.1
v -0.2 2.6 1.1
v -0.2 2.7 1.1
v -0.2 2.8 1.1
v -0.1 2.7 1.1
v -0.1 2.8 1.1
v 5.96046e-008 2.5 1.1
v 5.96046e-008 2.6 1.1
v 5.96046e-008 2.7 1.1
v 5.96046e-008 2.8 1.1
v 0.1 2.5 1.1
v 0.1 2.6 1.1
v 0.1 2.7 1.1
v -0.7 2.5 1
v -0.7 2.6 1
v -0.6 2.5 1
v -0.6 2.6 1
v -0.6 2.7 1
v -0.5 2.6 1
v -0.5 2.7 1
v -0.5 2.8 1
v -0.4 2.7 1
v -0.4 2.8 1
v -0.2 2.6 1
v -0.2 2.8 1
v -0.1 2.7 1
v -0.1 2.8 1
v 5.96046e-008 2.7 1
v 5.96046e-008 2.8 1
v 0.1 2.5 1
v 0.1 2.6 1
v 0.1 2.7 1
v -0.3 2.5 1.2
v 5.96046e-008 2.5 1.2
v -0.7 2.5 1.1
v -0.6 2.5 1.1
v -0.3 2.5 1.1
v 5.96046e-008 2.5 1.1
v 0.1 2.5 1.1
v -0.7 2.5 1
v -0.6 2.5 1
v 0.1 2.5 1
v -0.2 2.6 1.2
v 5.96046e-008 2.6 1.2
v -0.7 2.6 1.1
v -0.6 2.6 1.1
v -0.2 2.6 1.1
v 5.96046e-008 2.6 1.1
v -0.7 2.6 1
v -0.6 2.6 1
v -0.3 2.7 1.2
v -0.2 2.7 1.2
v -0.6 2.7 1.1
v -0.5 2.7 1.1
v -0.3 2.7 1.1
v -0.2 2.7 1.1
v 5.96046e-008 2.7 1.1
v 0.1 2.7 1.1
v -0.6 2.7 1
v -0.5 2.7 1
v 5.96046e-008 2.7 1
v 0.1 2.7 1
v -0.5 2.8 1.1
v -0.4 2.8 1.1
v -0.2 2.8 1.1
v -0.1 2.8 1.1
v 5.96046e-008 2.8 1.1
v -0.5 2.8 1
v -0.4 2.8 1
v -0.2 2.8 1
v -0.1 2.8 1
v 5.96046e-008 2.8 1

# faces
f 3/1/1 2/1/1 1/1/1
f 4/1/1 2/1/1 3/1/1
f 7/1/1 6/1/1 5/1/1
f 8/1/1 6/1/1 7/1/1
f 11/1/1 10/1/1 9/1/1
f 12/1/1 10/1/1 11/1/1
f 15/3/1 14/3/1 13/3/1
f 16/3/1 14/3/1 15/3/1
f 17/3/2 18/3/2 19/3/2
f 19/3/2 18/3/2 20/3/2
f 21/3/2 22/3/2 23/3/2
f 23/3/2 22/3/2 24/3/2
f 25/2/2 26/2/2 27/2/2
f 27/2/2 26/2/2 28/2/2
f 29/4/2 30/4/2 31/4/2
f 31/4/2 30/4/2 32/4/2
f 31/1/2 32/1/2 33/1/2
f 33/1/2 32/1/2 34/1/2
f 37/3/3 36/3/3 35/3/3
f 38/3/3 36/3/3 37/3/3
f 39/3/3 37/3/3 35/3/3
f 40/3/3 37/3/3 39/3/3
f 43/1/3 42/1/3 41/1/3
f 44/1/3 42/1/3 43/1/3
f 46/4/3 44/4/3 43/4/3
f 46/1/3 45/1/3 44/1/3
f 47/1/3 45/1/3 46/1/3
f 49/4/3 47/4/3 46/4/3
f 49/1/3 48/1/3 47/1/3
f 50/1/3 48/1/3 49/1/3
f 51/4/3 46/4/3 43/4/3
f 51/4/3 49/4/3 46/4/3
f 51/4/3 50/4/3 49/4/3
f 52/4/3 50/4/3 51/4/3
f 54/4/3 50/4/3 52/4/3
f 55/4/3 50/4/3 54/4/3
f 56/1/3 54/1/3 53/1/3
f 56/1/3 55/1/3 54/1/3
f 57/1/3 55/1/3 56/1/3
f 59/1/3 56/1/3 53/1/3
f 60/2/3 57/2/3 56/2/3
f 60/1/3 56/1/3 59/1/3
f 61/2/3 57/2/3 60/2/3
f 62/4/3 59/4/3 58/4/3
f 63/1/3 60/1/3 59/1/3
f 63/4/3 59/4/3 62/4/3
f 64/1/3 60/1/3 63/1/3
f 65/1/4 66/1/4 67/1/4
f 67/1/4 66/1/4 68/1/4
f 67/4/4 68/4/4 70/4/4
f 68/1/4 69/1/4 70/1/4
f 70/1/4 69/1/4 71/1/4
f 70/4/4 71/4/4 73/4/4
f 71/1/4 72/1/4 73/1/4
f 73/1/4 72/1/4 74/1/4
f 67/4/4 70/4/4 75/4/4
f 70/4/4 73/4/4 75/4/4
f 73/4/4 74/4/4 75/4/4
f 75/4/4 74/4/4 76/4/4
f 75/1/4 76/1/4 77/1/4
f 77/1/4 76/1/4 78/1/4
f 75/1/4 77/1/4 79/1/4
f 77/2/4 78/2/4 79/2/4
f 79/2/4 78/2/4 80/2/4
f 67/4/4 75/4/4 81/4/4
f 75/1/4 79/1/4 82/1/4
f 81/4/4 75/4/4 82/4/4
f 82/1/4 79/1/4 83/1/4
f 88/3/5 85/3/5 84/3/5
f 89/3/5 85/3/5 88/3/5
f 91/1/5 87/1/5 86/1/5
f 92/4/5 90/4/5 89/4/5
f 92/1/5 87/1/5 91/1/5
f 92/4/5 88/4/5 87/4/5
f 92/4/5 89/4/5 88/4/5
f 93/4/5 90/4/5 92/4/5
f 94/3/6 95/3/6 98/3/6
f 98/3/6 95/3/6 99/3/6
f 96/1/6 97/1/6 100/1/6
f 100/1/6 97/1/6 101/1/6
f 102/3/6 103/3/6 106/3/6
f 106/3/6 103/3/6 107/3/6
f 104/1/6 105/1/6 110/1/6
f 110/1/6 105/1/6 111/1/6
f 108/1/6 109/1/6 112/1/6
f 112/1/6 109/1/6 113/1/6
f 114/1/6 115/1/6 119/1/6
f 115/4/6 116/4/6 120/4/6
f 119/1/6 115/1/6 120/1/6
f 116/1/6 117/1/6 121/1/6
f 120/4/6 116/4/6 121/4/6
f 117/2/6 118/2/6 122/2/6
f 121/1/6 117/1/6 122/1/6
f 122/2/6 118/2/6 123/2/6
